<svg xmlns="http://www.w3.org/2000/svg" xmlns:xlink="http://www.w3.org/1999/xlink" width="1080" zoomAndPan="magnify" viewBox="0 0 810 809.999993" height="1080" preserveAspectRatio="xMidYMid meet" version="1.0"><defs><clipPath id="d60d4c7cc4"><path d="M 118 175.082031 L 724 175.082031 L 724 579 L 118 579 Z M 118 175.082031 " clip-rule="nonzero"/></clipPath><clipPath id="aa23f2a692"><path d="M 82 593 L 759 593 L 759 634.832031 L 82 634.832031 Z M 82 593 " clip-rule="nonzero"/></clipPath></defs><g clip-path="url(#d60d4c7cc4)"><path fill="#0029ad" d="M 673.660156 578.019531 L 168.835938 578.019531 C 141.296875 578.019531 118.957031 555.683594 118.957031 528.152344 L 118.957031 224.949219 C 118.957031 197.414062 141.296875 175.082031 168.835938 175.082031 L 673.660156 175.082031 C 701.199219 175.082031 723.539062 197.414062 723.539062 224.949219 L 723.539062 528.1875 C 723.5 555.683594 701.199219 578.019531 673.660156 578.019531 Z M 673.660156 578.019531 " fill-opacity="1" fill-rule="nonzero"/></g><path fill="#ffffff" d="M 676.023438 552.046875 L 166.472656 552.046875 C 153.265625 552.046875 142.570312 541.355469 142.570312 528.152344 L 142.570312 224.949219 C 142.570312 211.746094 153.265625 201.050781 166.472656 201.050781 L 676.023438 201.050781 C 689.230469 201.050781 699.925781 211.746094 699.925781 224.949219 L 699.925781 528.1875 C 699.890625 541.355469 689.195312 552.046875 676.023438 552.046875 Z M 676.023438 552.046875 " fill-opacity="1" fill-rule="nonzero"/><g clip-path="url(#aa23f2a692)"><path fill="#0029ad" d="M 732.160156 634.6875 L 108.734375 634.6875 C 94.402344 634.6875 82.757812 623.046875 82.757812 608.714844 L 82.757812 593.765625 L 758.101562 593.765625 L 758.101562 608.714844 C 758.136719 623.046875 746.53125 634.6875 732.160156 634.6875 Z M 732.160156 634.6875 " fill-opacity="1" fill-rule="nonzero"/></g><path fill="#669dff" d="M 414.519531 513.566406 C 414.519531 513.566406 545.960938 468.863281 510.746094 283.253906 L 411.753906 252.773438 L 313.269531 283.253906 C 278.050781 468.863281 409.496094 513.566406 409.496094 513.566406 L 412.007812 514.003906 Z M 414.519531 513.566406 " fill-opacity="1" fill-rule="nonzero"/><path fill="#0029ad" d="M 447.332031 348.070312 L 449.878906 348.070312 C 457.375 348.070312 463.414062 354.144531 463.414062 361.601562 L 463.414062 424.269531 C 463.414062 431.765625 457.339844 437.800781 449.878906 437.800781 L 375.664062 437.800781 C 368.167969 437.800781 362.128906 431.726562 362.128906 424.269531 L 362.128906 361.601562 C 362.128906 354.109375 368.203125 348.070312 375.664062 348.070312 L 380.066406 348.070312 L 380.066406 329.664062 C 380.066406 311.042969 395.164062 295.949219 413.789062 295.949219 C 432.417969 295.949219 447.515625 311.042969 447.515625 329.664062 L 447.515625 344.179688 Z M 434.273438 331.449219 C 434.273438 319.953125 424.960938 310.605469 413.425781 310.605469 C 401.929688 310.605469 392.578125 319.917969 392.578125 331.449219 L 392.578125 348.035156 L 434.234375 348.035156 L 434.234375 331.449219 Z M 434.273438 331.449219 " fill-opacity="1" fill-rule="nonzero"/><path fill="#000000" d="M 326.546875 279.144531 C 328.113281 286.273438 329.09375 294.964844 329.09375 294.964844 C 330.730469 318.136719 335.535156 315.445312 339.390625 311.042969 C 341.320312 308.824219 343.136719 304.570312 343.539062 301.660156 C 346.703125 278.054688 343.464844 273.90625 343.464844 273.90625 C 348.8125 292.238281 350.195312 303.222656 350.195312 303.222656 C 350.414062 312.425781 354.851562 320.027344 357.835938 318.644531 C 361.363281 316.972656 364.238281 310.207031 364.457031 306.277344 C 365.148438 293.511719 359.546875 268.851562 359.546875 268.851562 C 368.894531 275.945312 372.753906 303.078125 372.753906 303.078125 C 373.953125 309.878906 378.320312 305.914062 381.375 301.550781 C 383.121094 299.078125 384.320312 295.621094 384.429688 292.566406 C 385.085938 273.617188 377.480469 263.613281 377.480469 263.613281 C 381.191406 261.175781 386.214844 263.722656 388.140625 275.144531 C 389.160156 281.398438 390.761719 285.253906 392.179688 287.582031 C 393.707031 290.054688 397.382812 290.09375 398.875 287.617188 C 404.621094 278.199219 395.273438 257.902344 395.273438 257.902344 C 407.605469 260.265625 413.570312 265.648438 413.570312 265.648438 C 421.464844 269.214844 425.140625 266.269531 426.886719 263.03125 C 428.269531 260.414062 427.25 257.140625 424.703125 255.574219 C 412.042969 247.753906 402.222656 243.972656 402.222656 243.972656 C 390.46875 238.550781 392.652344 252.773438 392.652344 252.773438 C 387.339844 245.027344 381.121094 246.953125 377.191406 249.5 C 374.824219 251.027344 373.660156 253.136719 374.863281 255.648438 C 376.355469 258.8125 377.84375 262.847656 373.296875 256.628906 C 366.058594 246.699219 357.035156 262.050781 357.035156 262.050781 C 345.285156 250.300781 340.773438 264.742188 340.773438 264.742188 C 312.722656 259.320312 326.546875 279.144531 326.546875 279.144531 Z M 326.546875 279.144531 " fill-opacity="1" fill-rule="nonzero"/><path fill="#ffffff" d="M 388.433594 391.753906 C 390.617188 384.878906 399.636719 378.367188 413.390625 378.40625 C 427.140625 378.441406 436.128906 384.953125 438.457031 392.300781 L 438.457031 392.371094 C 436.273438 399.246094 427.25 405.757812 413.5 405.722656 C 399.746094 405.683594 390.761719 399.175781 388.433594 391.828125 L 388.394531 391.789062 Z M 388.433594 391.753906 " fill-opacity="1" fill-rule="nonzero"/><path fill="#000000" d="M 406.078125 386.226562 C 407.824219 384.078125 410.480469 382.695312 413.460938 382.695312 C 418.703125 382.695312 422.921875 386.953125 422.921875 392.152344 C 422.921875 397.390625 418.664062 401.609375 413.460938 401.609375 C 408.222656 401.609375 404.003906 397.355469 404.003906 392.152344 C 404.003906 391.679688 404.039062 391.171875 404.113281 390.699219 L 404.148438 390.589844 C 404.585938 390.988281 405.203125 391.28125 405.859375 391.28125 C 407.207031 391.28125 408.332031 390.191406 408.332031 388.808594 C 408.332031 387.5 407.3125 386.445312 406.039062 386.335938 Z M 406.078125 386.226562 " fill-opacity="1" fill-rule="nonzero"/><path fill="#0029ad" d="M 546.691406 283.035156 L 495.320312 283.035156 L 495.320312 279.652344 L 546.726562 279.652344 L 546.726562 283.035156 Z M 316.433594 296.492188 L 267.757812 296.492188 L 267.757812 299.875 L 316.433594 299.875 Z M 336.296875 490.03125 L 284.929688 490.03125 L 284.929688 497.5625 L 336.335938 497.5625 L 336.335938 490.03125 Z M 259.972656 431.183594 L 215.988281 431.183594 L 215.988281 433.21875 L 259.933594 433.21875 L 259.933594 431.183594 Z M 387.269531 231.75 L 341.972656 231.75 L 341.972656 235.824219 L 387.269531 235.824219 Z M 595.769531 379.714844 L 546.398438 379.714844 L 546.398438 382.40625 L 595.769531 382.40625 Z M 476.074219 529.0625 L 426.707031 529.0625 L 426.707031 531.753906 L 476.074219 531.753906 Z M 476.074219 529.0625 " fill-opacity="1" fill-rule="nonzero"/><path fill="#ffffff" d="M 339.863281 464.171875 L 353.289062 464.171875 L 353.289062 465.699219 L 339.863281 465.699219 Z M 357.617188 376.148438 L 335.570312 376.148438 L 335.570312 383.242188 L 357.617188 383.242188 Z M 318.980469 352.253906 L 284.929688 352.253906 L 284.929688 366.21875 L 318.980469 366.21875 Z M 532.027344 392.191406 L 495.320312 392.191406 L 495.320312 412.269531 L 532.027344 412.269531 Z M 329.933594 397.644531 L 284.601562 397.644531 L 284.601562 401.71875 L 329.894531 401.71875 L 329.894531 397.644531 Z M 485.640625 457.550781 L 440.3125 457.550781 L 440.3125 471.59375 L 485.605469 471.59375 L 485.605469 457.550781 Z M 375.664062 482.941406 L 353.617188 482.941406 L 353.617188 490.03125 L 375.664062 490.03125 Z M 375.664062 482.941406 " fill-opacity="1" fill-rule="nonzero"/><path fill="#669dff" d="M 437.4375 321.15625 L 421.175781 321.15625 L 421.175781 317.554688 L 437.4375 317.554688 Z M 429.289062 294.964844 L 414.371094 294.964844 L 414.371094 298.859375 L 429.289062 298.859375 Z M 315.160156 319.773438 L 302.464844 319.773438 L 302.464844 322.210938 L 315.160156 322.210938 Z M 578.230469 329.339844 L 556.148438 329.339844 L 556.148438 338.175781 L 578.230469 338.175781 Z M 340.335938 437.945312 L 316.398438 437.945312 L 316.398438 438.929688 L 340.335938 438.929688 Z M 583.433594 300.675781 L 549.855469 300.675781 L 549.855469 302.640625 L 583.433594 302.640625 Z M 550.109375 419.289062 L 605.226562 419.289062 L 605.226562 410.265625 L 550.109375 410.265625 Z M 574.121094 472.9375 L 497.429688 472.9375 L 497.429688 479.230469 L 574.121094 479.230469 Z M 469.417969 443.695312 L 513.148438 443.695312 L 513.148438 434.164062 L 469.417969 434.164062 Z M 307.265625 257.140625 L 249.640625 257.140625 L 249.640625 265.578125 L 307.265625 265.578125 Z M 217.550781 352.542969 L 281.726562 352.542969 L 281.726562 343.597656 L 217.550781 343.597656 Z M 317.488281 476.828125 L 363.4375 476.828125 L 363.4375 475.375 L 317.488281 475.375 Z M 278.742188 369.3125 L 338.953125 369.3125 L 338.953125 367.855469 L 278.742188 367.855469 Z M 335.390625 444.566406 L 318.144531 444.566406 L 318.144531 447.003906 L 335.390625 447.003906 Z M 605.335938 285.507812 L 618.03125 285.507812 L 618.03125 283.074219 L 605.335938 283.074219 Z M 475.238281 339.195312 L 456.902344 339.195312 L 456.902344 356.945312 L 475.238281 356.945312 Z M 475.238281 339.195312 " fill-opacity="1" fill-rule="nonzero"/></svg>