<svg xmlns="http://www.w3.org/2000/svg" xmlns:xlink="http://www.w3.org/1999/xlink" width="1080" zoomAndPan="magnify" viewBox="0 0 810 809.999993" height="1080" preserveAspectRatio="xMidYMid meet" version="1.0"><defs><clipPath id="91e80ba4bd"><path d="M 193 81.050781 L 659 81.050781 L 659 132 L 193 132 Z M 193 81.050781 " clip-rule="nonzero"/></clipPath><clipPath id="88a188b46a"><path d="M 193 131 L 659 131 L 659 596 L 193 596 Z M 193 131 " clip-rule="nonzero"/></clipPath><clipPath id="844d190f1a"><path d="M 193.820312 131.109375 L 658.78125 131.109375 L 658.78125 552.492188 C 658.78125 558.203125 657.660156 563.859375 655.472656 569.136719 C 653.285156 574.410156 650.085938 579.207031 646.042969 583.246094 C 642.003906 587.285156 637.207031 590.488281 631.933594 592.671875 C 626.652344 594.859375 620.992188 595.984375 615.28125 595.984375 L 237.320312 595.984375 C 231.609375 595.984375 225.953125 594.859375 220.671875 592.671875 C 215.394531 590.488281 210.601562 587.285156 206.5625 583.246094 C 202.523438 579.207031 199.316406 574.410156 197.132812 569.136719 C 194.945312 563.859375 193.820312 558.203125 193.820312 552.492188 Z M 193.820312 131.109375 " clip-rule="nonzero"/></clipPath><linearGradient x1="2460.587653" gradientTransform="matrix(0.152756, 0, 0, 0.152726, 81.000003, 81.052689)" y1="50.043555" x2="3016.201651" gradientUnits="userSpaceOnUse" y2="3495.165905" id="0d9ec39c33"><stop stop-opacity="1" stop-color="rgb(85.400391%, 90.440369%, 100%)" offset="0"/><stop stop-opacity="1" stop-color="rgb(85.289001%, 90.367126%, 100%)" offset="0.015625"/><stop stop-opacity="1" stop-color="rgb(85.066223%, 90.220642%, 100%)" offset="0.03125"/><stop stop-opacity="1" stop-color="rgb(84.841919%, 90.075684%, 100%)" offset="0.046875"/><stop stop-opacity="1" stop-color="rgb(84.619141%, 89.929199%, 100%)" offset="0.0625"/><stop stop-opacity="1" stop-color="rgb(84.394836%, 89.782715%, 100%)" offset="0.078125"/><stop stop-opacity="1" stop-color="rgb(84.172058%, 89.63623%, 100%)" offset="0.09375"/><stop stop-opacity="1" stop-color="rgb(83.947754%, 89.489746%, 100%)" offset="0.109375"/><stop stop-opacity="1" stop-color="rgb(83.724976%, 89.343262%, 100%)" offset="0.125"/><stop stop-opacity="1" stop-color="rgb(83.500671%, 89.196777%, 100%)" offset="0.138877"/><stop stop-opacity="1" stop-color="rgb(83.389282%, 89.123535%, 100%)" offset="0.140625"/><stop stop-opacity="1" stop-color="rgb(83.277893%, 89.050293%, 100%)" offset="0.15625"/><stop stop-opacity="1" stop-color="rgb(83.055115%, 88.903809%, 100%)" offset="0.171875"/><stop stop-opacity="1" stop-color="rgb(82.830811%, 88.75885%, 100%)" offset="0.1875"/><stop stop-opacity="1" stop-color="rgb(82.608032%, 88.612366%, 100%)" offset="0.203125"/><stop stop-opacity="1" stop-color="rgb(82.383728%, 88.465881%, 100%)" offset="0.21875"/><stop stop-opacity="1" stop-color="rgb(82.16095%, 88.319397%, 100%)" offset="0.234375"/><stop stop-opacity="1" stop-color="rgb(81.936646%, 88.172913%, 100%)" offset="0.25"/><stop stop-opacity="1" stop-color="rgb(81.713867%, 88.026428%, 100%)" offset="0.265625"/><stop stop-opacity="1" stop-color="rgb(81.489563%, 87.879944%, 100%)" offset="0.28125"/><stop stop-opacity="1" stop-color="rgb(81.266785%, 87.733459%, 100%)" offset="0.296875"/><stop stop-opacity="1" stop-color="rgb(81.04248%, 87.586975%, 100%)" offset="0.3125"/><stop stop-opacity="1" stop-color="rgb(80.819702%, 87.442017%, 100%)" offset="0.328125"/><stop stop-opacity="1" stop-color="rgb(80.596924%, 87.295532%, 100%)" offset="0.34375"/><stop stop-opacity="1" stop-color="rgb(80.37262%, 87.149048%, 100%)" offset="0.359375"/><stop stop-opacity="1" stop-color="rgb(80.149841%, 87.002563%, 100%)" offset="0.375"/><stop stop-opacity="1" stop-color="rgb(79.925537%, 86.856079%, 100%)" offset="0.390625"/><stop stop-opacity="1" stop-color="rgb(79.702759%, 86.709595%, 100%)" offset="0.40625"/><stop stop-opacity="1" stop-color="rgb(79.478455%, 86.56311%, 100%)" offset="0.421875"/><stop stop-opacity="1" stop-color="rgb(79.255676%, 86.416626%, 100%)" offset="0.4375"/><stop stop-opacity="1" stop-color="rgb(79.031372%, 86.270142%, 100%)" offset="0.453125"/><stop stop-opacity="1" stop-color="rgb(78.808594%, 86.125183%, 100%)" offset="0.46875"/><stop stop-opacity="1" stop-color="rgb(78.58429%, 85.978699%, 100%)" offset="0.484375"/><stop stop-opacity="1" stop-color="rgb(78.361511%, 85.832214%, 100%)" offset="0.5"/><stop stop-opacity="1" stop-color="rgb(78.138733%, 85.68573%, 100%)" offset="0.515625"/><stop stop-opacity="1" stop-color="rgb(77.914429%, 85.539246%, 100%)" offset="0.53125"/><stop stop-opacity="1" stop-color="rgb(77.69165%, 85.392761%, 100%)" offset="0.546875"/><stop stop-opacity="1" stop-color="rgb(77.467346%, 85.246277%, 100%)" offset="0.5625"/><stop stop-opacity="1" stop-color="rgb(77.244568%, 85.099792%, 100%)" offset="0.578125"/><stop stop-opacity="1" stop-color="rgb(77.020264%, 84.953308%, 100%)" offset="0.59375"/><stop stop-opacity="1" stop-color="rgb(76.797485%, 84.80835%, 100%)" offset="0.609375"/><stop stop-opacity="1" stop-color="rgb(76.573181%, 84.661865%, 100%)" offset="0.625"/><stop stop-opacity="1" stop-color="rgb(76.350403%, 84.515381%, 100%)" offset="0.640625"/><stop stop-opacity="1" stop-color="rgb(76.127625%, 84.368896%, 100%)" offset="0.65625"/><stop stop-opacity="1" stop-color="rgb(75.90332%, 84.222412%, 100%)" offset="0.671875"/><stop stop-opacity="1" stop-color="rgb(75.680542%, 84.075928%, 100%)" offset="0.6875"/><stop stop-opacity="1" stop-color="rgb(75.456238%, 83.929443%, 100%)" offset="0.703125"/><stop stop-opacity="1" stop-color="rgb(75.233459%, 83.782959%, 100%)" offset="0.71875"/><stop stop-opacity="1" stop-color="rgb(75.009155%, 83.636475%, 100%)" offset="0.734375"/><stop stop-opacity="1" stop-color="rgb(74.786377%, 83.491516%, 100%)" offset="0.75"/><stop stop-opacity="1" stop-color="rgb(74.562073%, 83.345032%, 100%)" offset="0.765625"/><stop stop-opacity="1" stop-color="rgb(74.339294%, 83.198547%, 100%)" offset="0.78125"/><stop stop-opacity="1" stop-color="rgb(74.11499%, 83.052063%, 100%)" offset="0.796875"/><stop stop-opacity="1" stop-color="rgb(73.892212%, 82.905579%, 100%)" offset="0.8125"/><stop stop-opacity="1" stop-color="rgb(73.669434%, 82.759094%, 100%)" offset="0.828125"/><stop stop-opacity="1" stop-color="rgb(73.445129%, 82.61261%, 100%)" offset="0.84375"/><stop stop-opacity="1" stop-color="rgb(73.222351%, 82.466125%, 100%)" offset="0.859375"/><stop stop-opacity="1" stop-color="rgb(72.998047%, 82.319641%, 100%)" offset="0.861123"/><stop stop-opacity="1" stop-color="rgb(72.886658%, 82.247925%, 100%)" offset="0.875"/><stop stop-opacity="1" stop-color="rgb(72.775269%, 82.174683%, 100%)" offset="0.890625"/><stop stop-opacity="1" stop-color="rgb(72.550964%, 82.028198%, 100%)" offset="0.90625"/><stop stop-opacity="1" stop-color="rgb(72.328186%, 81.881714%, 100%)" offset="0.921875"/><stop stop-opacity="1" stop-color="rgb(72.103882%, 81.735229%, 100%)" offset="0.9375"/><stop stop-opacity="1" stop-color="rgb(71.881104%, 81.588745%, 100%)" offset="0.953125"/><stop stop-opacity="1" stop-color="rgb(71.658325%, 81.442261%, 100%)" offset="0.96875"/><stop stop-opacity="1" stop-color="rgb(71.434021%, 81.295776%, 100%)" offset="0.984375"/><stop stop-opacity="1" stop-color="rgb(71.211243%, 81.149292%, 100%)" offset="1"/></linearGradient><clipPath id="ab3b014b5b"><path d="M 414 404 L 581 404 L 581 516 L 414 516 Z M 414 404 " clip-rule="nonzero"/></clipPath><clipPath id="d8a8dadf20"><path d="M 559.03125 515.265625 L 435.617188 515.265625 C 433.230469 515.265625 430.925781 514.394531 429.136719 512.8125 C 427.34375 511.234375 426.195312 509.054688 425.898438 506.6875 L 414.507812 415.792969 C 414.332031 414.414062 414.457031 413.011719 414.863281 411.6875 C 415.273438 410.359375 415.960938 409.132812 416.882812 408.09375 C 417.800781 407.050781 418.929688 406.21875 420.199219 405.644531 C 421.464844 405.074219 422.835938 404.777344 424.226562 404.777344 L 570.425781 404.777344 C 571.8125 404.777344 573.1875 405.074219 574.453125 405.644531 C 575.71875 406.21875 576.847656 407.050781 577.769531 408.09375 C 578.6875 409.132812 579.375 410.359375 579.785156 411.6875 C 580.195312 413.011719 580.316406 414.414062 580.144531 415.792969 L 568.753906 506.6875 C 568.453125 509.054688 567.304688 511.234375 565.515625 512.8125 C 563.722656 514.394531 561.417969 515.265625 559.03125 515.265625 Z M 559.03125 515.265625 " clip-rule="nonzero"/></clipPath><linearGradient x1="2695.840315" gradientTransform="matrix(0.152756, 0, 0, 0.152726, 81.000003, 81.052689)" y1="2082.523509" x2="2753.496997" gradientUnits="userSpaceOnUse" y2="2880.305906" id="5cfe7bbdc2"><stop stop-opacity="1" stop-color="rgb(100%, 100%, 100%)" offset="0"/><stop stop-opacity="1" stop-color="rgb(100%, 100%, 100%)" offset="0.03125"/><stop stop-opacity="1" stop-color="rgb(99.972534%, 99.981689%, 100%)" offset="0.046875"/><stop stop-opacity="1" stop-color="rgb(99.775696%, 99.85199%, 100%)" offset="0.0625"/><stop stop-opacity="1" stop-color="rgb(99.436951%, 99.630737%, 100%)" offset="0.078125"/><stop stop-opacity="1" stop-color="rgb(99.09668%, 99.407959%, 100%)" offset="0.09375"/><stop stop-opacity="1" stop-color="rgb(98.757935%, 99.186707%, 100%)" offset="0.0979228"/><stop stop-opacity="1" stop-color="rgb(98.588562%, 99.075317%, 100%)" offset="0.109375"/><stop stop-opacity="1" stop-color="rgb(98.419189%, 98.963928%, 100%)" offset="0.125"/><stop stop-opacity="1" stop-color="rgb(98.080444%, 98.742676%, 100%)" offset="0.140625"/><stop stop-opacity="1" stop-color="rgb(97.740173%, 98.519897%, 100%)" offset="0.15625"/><stop stop-opacity="1" stop-color="rgb(97.401428%, 98.298645%, 100%)" offset="0.171875"/><stop stop-opacity="1" stop-color="rgb(97.062683%, 98.075867%, 100%)" offset="0.1875"/><stop stop-opacity="1" stop-color="rgb(96.723938%, 97.854614%, 100%)" offset="0.203125"/><stop stop-opacity="1" stop-color="rgb(96.383667%, 97.631836%, 100%)" offset="0.21875"/><stop stop-opacity="1" stop-color="rgb(96.044922%, 97.410583%, 100%)" offset="0.234375"/><stop stop-opacity="1" stop-color="rgb(95.706177%, 97.187805%, 100%)" offset="0.25"/><stop stop-opacity="1" stop-color="rgb(95.367432%, 96.966553%, 100%)" offset="0.265625"/><stop stop-opacity="1" stop-color="rgb(95.027161%, 96.743774%, 100%)" offset="0.28125"/><stop stop-opacity="1" stop-color="rgb(94.688416%, 96.522522%, 100%)" offset="0.296875"/><stop stop-opacity="1" stop-color="rgb(94.34967%, 96.299744%, 100%)" offset="0.3125"/><stop stop-opacity="1" stop-color="rgb(94.010925%, 96.076965%, 100%)" offset="0.328125"/><stop stop-opacity="1" stop-color="rgb(93.670654%, 95.855713%, 100%)" offset="0.34375"/><stop stop-opacity="1" stop-color="rgb(93.331909%, 95.632935%, 100%)" offset="0.359375"/><stop stop-opacity="1" stop-color="rgb(92.993164%, 95.411682%, 100%)" offset="0.375"/><stop stop-opacity="1" stop-color="rgb(92.654419%, 95.188904%, 100%)" offset="0.390625"/><stop stop-opacity="1" stop-color="rgb(92.314148%, 94.967651%, 100%)" offset="0.40625"/><stop stop-opacity="1" stop-color="rgb(91.975403%, 94.744873%, 100%)" offset="0.421875"/><stop stop-opacity="1" stop-color="rgb(91.636658%, 94.523621%, 100%)" offset="0.4375"/><stop stop-opacity="1" stop-color="rgb(91.297913%, 94.300842%, 100%)" offset="0.453125"/><stop stop-opacity="1" stop-color="rgb(90.957642%, 94.07959%, 100%)" offset="0.46875"/><stop stop-opacity="1" stop-color="rgb(90.618896%, 93.856812%, 100%)" offset="0.484375"/><stop stop-opacity="1" stop-color="rgb(90.280151%, 93.635559%, 100%)" offset="0.5"/><stop stop-opacity="1" stop-color="rgb(89.941406%, 93.412781%, 100%)" offset="0.515625"/><stop stop-opacity="1" stop-color="rgb(89.601135%, 93.191528%, 100%)" offset="0.53125"/><stop stop-opacity="1" stop-color="rgb(89.26239%, 92.96875%, 100%)" offset="0.546875"/><stop stop-opacity="1" stop-color="rgb(88.923645%, 92.747498%, 100%)" offset="0.5625"/><stop stop-opacity="1" stop-color="rgb(88.5849%, 92.524719%, 100%)" offset="0.578125"/><stop stop-opacity="1" stop-color="rgb(88.244629%, 92.303467%, 100%)" offset="0.59375"/><stop stop-opacity="1" stop-color="rgb(87.905884%, 92.080688%, 100%)" offset="0.609375"/><stop stop-opacity="1" stop-color="rgb(87.567139%, 91.859436%, 100%)" offset="0.625"/><stop stop-opacity="1" stop-color="rgb(87.228394%, 91.636658%, 100%)" offset="0.640625"/><stop stop-opacity="1" stop-color="rgb(86.888123%, 91.413879%, 100%)" offset="0.65625"/><stop stop-opacity="1" stop-color="rgb(86.549377%, 91.192627%, 100%)" offset="0.671875"/><stop stop-opacity="1" stop-color="rgb(86.210632%, 90.969849%, 100%)" offset="0.6875"/><stop stop-opacity="1" stop-color="rgb(85.871887%, 90.748596%, 100%)" offset="0.703125"/><stop stop-opacity="1" stop-color="rgb(85.531616%, 90.525818%, 100%)" offset="0.71875"/><stop stop-opacity="1" stop-color="rgb(85.192871%, 90.304565%, 100%)" offset="0.734375"/><stop stop-opacity="1" stop-color="rgb(84.854126%, 90.081787%, 100%)" offset="0.75"/><stop stop-opacity="1" stop-color="rgb(84.513855%, 89.860535%, 100%)" offset="0.765625"/><stop stop-opacity="1" stop-color="rgb(84.17511%, 89.637756%, 100%)" offset="0.78125"/><stop stop-opacity="1" stop-color="rgb(83.836365%, 89.416504%, 100%)" offset="0.796875"/><stop stop-opacity="1" stop-color="rgb(83.49762%, 89.193726%, 100%)" offset="0.8125"/><stop stop-opacity="1" stop-color="rgb(83.157349%, 88.972473%, 100%)" offset="0.828125"/><stop stop-opacity="1" stop-color="rgb(82.818604%, 88.749695%, 100%)" offset="0.84375"/><stop stop-opacity="1" stop-color="rgb(82.479858%, 88.528442%, 100%)" offset="0.859375"/><stop stop-opacity="1" stop-color="rgb(82.141113%, 88.305664%, 100%)" offset="0.875"/><stop stop-opacity="1" stop-color="rgb(81.800842%, 88.084412%, 100%)" offset="0.890625"/><stop stop-opacity="1" stop-color="rgb(81.462097%, 87.861633%, 100%)" offset="0.902077"/><stop stop-opacity="1" stop-color="rgb(81.292725%, 87.75177%, 100%)" offset="0.90625"/><stop stop-opacity="1" stop-color="rgb(81.123352%, 87.640381%, 100%)" offset="0.921875"/><stop stop-opacity="1" stop-color="rgb(80.784607%, 87.417603%, 100%)" offset="0.9375"/><stop stop-opacity="1" stop-color="rgb(80.444336%, 87.19635%, 100%)" offset="0.953125"/><stop stop-opacity="1" stop-color="rgb(80.105591%, 86.973572%, 100%)" offset="0.96875"/><stop stop-opacity="1" stop-color="rgb(79.766846%, 86.750793%, 100%)" offset="0.984375"/><stop stop-opacity="1" stop-color="rgb(79.428101%, 86.529541%, 100%)" offset="1"/></linearGradient><clipPath id="27c87bb24d"><path d="M 81.078125 81.050781 L 223 81.050781 L 223 247 L 81.078125 247 Z M 81.078125 81.050781 " clip-rule="nonzero"/></clipPath><clipPath id="f3a1b29aba"><path d="M 81.078125 93 L 239 93 L 239 273 L 81.078125 273 Z M 81.078125 93 " clip-rule="nonzero"/></clipPath><clipPath id="3c7c85e015"><path d="M 485 381 L 747 381 L 747 680.136719 L 485 680.136719 Z M 485 381 " clip-rule="nonzero"/></clipPath><clipPath id="144c010a67"><path d="M 553 335 L 762.695312 335 L 762.695312 581 L 553 581 Z M 553 335 " clip-rule="nonzero"/></clipPath><clipPath id="0323aff91d"><path d="M 531 366 L 762.695312 366 L 762.695312 618 L 531 618 Z M 531 366 " clip-rule="nonzero"/></clipPath><clipPath id="abdcba9bd5"><path d="M 81.078125 564 L 183 564 L 183 622 L 81.078125 622 Z M 81.078125 564 " clip-rule="nonzero"/></clipPath><clipPath id="774fed35c1"><path d="M 407 427 L 762.695312 427 L 762.695312 680.136719 L 407 680.136719 Z M 407 427 " clip-rule="nonzero"/></clipPath><clipPath id="3373f2d91c"><path d="M 253 526 L 391 526 L 391 641 L 253 641 Z M 253 526 " clip-rule="nonzero"/></clipPath><clipPath id="56d4f4990f"><path d="M 263.46875 526.347656 C 282.101562 531.667969 325.695312 541.171875 382.8125 534.617188 C 383.730469 534.484375 384.664062 534.558594 385.550781 534.824219 C 386.441406 535.089844 387.257812 535.550781 387.953125 536.164062 C 388.644531 536.777344 389.195312 537.539062 389.566406 538.386719 C 389.9375 539.234375 390.117188 540.15625 390.097656 541.082031 L 390.097656 629.21875 C 390.054688 631.164062 389.328125 633.03125 388.046875 634.492188 C 386.761719 635.953125 385.003906 636.917969 383.078125 637.210938 C 362.742188 639.988281 302.355469 645.9375 257.355469 626.511719 C 256.203125 626 255.230469 625.164062 254.554688 624.097656 C 253.878906 623.035156 253.535156 621.796875 253.566406 620.539062 L 253.566406 534.144531 C 253.566406 529.035156 258.710938 524.992188 263.46875 526.347656 Z M 263.46875 526.347656 " clip-rule="nonzero"/></clipPath><linearGradient x1="1550.379657" gradientTransform="matrix(0.152756, 0, 0, 0.152726, 81.000003, 81.052689)" y1="2868.585826" x2="1628.914185" gradientUnits="userSpaceOnUse" y2="3734.468326" id="ed58c24d1c"><stop stop-opacity="1" stop-color="rgb(100%, 100%, 100%)" offset="0"/><stop stop-opacity="1" stop-color="rgb(99.859619%, 99.908447%, 100%)" offset="0.0625"/><stop stop-opacity="1" stop-color="rgb(99.542236%, 99.699402%, 100%)" offset="0.078125"/><stop stop-opacity="1" stop-color="rgb(99.185181%, 99.465942%, 100%)" offset="0.0928925"/><stop stop-opacity="1" stop-color="rgb(99.006653%, 99.34845%, 100%)" offset="0.09375"/><stop stop-opacity="1" stop-color="rgb(98.828125%, 99.230957%, 100%)" offset="0.109375"/><stop stop-opacity="1" stop-color="rgb(98.469543%, 98.997498%, 100%)" offset="0.125"/><stop stop-opacity="1" stop-color="rgb(98.112488%, 98.764038%, 100%)" offset="0.140625"/><stop stop-opacity="1" stop-color="rgb(97.755432%, 98.530579%, 100%)" offset="0.15625"/><stop stop-opacity="1" stop-color="rgb(97.398376%, 98.295593%, 100%)" offset="0.171875"/><stop stop-opacity="1" stop-color="rgb(97.041321%, 98.062134%, 100%)" offset="0.1875"/><stop stop-opacity="1" stop-color="rgb(96.684265%, 97.828674%, 100%)" offset="0.203125"/><stop stop-opacity="1" stop-color="rgb(96.327209%, 97.595215%, 100%)" offset="0.21875"/><stop stop-opacity="1" stop-color="rgb(95.970154%, 97.360229%, 100%)" offset="0.234375"/><stop stop-opacity="1" stop-color="rgb(95.613098%, 97.12677%, 100%)" offset="0.25"/><stop stop-opacity="1" stop-color="rgb(95.256042%, 96.893311%, 100%)" offset="0.265625"/><stop stop-opacity="1" stop-color="rgb(94.898987%, 96.658325%, 100%)" offset="0.28125"/><stop stop-opacity="1" stop-color="rgb(94.541931%, 96.424866%, 100%)" offset="0.296875"/><stop stop-opacity="1" stop-color="rgb(94.184875%, 96.191406%, 100%)" offset="0.3125"/><stop stop-opacity="1" stop-color="rgb(93.82782%, 95.957947%, 100%)" offset="0.328125"/><stop stop-opacity="1" stop-color="rgb(93.470764%, 95.722961%, 100%)" offset="0.34375"/><stop stop-opacity="1" stop-color="rgb(93.112183%, 95.489502%, 100%)" offset="0.359375"/><stop stop-opacity="1" stop-color="rgb(92.755127%, 95.256042%, 100%)" offset="0.375"/><stop stop-opacity="1" stop-color="rgb(92.398071%, 95.022583%, 100%)" offset="0.390625"/><stop stop-opacity="1" stop-color="rgb(92.041016%, 94.787598%, 100%)" offset="0.40625"/><stop stop-opacity="1" stop-color="rgb(91.68396%, 94.554138%, 100%)" offset="0.421875"/><stop stop-opacity="1" stop-color="rgb(91.326904%, 94.320679%, 100%)" offset="0.4375"/><stop stop-opacity="1" stop-color="rgb(90.969849%, 94.087219%, 100%)" offset="0.453125"/><stop stop-opacity="1" stop-color="rgb(90.612793%, 93.852234%, 100%)" offset="0.46875"/><stop stop-opacity="1" stop-color="rgb(90.255737%, 93.618774%, 100%)" offset="0.484375"/><stop stop-opacity="1" stop-color="rgb(89.898682%, 93.385315%, 100%)" offset="0.5"/><stop stop-opacity="1" stop-color="rgb(89.541626%, 93.151855%, 100%)" offset="0.515625"/><stop stop-opacity="1" stop-color="rgb(89.18457%, 92.91687%, 100%)" offset="0.53125"/><stop stop-opacity="1" stop-color="rgb(88.827515%, 92.683411%, 100%)" offset="0.546875"/><stop stop-opacity="1" stop-color="rgb(88.470459%, 92.449951%, 100%)" offset="0.5625"/><stop stop-opacity="1" stop-color="rgb(88.111877%, 92.216492%, 100%)" offset="0.578125"/><stop stop-opacity="1" stop-color="rgb(87.754822%, 91.981506%, 100%)" offset="0.59375"/><stop stop-opacity="1" stop-color="rgb(87.397766%, 91.748047%, 100%)" offset="0.609375"/><stop stop-opacity="1" stop-color="rgb(87.04071%, 91.514587%, 100%)" offset="0.625"/><stop stop-opacity="1" stop-color="rgb(86.683655%, 91.281128%, 100%)" offset="0.640625"/><stop stop-opacity="1" stop-color="rgb(86.326599%, 91.046143%, 100%)" offset="0.65625"/><stop stop-opacity="1" stop-color="rgb(85.969543%, 90.812683%, 100%)" offset="0.671875"/><stop stop-opacity="1" stop-color="rgb(85.612488%, 90.579224%, 100%)" offset="0.6875"/><stop stop-opacity="1" stop-color="rgb(85.255432%, 90.344238%, 100%)" offset="0.703125"/><stop stop-opacity="1" stop-color="rgb(84.898376%, 90.110779%, 100%)" offset="0.71875"/><stop stop-opacity="1" stop-color="rgb(84.541321%, 89.877319%, 100%)" offset="0.734375"/><stop stop-opacity="1" stop-color="rgb(84.184265%, 89.64386%, 100%)" offset="0.75"/><stop stop-opacity="1" stop-color="rgb(83.827209%, 89.408875%, 100%)" offset="0.765625"/><stop stop-opacity="1" stop-color="rgb(83.470154%, 89.175415%, 100%)" offset="0.78125"/><stop stop-opacity="1" stop-color="rgb(83.113098%, 88.941956%, 100%)" offset="0.796875"/><stop stop-opacity="1" stop-color="rgb(82.754517%, 88.708496%, 100%)" offset="0.8125"/><stop stop-opacity="1" stop-color="rgb(82.397461%, 88.473511%, 100%)" offset="0.828125"/><stop stop-opacity="1" stop-color="rgb(82.040405%, 88.240051%, 100%)" offset="0.84375"/><stop stop-opacity="1" stop-color="rgb(81.68335%, 88.006592%, 100%)" offset="0.859375"/><stop stop-opacity="1" stop-color="rgb(81.326294%, 87.773132%, 100%)" offset="0.875"/><stop stop-opacity="1" stop-color="rgb(80.969238%, 87.538147%, 100%)" offset="0.890625"/><stop stop-opacity="1" stop-color="rgb(80.612183%, 87.304688%, 100%)" offset="0.90625"/><stop stop-opacity="1" stop-color="rgb(80.255127%, 87.071228%, 100%)" offset="0.907108"/><stop stop-opacity="1" stop-color="rgb(80.076599%, 86.955261%, 100%)" offset="0.921875"/><stop stop-opacity="1" stop-color="rgb(79.898071%, 86.837769%, 100%)" offset="0.9375"/><stop stop-opacity="1" stop-color="rgb(79.541016%, 86.602783%, 100%)" offset="0.953125"/><stop stop-opacity="1" stop-color="rgb(79.18396%, 86.369324%, 100%)" offset="0.96875"/><stop stop-opacity="1" stop-color="rgb(78.826904%, 86.135864%, 100%)" offset="0.984375"/><stop stop-opacity="1" stop-color="rgb(78.469849%, 85.902405%, 100%)" offset="1"/></linearGradient><clipPath id="3bfa36d4ae"><path d="M 575 94 L 762.695312 94 L 762.695312 317 L 575 317 Z M 575 94 " clip-rule="nonzero"/></clipPath><clipPath id="0be7433336"><path d="M 752.109375 95.125 C 727.761719 112.996094 683.226562 158.066406 586.023438 173.042969 C 578.582031 174.1875 575.796875 179.480469 575.796875 185.332031 L 575.796875 308.550781 C 575.835938 310.261719 576.464844 311.90625 577.578125 313.203125 C 578.6875 314.503906 580.214844 315.382812 581.898438 315.6875 C 606.414062 319.816406 700.839844 295.734375 757.300781 247.25 C 762.695312 242.621094 762.695312 234.851562 762.695312 233.238281 L 762.695312 101.269531 C 762.695312 95.796875 756.277344 92.066406 752.109375 95.125 Z M 752.109375 95.125 " clip-rule="nonzero"/></clipPath><linearGradient x1="4019.741799" gradientTransform="matrix(0.152756, 0, 0, 0.152726, 81.000003, 81.052689)" y1="-77.555255" x2="4338.875847" gradientUnits="userSpaceOnUse" y2="1587.06944" id="dfc23f5632"><stop stop-opacity="1" stop-color="rgb(85.510254%, 90.512085%, 100%)" offset="0"/><stop stop-opacity="1" stop-color="rgb(85.395813%, 90.437317%, 100%)" offset="0.015625"/><stop stop-opacity="1" stop-color="rgb(85.166931%, 90.287781%, 100%)" offset="0.03125"/><stop stop-opacity="1" stop-color="rgb(84.938049%, 90.138245%, 100%)" offset="0.046875"/><stop stop-opacity="1" stop-color="rgb(84.710693%, 89.988708%, 100%)" offset="0.0625"/><stop stop-opacity="1" stop-color="rgb(84.481812%, 89.839172%, 100%)" offset="0.078125"/><stop stop-opacity="1" stop-color="rgb(84.25293%, 89.689636%, 100%)" offset="0.09375"/><stop stop-opacity="1" stop-color="rgb(84.025574%, 89.5401%, 100%)" offset="0.109375"/><stop stop-opacity="1" stop-color="rgb(83.796692%, 89.390564%, 100%)" offset="0.125"/><stop stop-opacity="1" stop-color="rgb(83.569336%, 89.241028%, 100%)" offset="0.135919"/><stop stop-opacity="1" stop-color="rgb(83.454895%, 89.16626%, 100%)" offset="0.140625"/><stop stop-opacity="1" stop-color="rgb(83.340454%, 89.091492%, 100%)" offset="0.15625"/><stop stop-opacity="1" stop-color="rgb(83.111572%, 88.941956%, 100%)" offset="0.171875"/><stop stop-opacity="1" stop-color="rgb(82.884216%, 88.792419%, 100%)" offset="0.1875"/><stop stop-opacity="1" stop-color="rgb(82.655334%, 88.642883%, 100%)" offset="0.203125"/><stop stop-opacity="1" stop-color="rgb(82.426453%, 88.493347%, 100%)" offset="0.21875"/><stop stop-opacity="1" stop-color="rgb(82.199097%, 88.343811%, 100%)" offset="0.234375"/><stop stop-opacity="1" stop-color="rgb(81.970215%, 88.194275%, 100%)" offset="0.25"/><stop stop-opacity="1" stop-color="rgb(81.741333%, 88.044739%, 100%)" offset="0.265625"/><stop stop-opacity="1" stop-color="rgb(81.513977%, 87.895203%, 100%)" offset="0.28125"/><stop stop-opacity="1" stop-color="rgb(81.285095%, 87.745667%, 100%)" offset="0.296875"/><stop stop-opacity="1" stop-color="rgb(81.056213%, 87.59613%, 100%)" offset="0.3125"/><stop stop-opacity="1" stop-color="rgb(80.828857%, 87.446594%, 100%)" offset="0.328125"/><stop stop-opacity="1" stop-color="rgb(80.599976%, 87.297058%, 100%)" offset="0.34375"/><stop stop-opacity="1" stop-color="rgb(80.371094%, 87.147522%, 100%)" offset="0.359375"/><stop stop-opacity="1" stop-color="rgb(80.143738%, 86.997986%, 100%)" offset="0.375"/><stop stop-opacity="1" stop-color="rgb(79.914856%, 86.84845%, 100%)" offset="0.390625"/><stop stop-opacity="1" stop-color="rgb(79.685974%, 86.698914%, 100%)" offset="0.40625"/><stop stop-opacity="1" stop-color="rgb(79.458618%, 86.549377%, 100%)" offset="0.421875"/><stop stop-opacity="1" stop-color="rgb(79.229736%, 86.399841%, 100%)" offset="0.4375"/><stop stop-opacity="1" stop-color="rgb(79.00238%, 86.250305%, 100%)" offset="0.453125"/><stop stop-opacity="1" stop-color="rgb(78.773499%, 86.100769%, 100%)" offset="0.46875"/><stop stop-opacity="1" stop-color="rgb(78.544617%, 85.951233%, 100%)" offset="0.484375"/><stop stop-opacity="1" stop-color="rgb(78.317261%, 85.801697%, 100%)" offset="0.5"/><stop stop-opacity="1" stop-color="rgb(78.088379%, 85.653687%, 100%)" offset="0.515625"/><stop stop-opacity="1" stop-color="rgb(77.859497%, 85.50415%, 100%)" offset="0.53125"/><stop stop-opacity="1" stop-color="rgb(77.632141%, 85.354614%, 100%)" offset="0.546875"/><stop stop-opacity="1" stop-color="rgb(77.403259%, 85.205078%, 100%)" offset="0.5625"/><stop stop-opacity="1" stop-color="rgb(77.174377%, 85.055542%, 100%)" offset="0.578125"/><stop stop-opacity="1" stop-color="rgb(76.947021%, 84.906006%, 100%)" offset="0.59375"/><stop stop-opacity="1" stop-color="rgb(76.71814%, 84.75647%, 100%)" offset="0.609375"/><stop stop-opacity="1" stop-color="rgb(76.489258%, 84.606934%, 100%)" offset="0.625"/><stop stop-opacity="1" stop-color="rgb(76.261902%, 84.457397%, 100%)" offset="0.640625"/><stop stop-opacity="1" stop-color="rgb(76.03302%, 84.307861%, 100%)" offset="0.65625"/><stop stop-opacity="1" stop-color="rgb(75.804138%, 84.158325%, 100%)" offset="0.671875"/><stop stop-opacity="1" stop-color="rgb(75.576782%, 84.008789%, 100%)" offset="0.6875"/><stop stop-opacity="1" stop-color="rgb(75.3479%, 83.859253%, 100%)" offset="0.703125"/><stop stop-opacity="1" stop-color="rgb(75.120544%, 83.709717%, 100%)" offset="0.71875"/><stop stop-opacity="1" stop-color="rgb(74.891663%, 83.560181%, 100%)" offset="0.734375"/><stop stop-opacity="1" stop-color="rgb(74.662781%, 83.410645%, 100%)" offset="0.75"/><stop stop-opacity="1" stop-color="rgb(74.435425%, 83.261108%, 100%)" offset="0.765625"/><stop stop-opacity="1" stop-color="rgb(74.206543%, 83.111572%, 100%)" offset="0.78125"/><stop stop-opacity="1" stop-color="rgb(73.977661%, 82.962036%, 100%)" offset="0.796875"/><stop stop-opacity="1" stop-color="rgb(73.750305%, 82.8125%, 100%)" offset="0.8125"/><stop stop-opacity="1" stop-color="rgb(73.521423%, 82.662964%, 100%)" offset="0.828125"/><stop stop-opacity="1" stop-color="rgb(73.292542%, 82.513428%, 100%)" offset="0.84375"/><stop stop-opacity="1" stop-color="rgb(73.065186%, 82.363892%, 100%)" offset="0.859375"/><stop stop-opacity="1" stop-color="rgb(72.836304%, 82.214355%, 100%)" offset="0.864081"/><stop stop-opacity="1" stop-color="rgb(72.721863%, 82.139587%, 100%)" offset="0.875"/><stop stop-opacity="1" stop-color="rgb(72.607422%, 82.064819%, 100%)" offset="0.890625"/><stop stop-opacity="1" stop-color="rgb(72.380066%, 81.915283%, 100%)" offset="0.90625"/><stop stop-opacity="1" stop-color="rgb(72.151184%, 81.765747%, 100%)" offset="0.921875"/><stop stop-opacity="1" stop-color="rgb(71.922302%, 81.616211%, 100%)" offset="0.9375"/><stop stop-opacity="1" stop-color="rgb(71.694946%, 81.466675%, 100%)" offset="0.953125"/><stop stop-opacity="1" stop-color="rgb(71.466064%, 81.317139%, 100%)" offset="0.96875"/><stop stop-opacity="1" stop-color="rgb(71.237183%, 81.167603%, 100%)" offset="0.984375"/><stop stop-opacity="1" stop-color="rgb(71.009827%, 81.018066%, 100%)" offset="1"/></linearGradient><clipPath id="a883a3f30f"><path d="M 589 81.050781 L 762.695312 81.050781 L 762.695312 270 L 589 270 Z M 589 81.050781 " clip-rule="nonzero"/></clipPath><clipPath id="487fd76706"><path d="M 589 81.050781 L 762.695312 81.050781 L 762.695312 298 L 589 298 Z M 589 81.050781 " clip-rule="nonzero"/></clipPath><clipPath id="5144f65b7a"><path d="M 589 93 L 762.695312 93 L 762.695312 327 L 589 327 Z M 589 93 " clip-rule="nonzero"/></clipPath><clipPath id="0b9f0224a0"><path d="M 589 125 L 762.695312 125 L 762.695312 358 L 589 358 Z M 589 125 " clip-rule="nonzero"/></clipPath></defs><g clip-path="url(#91e80ba4bd)"><path fill="#1c85e8" d="M 217.613281 81.050781 L 634.988281 81.050781 C 641.300781 81.050781 647.351562 83.558594 651.816406 88.019531 C 656.273438 92.484375 658.78125 98.535156 658.78125 104.84375 L 658.78125 131.109375 L 193.820312 131.109375 L 193.820312 104.84375 C 193.820312 98.535156 196.328125 92.484375 200.789062 88.019531 C 205.253906 83.558594 211.304688 81.050781 217.613281 81.050781 Z M 217.613281 81.050781 " fill-opacity="1" fill-rule="nonzero"/></g><g clip-path="url(#88a188b46a)"><g clip-path="url(#844d190f1a)"><path fill="url(#0d9ec39c33)" d="M 193.820312 131.109375 L 193.820312 595.984375 L 658.78125 595.984375 L 658.78125 131.109375 Z M 193.820312 131.109375 " fill-rule="nonzero"/></g></g><path fill="#ffccb3" d="M 497.613281 430.019531 L 370.082031 430.019531 L 370.082031 491.945312 L 497.613281 491.945312 Z M 497.613281 430.019531 " fill-opacity="1" fill-rule="nonzero"/><path fill="#1f2d49" d="M 369.332031 468.195312 C 354.375 482.910156 348.488281 555.371094 349.277344 595.984375 L 527.320312 595.984375 C 527.320312 595.984375 527 507.421875 513.5 477.578125 C 501.089844 450.132812 480.457031 490.617188 369.332031 468.195312 Z M 369.332031 468.195312 " fill-opacity="1" fill-rule="nonzero"/><path fill="#1c85e8" d="M 398.761719 295.585938 C 398.761719 295.585938 421.667969 321.289062 414.046875 329.535156 C 398.960938 346.480469 358.828125 378.332031 345.679688 388.875 C 345.113281 389.308594 344.464844 389.625 343.773438 389.808594 C 343.082031 389.992188 342.359375 390.035156 341.652344 389.941406 C 340.945312 389.84375 340.261719 389.605469 339.644531 389.246094 C 339.03125 388.882812 338.488281 388.402344 338.058594 387.832031 L 306.964844 346.960938 C 305.75 345.386719 305.183594 343.40625 305.382812 341.429688 C 305.582031 339.449219 306.527344 337.621094 308.03125 336.320312 L 368.261719 284.394531 Z M 398.761719 295.585938 " fill-opacity="1" fill-rule="nonzero"/><path fill="#0e66af" d="M 362.597656 328.265625 C 362.597656 328.265625 334.050781 345.230469 331.480469 379.3125 L 337.164062 386.617188 C 337.164062 386.617188 340.734375 392.835938 345.679688 388.875 C 350.625 384.910156 373.511719 366.585938 373.511719 366.585938 Z M 362.597656 328.265625 " fill-opacity="1" fill-rule="nonzero"/><path fill="#1c85e8" d="M 389.289062 341.1875 C 407.09375 341.1875 421.53125 326.753906 421.53125 308.953125 C 421.53125 291.148438 407.09375 276.714844 389.289062 276.714844 C 371.480469 276.714844 357.046875 291.148438 357.046875 308.953125 C 357.046875 326.753906 371.480469 341.1875 389.289062 341.1875 Z M 389.289062 341.1875 " fill-opacity="1" fill-rule="nonzero"/><path fill="#ffccb3" d="M 305.332031 410 L 277.15625 372.699219 L 303.828125 351.996094 L 308.011719 348.628906 L 337.238281 386.84375 L 332.148438 390.503906 Z M 305.332031 410 " fill-opacity="1" fill-rule="nonzero"/><path fill="#ff967c" d="M 332.148438 390.503906 C 324.601562 380.402344 310.40625 360.65625 303.828125 351.996094 L 308.011719 348.628906 L 337.164062 386.617188 Z M 332.148438 390.503906 " fill-opacity="1" fill-rule="nonzero"/><path fill="#ffccb3" d="M 290.816406 415.171875 C 303.742188 415.171875 314.21875 404.695312 314.21875 391.773438 C 314.21875 378.847656 303.742188 368.371094 290.816406 368.371094 C 277.890625 368.371094 267.410156 378.847656 267.410156 391.773438 C 267.410156 404.695312 277.890625 415.171875 290.816406 415.171875 Z M 290.816406 415.171875 " fill-opacity="1" fill-rule="nonzero"/><path fill="#ffccb3" d="M 310.632812 379.183594 C 310.632812 379.183594 235.132812 268.328125 231.644531 258.914062 C 228.246094 249.71875 210.414062 271.84375 210.414062 271.84375 L 268.84375 399.304688 Z M 310.632812 379.183594 " fill-opacity="1" fill-rule="nonzero"/><path fill="#ffccb3" d="M 414.574219 224.589844 L 405.5 287.859375 C 405.5 287.859375 403.117188 296.253906 413.691406 297.527344 C 424.265625 298.796875 446.8125 295.957031 454.863281 287.378906 C 462.917969 278.796875 460.101562 274.546875 460.101562 274.546875 L 443.019531 205.875 Z M 414.574219 224.589844 " fill-opacity="1" fill-rule="nonzero"/><path fill="#ff967c" d="M 413.3125 232.777344 L 435.515625 224.9375 L 408.007812 265.695312 Z M 413.3125 232.777344 " fill-opacity="1" fill-rule="nonzero"/><path fill="#ffccb3" d="M 389.457031 146.441406 C 389.457031 146.441406 370.410156 191.1875 380.335938 221.855469 C 386.808594 241.855469 400.90625 245.453125 433.195312 230.464844 C 462.800781 216.722656 470.488281 206.324219 470.488281 206.324219 L 474.855469 156.445312 C 474.855469 156.445312 408.800781 106.558594 389.457031 146.441406 Z M 389.457031 146.441406 " fill-opacity="1" fill-rule="nonzero"/><path fill="#1c85e8" d="M 405.339844 269.667969 C 405.339844 269.667969 380.9375 276.445312 375.988281 280.40625 C 371.035156 284.367188 363.191406 304.625 363.191406 327.8125 C 363.191406 360.691406 367.714844 378.339844 367.714844 398.761719 C 367.714844 419.179688 356.960938 497.050781 356.960938 497.050781 L 515.246094 497.050781 C 511.195312 419.050781 515.246094 279.71875 515.246094 279.71875 L 454.921875 265.824219 C 441.320312 268.167969 405.339844 269.667969 405.339844 269.667969 Z M 405.339844 269.667969 " fill-opacity="1" fill-rule="nonzero"/><path fill="#0e66af" d="M 486.007812 308.953125 C 486.007812 308.953125 464.972656 322.855469 471.167969 336.886719 C 478.136719 352.664062 471.167969 370.035156 471.167969 394.261719 C 468.769531 401.53125 467.382812 408.453125 467.382812 414.335938 C 467.382812 420.21875 464.140625 414.59375 464.140625 431.679688 C 464.140625 443.839844 502.367188 454.386719 501.375 444.558594 C 494.726562 378.816406 522.355469 337.191406 486.007812 308.953125 Z M 486.007812 308.953125 " fill-opacity="1" fill-rule="nonzero"/><path fill="#ffccb3" d="M 558.859375 434.722656 L 512.265625 438.542969 L 504.308594 404.777344 L 494.726562 378.816406 L 543.765625 372.949219 L 549.894531 402.003906 Z M 558.859375 434.722656 " fill-opacity="1" fill-rule="nonzero"/><path fill="#ff967c" d="M 545.421875 380.796875 L 547.140625 388.945312 L 498.847656 389.984375 L 495.671875 381.375 Z M 545.421875 380.796875 " fill-opacity="1" fill-rule="nonzero"/><path fill="#1c85e8" d="M 507.230469 343.175781 C 525.035156 343.175781 539.46875 328.746094 539.46875 310.941406 C 539.46875 293.140625 525.035156 278.707031 507.230469 278.707031 C 489.421875 278.707031 474.988281 293.140625 474.988281 310.941406 C 474.988281 328.746094 489.421875 343.175781 507.230469 343.175781 Z M 507.230469 343.175781 " fill-opacity="1" fill-rule="nonzero"/><path fill="#1c85e8" d="M 501.011719 295.789062 C 501.011719 295.789062 534.988281 290.210938 537.875 301.058594 C 544.109375 322.875 551.769531 357.894531 553.632812 374.644531 C 553.699219 375.355469 553.621094 376.070312 553.402344 376.753906 C 553.1875 377.433594 552.839844 378.066406 552.378906 378.613281 C 551.917969 379.160156 551.351562 379.609375 550.71875 379.9375 C 550.082031 380.261719 549.386719 380.460938 548.675781 380.519531 L 497.5 384.886719 C 495.519531 385.070312 493.542969 384.488281 491.976562 383.261719 C 490.414062 382.035156 489.378906 380.253906 489.082031 378.289062 L 475.226562 315.546875 Z M 501.011719 295.789062 " fill-opacity="1" fill-rule="nonzero"/><path fill="#080b09" d="M 401.332031 142.1875 C 401.332031 142.1875 402.535156 163.921875 420.953125 174.457031 C 420.953125 174.457031 426.335938 191.125 446.4375 195.046875 C 446.4375 195.046875 445.25 179.722656 454.828125 179.886719 C 471.09375 180.160156 463.09375 204.832031 452.097656 208.878906 C 444.621094 211.628906 440.121094 221.390625 451.214844 243.640625 C 476.691406 234.554688 494.605469 197.867188 487.582031 157.164062 C 481.957031 124.570312 441.539062 113.925781 433.234375 114.988281 C 433.234375 114.988281 398.746094 103.074219 380.589844 135.742188 C 365.066406 163.671875 379.5625 180.335938 379.5625 180.335938 L 387.835938 155.480469 C 387.835938 155.480469 391.292969 157.910156 401.332031 142.1875 Z M 401.332031 142.1875 " fill-opacity="1" fill-rule="nonzero"/><g clip-path="url(#ab3b014b5b)"><g clip-path="url(#d8a8dadf20)"><path fill="url(#5cfe7bbdc2)" d="M 414.332031 404.777344 L 414.332031 515.265625 L 580.316406 515.265625 L 580.316406 404.777344 Z M 414.332031 404.777344 " fill-rule="nonzero"/></g></g><path fill="#ffffff" d="M 497.613281 466.988281 C 502.398438 466.988281 506.277344 463.109375 506.277344 458.328125 C 506.277344 453.542969 502.398438 449.667969 497.613281 449.667969 C 492.832031 449.667969 488.953125 453.542969 488.953125 458.328125 C 488.953125 463.109375 492.832031 466.988281 497.613281 466.988281 Z M 497.613281 466.988281 " fill-opacity="1" fill-rule="nonzero"/><path fill="#ffccb3" d="M 213.621094 279.125 L 206.183594 264.859375 C 206.183594 264.859375 179.886719 249.820312 176.839844 244.382812 C 173.792969 238.945312 172.59375 223.417969 177.988281 219.445312 C 177.988281 219.445312 157.007812 203.6875 160.582031 200.496094 C 164.140625 197.074219 205.363281 227.6875 205.363281 227.6875 C 205.363281 227.6875 200.34375 205.132812 207.96875 204.078125 C 210.035156 212.820312 213.574219 221.144531 218.4375 228.699219 C 226.464844 241.113281 227.453125 252.230469 227.453125 252.230469 L 236.917969 270.386719 Z M 213.621094 279.125 " fill-opacity="1" fill-rule="nonzero"/><path stroke-linecap="round" transform="matrix(0.152756, 0, 0, 0.152726, 80.999999, 81.05272)" fill="none" stroke-linejoin="round" d="M 644.205525 908.757659 L 727.365113 961.164584 " stroke="#ff967c" stroke-width="13.016" stroke-opacity="1" stroke-miterlimit="4"/><path stroke-linecap="round" transform="matrix(0.152756, 0, 0, 0.152726, 80.999999, 81.05272)" fill="none" stroke-linejoin="round" d="M 631.803188 968.735326 L 702.381436 1012.599589 " stroke="#ff967c" stroke-width="13.016" stroke-opacity="1" stroke-miterlimit="4"/><path stroke-linecap="round" transform="matrix(0.152756, 0, 0, 0.152726, 80.999999, 81.05272)" fill="none" stroke-linejoin="round" d="M 645.509688 1033.57259 L 692.587426 1063.318443 " stroke="#ff967c" stroke-width="13.016" stroke-opacity="1" stroke-miterlimit="4"/><path fill="#ffffff" d="M 229.109375 112.136719 C 232.453125 112.136719 235.164062 109.425781 235.164062 106.082031 C 235.164062 102.738281 232.453125 100.027344 229.109375 100.027344 C 225.761719 100.027344 223.050781 102.738281 223.050781 106.082031 C 223.050781 109.425781 225.761719 112.136719 229.109375 112.136719 Z M 229.109375 112.136719 " fill-opacity="1" fill-rule="nonzero"/><path fill="#ffffff" d="M 253.566406 112.136719 C 256.910156 112.136719 259.621094 109.425781 259.621094 106.082031 C 259.621094 102.738281 256.910156 100.027344 253.566406 100.027344 C 250.222656 100.027344 247.511719 102.738281 247.511719 106.082031 C 247.511719 109.425781 250.222656 112.136719 253.566406 112.136719 Z M 253.566406 112.136719 " fill-opacity="1" fill-rule="nonzero"/><path fill="#ffffff" d="M 276.546875 112.136719 C 279.890625 112.136719 282.601562 109.425781 282.601562 106.082031 C 282.601562 102.738281 279.890625 100.027344 276.546875 100.027344 C 273.203125 100.027344 270.492188 102.738281 270.492188 106.082031 C 270.492188 109.425781 273.203125 112.136719 276.546875 112.136719 Z M 276.546875 112.136719 " fill-opacity="1" fill-rule="nonzero"/><path fill="#febb94" d="M 94.644531 105.339844 C 118.988281 126.097656 183.195312 173.433594 264.742188 175.695312 C 266.410156 175.746094 267.992188 176.441406 269.152344 177.640625 C 270.3125 178.839844 270.960938 180.441406 270.960938 182.109375 L 270.960938 311.292969 C 270.960938 312.941406 270.328125 314.523438 269.191406 315.71875 C 268.054688 316.914062 266.503906 317.625 264.855469 317.707031 C 240.339844 318.925781 147.367188 318.785156 85.761719 252.84375 C 84.664062 251.660156 84.054688 250.101562 84.0625 248.484375 L 84.0625 110.230469 C 84.058594 109.007812 84.410156 107.804688 85.070312 106.773438 C 85.730469 105.738281 86.671875 104.917969 87.785156 104.402344 C 88.898438 103.886719 90.136719 103.703125 91.351562 103.867188 C 92.566406 104.035156 93.710938 104.542969 94.644531 105.339844 Z M 94.644531 105.339844 " fill-opacity="0.7" fill-rule="nonzero"/><g clip-path="url(#27c87bb24d)"><path stroke-linecap="round" transform="matrix(0.152756, 0, 0, 0.152726, 80.999999, 81.05272)" fill="none" stroke-linejoin="miter" d="M 149.774207 408.270246 C 149.774207 408.270246 275.536463 530.501917 447.455871 606.413949 " stroke="#ffffff" stroke-width="33.686001" stroke-opacity="1" stroke-miterlimit="10"/></g><g clip-path="url(#f3a1b29aba)"><path stroke-linecap="round" transform="matrix(0.152756, 0, 0, 0.152726, 80.999999, 81.05272)" fill="none" stroke-linejoin="miter" d="M 149.774207 556.436823 C 149.774207 556.436823 324.813378 719.719307 552.504945 780.336395 " stroke="#ffffff" stroke-width="33.686001" stroke-opacity="0.4" stroke-miterlimit="10"/></g><path fill="#ffffff" d="M 99.894531 248.777344 L 99.894531 194.820312 L 118.816406 208.355469 L 118.816406 263.617188 Z M 99.894531 248.777344 " fill-opacity="1" fill-rule="nonzero"/><path fill="#ffffff" d="M 131.832031 270.578125 L 131.832031 232.136719 L 150.753906 243.449219 L 150.753906 281.453125 Z M 131.832031 270.578125 " fill-opacity="1" fill-rule="nonzero"/><path fill="#ffffff" d="M 212.742188 300.675781 L 212.742188 262.230469 L 193.820312 259.640625 L 193.820312 297.648438 Z M 212.742188 300.675781 " fill-opacity="1" fill-rule="nonzero"/><path fill="#ffffff" d="M 243.820312 302.324219 L 243.820312 235.011719 L 224.898438 235.011719 L 224.898438 301.882812 Z M 243.820312 302.324219 " fill-opacity="1" fill-rule="nonzero"/><path fill="#ffffff" d="M 162.828125 287.425781 L 162.828125 269.847656 L 181.75 275.167969 L 181.75 294.277344 Z M 162.828125 287.425781 " fill-opacity="1" fill-rule="nonzero"/><path fill="#96bafd" d="M 142.03125 373.023438 C 166.378906 390.894531 230.585938 437.539062 312.128906 430.128906 C 312.921875 430.039062 313.726562 430.117188 314.488281 430.359375 C 315.25 430.605469 315.949219 431.011719 316.539062 431.550781 C 317.128906 432.085938 317.59375 432.746094 317.90625 433.480469 C 318.21875 434.21875 318.367188 435.011719 318.347656 435.808594 L 318.347656 564.992188 C 318.308594 566.703125 317.679688 568.34375 316.566406 569.644531 C 315.453125 570.945312 313.929688 571.824219 312.246094 572.128906 C 287.726562 576.257812 185.757812 574.21875 133.152344 521.578125 C 132.605469 521.03125 132.175781 520.382812 131.882812 519.667969 C 131.59375 518.957031 131.445312 518.191406 131.449219 517.421875 L 131.449219 379.167969 C 131.449219 373.695312 137.863281 369.960938 142.03125 373.023438 Z M 142.03125 373.023438 " fill-opacity="0.7" fill-rule="nonzero"/><path fill="#ffccb3" d="M 533.902344 511.554688 C 533.902344 511.554688 540.425781 512.097656 539.445312 515.386719 C 538.460938 518.679688 532.636719 517.160156 527.320312 520.449219 C 522 523.742188 500.980469 526.089844 490.480469 524.339844 C 479.980469 522.589844 477.0625 511.554688 477.0625 511.554688 C 477.0625 511.554688 475.304688 501.085938 493.855469 500.011719 C 512.402344 498.9375 521.035156 504.886719 524.261719 511.335938 Z M 533.902344 511.554688 " fill-opacity="1" fill-rule="nonzero"/><path stroke-linecap="round" transform="matrix(0.152756, 0, 0, 0.152726, 80.999999, 81.05272)" fill="none" stroke-linejoin="miter" d="M 2644.38286 2753.84461 L 2670.619557 2824.385508 " stroke="#e56441" stroke-width="10.147" stroke-opacity="1" stroke-miterlimit="4"/><path stroke-linecap="round" transform="matrix(0.152756, 0, 0, 0.152726, 80.999999, 81.05272)" fill="none" stroke-linejoin="miter" d="M 2712.301639 2742.360613 L 2738.538335 2812.901511 " stroke="#e56441" stroke-width="10.147" stroke-opacity="1" stroke-miterlimit="4"/><path stroke-linecap="round" transform="matrix(0.152756, 0, 0, 0.152726, 80.999999, 81.05272)" fill="none" stroke-linejoin="miter" d="M 2784.030619 2748.345591 L 2810.267316 2818.886489 " stroke="#e56441" stroke-width="10.147" stroke-opacity="1" stroke-miterlimit="4"/><g clip-path="url(#3c7c85e015)"><path fill="#1c85e8" d="M 731.292969 383.53125 C 697.335938 412.488281 607.773438 478.515625 494.027344 481.667969 C 491.699219 481.738281 489.492188 482.714844 487.875 484.382812 C 486.253906 486.054688 485.351562 488.289062 485.351562 490.617188 L 485.351562 670.816406 C 485.351562 673.113281 486.234375 675.324219 487.820312 676.988281 C 489.402344 678.65625 491.570312 679.648438 493.863281 679.761719 C 528.066406 681.464844 657.75 681.265625 743.6875 589.28125 C 745.214844 587.628906 746.066406 585.457031 746.058594 583.207031 L 746.058594 390.355469 C 746.058594 388.644531 745.566406 386.972656 744.648438 385.527344 C 743.726562 384.089844 742.410156 382.941406 740.863281 382.222656 C 739.308594 381.503906 737.578125 381.246094 735.890625 381.480469 C 734.195312 381.710938 732.601562 382.421875 731.292969 383.53125 Z M 731.292969 383.53125 " fill-opacity="0.7" fill-rule="nonzero"/></g><g clip-path="url(#144c010a67)"><path stroke-linecap="round" transform="matrix(0.152756, 0, 0, 0.152726, 80.999999, 81.05272)" fill="none" stroke-linejoin="miter" d="M 4172.759947 2328.220579 C 4172.759947 2328.220579 3997.337199 2498.690152 3757.550157 2604.578229 " stroke="#ffffff" stroke-width="46.988998" stroke-opacity="1" stroke-miterlimit="10"/></g><g clip-path="url(#0323aff91d)"><path stroke-linecap="round" transform="matrix(0.152756, 0, 0, 0.152726, 80.999999, 81.05272)" fill="none" stroke-linejoin="miter" d="M 4172.759947 2534.881367 C 4172.759947 2534.881367 3928.57455 2762.617463 3610.972432 2847.20004 " stroke="#ffffff" stroke-width="46.988998" stroke-opacity="0.4" stroke-miterlimit="10"/></g><path fill="#ffffff" d="M 701 326.523438 L 597.332031 326.523438 C 595.296875 326.523438 593.28125 326.925781 591.402344 327.703125 C 589.523438 328.480469 587.816406 329.621094 586.378906 331.058594 C 584.941406 332.496094 583.800781 334.203125 583.023438 336.082031 C 582.242188 337.960938 581.84375 339.976562 581.84375 342.007812 L 581.84375 374.074219 C 581.84375 376.109375 582.242188 378.121094 583.023438 380 C 583.800781 381.878906 584.941406 383.585938 586.378906 385.023438 C 587.816406 386.460938 589.523438 387.601562 591.402344 388.382812 C 593.28125 389.160156 595.296875 389.5625 597.332031 389.5625 L 634.132812 389.5625 L 644.992188 400.417969 C 646.007812 401.433594 647.386719 402.003906 648.824219 402.003906 C 650.265625 402.003906 651.644531 401.433594 652.660156 400.417969 L 663.515625 389.5625 L 701 389.5625 C 705.101562 389.5625 709.046875 387.929688 711.949219 385.023438 C 714.859375 382.121094 716.484375 378.179688 716.484375 374.074219 L 716.484375 342.007812 C 716.484375 337.902344 714.859375 333.964844 711.949219 331.058594 C 709.046875 328.15625 705.101562 326.523438 701 326.523438 Z M 701 326.523438 " fill-opacity="1" fill-rule="nonzero"/><path fill="#f4608a" d="M 625.820312 347.871094 C 624.433594 346.59375 622.621094 345.882812 620.738281 345.882812 C 618.855469 345.882812 617.039062 346.59375 615.65625 347.871094 L 613.742188 349.636719 L 611.828125 347.871094 C 610.445312 346.59375 608.628906 345.882812 606.746094 345.882812 C 604.863281 345.882812 603.046875 346.59375 601.664062 347.871094 C 600.933594 348.53125 600.351562 349.339844 599.949219 350.238281 C 599.550781 351.140625 599.34375 352.113281 599.34375 353.097656 C 599.34375 354.085938 599.550781 355.058594 599.949219 355.957031 C 600.351562 356.859375 600.933594 357.664062 601.664062 358.328125 L 613.742188 369.519531 L 625.820312 358.472656 C 626.582031 357.816406 627.199219 357.003906 627.613281 356.089844 C 628.035156 355.171875 628.25 354.179688 628.25 353.171875 C 628.25 352.167969 628.035156 351.171875 627.613281 350.257812 C 627.199219 349.34375 626.582031 348.527344 625.820312 347.871094 Z M 625.820312 347.871094 " fill-opacity="1" fill-rule="nonzero"/><path fill="#1c85e8" d="M 639.304688 354.410156 C 639.410156 353.054688 639.9375 351.992188 640.875 351.226562 C 641.820312 350.460938 643.042969 350.078125 644.546875 350.078125 C 645.550781 350.078125 646.414062 350.261719 647.136719 350.628906 C 647.875 350.984375 648.429688 351.46875 648.796875 352.089844 C 649.179688 352.707031 649.371094 353.410156 649.371094 354.191406 C 649.371094 355.105469 649.109375 355.890625 648.574219 356.554688 C 648.054688 357.21875 647.378906 357.648438 646.539062 357.839844 L 646.539062 357.949219 C 647.496094 358.183594 648.257812 358.648438 648.820312 359.34375 C 649.378906 360.035156 649.664062 360.941406 649.664062 362.0625 C 649.664062 362.902344 649.46875 363.664062 649.082031 364.339844 C 648.699219 365.003906 648.125 365.527344 647.359375 365.910156 C 646.589844 366.292969 645.667969 366.484375 644.59375 366.484375 C 643.03125 366.484375 641.75 366.082031 640.746094 365.269531 C 639.742188 364.445312 639.179688 363.28125 639.0625 361.777344 L 641.007812 361.777344 C 641.113281 362.660156 641.472656 363.382812 642.09375 363.941406 C 642.710938 364.503906 643.542969 364.78125 644.574219 364.78125 C 645.605469 364.78125 646.386719 364.519531 646.914062 363.988281 C 647.460938 363.441406 647.738281 362.742188 647.738281 361.886719 C 647.738281 360.78125 647.363281 359.984375 646.632812 359.5 C 645.890625 359.011719 644.773438 358.769531 643.289062 358.769531 L 642.78125 358.769531 L 642.78125 357.085938 L 643.316406 357.085938 C 644.664062 357.074219 645.695312 356.851562 646.386719 356.425781 C 647.082031 355.980469 647.425781 355.304688 647.425781 354.386719 C 647.425781 353.609375 647.171875 352.980469 646.652344 352.507812 C 646.152344 352.039062 645.425781 351.800781 644.484375 351.800781 C 643.570312 351.800781 642.832031 352.039062 642.269531 352.507812 C 641.707031 352.980469 641.375 353.617188 641.277344 354.410156 Z M 654.785156 363.589844 L 652.316406 369.539062 L 650.964844 369.539062 L 652.578125 363.589844 Z M 666.957031 352.132812 L 659.195312 352.132812 L 659.195312 357.175781 C 659.535156 356.703125 660.035156 356.320312 660.699219 356.027344 C 661.363281 355.714844 662.074219 355.5625 662.84375 355.5625 C 664.070312 355.5625 665.066406 355.820312 665.828125 356.335938 C 666.597656 356.835938 667.144531 357.492188 667.46875 358.304688 C 667.808594 359.101562 667.972656 359.949219 667.972656 360.847656 C 667.972656 361.910156 667.78125 362.859375 667.378906 363.699219 C 666.984375 364.539062 666.367188 365.203125 665.542969 365.691406 C 664.734375 366.175781 663.722656 366.421875 662.511719 366.421875 C 660.96875 366.421875 659.714844 366.019531 658.753906 365.226562 C 657.796875 364.429688 657.210938 363.367188 657.007812 362.042969 L 658.972656 362.042969 C 659.167969 362.882812 659.570312 363.539062 660.191406 364.011719 C 660.808594 364.480469 661.59375 364.71875 662.53125 364.71875 C 663.703125 364.71875 664.574219 364.371094 665.171875 363.679688 C 665.757812 362.96875 666.050781 362.042969 666.050781 360.890625 C 666.050781 359.742188 665.757812 358.855469 665.171875 358.238281 C 664.574219 357.601562 663.710938 357.285156 662.558594 357.285156 C 661.777344 357.285156 661.09375 357.476562 660.5 357.859375 C 659.921875 358.230469 659.507812 358.738281 659.238281 359.386719 L 657.339844 359.386719 L 657.339844 350.363281 L 666.957031 350.363281 Z M 670.410156 364.761719 C 672.28125 363.257812 673.75 362.027344 674.808594 361.070312 C 675.875 360.09375 676.765625 359.085938 677.484375 358.039062 C 678.226562 356.976562 678.59375 355.9375 678.59375 354.917969 C 678.59375 353.960938 678.359375 353.210938 677.886719 352.664062 C 677.429688 352.101562 676.683594 351.824219 675.652344 351.824219 C 674.648438 351.824219 673.867188 352.140625 673.304688 352.777344 C 672.757812 353.394531 672.46875 354.226562 672.417969 355.273438 L 670.472656 355.273438 C 670.535156 353.621094 671.035156 352.347656 671.976562 351.449219 C 672.925781 350.546875 674.140625 350.097656 675.632812 350.097656 C 677.148438 350.097656 678.351562 350.519531 679.230469 351.359375 C 680.132812 352.199219 680.582031 353.355469 680.582031 354.832031 C 680.582031 356.054688 680.214844 357.25 679.480469 358.414062 C 678.753906 359.5625 677.929688 360.582031 677 361.46875 C 676.074219 362.335938 674.882812 363.351562 673.4375 364.519531 L 681.046875 364.519531 L 681.046875 366.199219 L 670.410156 366.199219 Z M 693.214844 351.957031 L 687.070312 366.375 L 685.03125 366.375 L 691.269531 352.15625 L 682.734375 352.15625 L 682.734375 350.429688 L 693.214844 350.429688 Z M 693.214844 351.957031 " fill-opacity="1" fill-rule="nonzero"/><g clip-path="url(#abdcba9bd5)"><path fill="#1c85e8" d="M 92.753906 621.667969 L 170.914062 621.667969 C 172.445312 621.667969 173.964844 621.367188 175.382812 620.777344 C 176.796875 620.195312 178.085938 619.332031 179.167969 618.25 C 180.253906 617.164062 181.113281 615.878906 181.699219 614.460938 C 182.289062 613.046875 182.589844 611.527344 182.589844 609.992188 L 182.589844 585.820312 C 182.589844 584.285156 182.289062 582.765625 181.699219 581.351562 C 181.113281 579.933594 180.253906 578.648438 179.167969 577.5625 C 178.085938 576.476562 176.796875 575.621094 175.382812 575.03125 C 173.964844 574.445312 172.445312 574.144531 170.914062 574.144531 L 143.167969 574.144531 L 134.980469 565.957031 C 134.210938 565.191406 133.171875 564.761719 132.089844 564.761719 C 131.003906 564.761719 129.964844 565.191406 129.199219 565.957031 L 121.011719 574.144531 L 92.753906 574.144531 C 89.65625 574.144531 86.6875 575.375 84.496094 577.5625 C 82.304688 579.753906 81.074219 582.722656 81.074219 585.820312 L 81.074219 609.992188 C 81.074219 613.089844 82.304688 616.058594 84.496094 618.25 C 86.6875 620.4375 89.65625 621.667969 92.753906 621.667969 Z M 92.753906 621.667969 " fill-opacity="0.7" fill-rule="nonzero"/></g><path fill="#ffffff" d="M 129.574219 603.847656 C 130.984375 602.714844 132.089844 601.785156 132.890625 601.0625 C 133.691406 600.332031 134.367188 599.570312 134.910156 598.78125 C 135.464844 597.980469 135.742188 597.195312 135.742188 596.429688 C 135.742188 595.707031 135.566406 595.140625 135.210938 594.726562 C 134.867188 594.304688 134.304688 594.09375 133.527344 594.09375 C 132.769531 594.09375 132.179688 594.332031 131.757812 594.8125 C 131.347656 595.277344 131.125 595.90625 131.089844 596.695312 L 129.625 596.695312 C 129.667969 595.449219 130.046875 594.488281 130.757812 593.8125 C 131.46875 593.132812 132.386719 592.792969 133.507812 592.792969 C 134.65625 592.792969 135.5625 593.109375 136.226562 593.742188 C 136.90625 594.378906 137.246094 595.25 137.246094 596.363281 C 137.246094 597.285156 136.96875 598.183594 136.410156 599.0625 C 135.867188 599.929688 135.242188 600.695312 134.542969 601.363281 C 133.84375 602.019531 132.949219 602.785156 131.859375 603.664062 L 137.59375 603.664062 L 137.59375 604.933594 L 129.574219 604.933594 Z M 138.984375 602.382812 L 138.984375 601.230469 L 144.835938 593.125 L 146.652344 593.125 L 146.652344 601.0625 L 148.320312 601.0625 L 148.320312 602.382812 L 146.652344 602.382812 L 146.652344 605.066406 L 145.152344 605.066406 L 145.152344 602.382812 Z M 145.21875 594.710938 L 140.734375 601.0625 L 145.21875 601.0625 Z M 149.804688 596.046875 C 149.882812 595.023438 150.277344 594.222656 150.988281 593.644531 C 151.699219 593.066406 152.625 592.777344 153.757812 592.777344 C 154.511719 592.777344 155.164062 592.914062 155.707031 593.195312 C 156.265625 593.460938 156.679688 593.828125 156.960938 594.296875 C 157.246094 594.761719 157.390625 595.289062 157.390625 595.878906 C 157.390625 596.566406 157.191406 597.160156 156.792969 597.664062 C 156.402344 598.160156 155.890625 598.484375 155.257812 598.628906 L 155.257812 598.714844 C 155.980469 598.890625 156.554688 599.238281 156.976562 599.765625 C 157.398438 600.285156 157.609375 600.96875 157.609375 601.8125 C 157.609375 602.449219 157.464844 603.019531 157.175781 603.53125 C 156.886719 604.03125 156.453125 604.425781 155.875 604.714844 C 155.296875 605.003906 154.601562 605.148438 153.789062 605.148438 C 152.613281 605.148438 151.644531 604.84375 150.886719 604.230469 C 150.132812 603.609375 149.710938 602.730469 149.621094 601.597656 L 151.089844 601.597656 C 151.167969 602.265625 151.4375 602.808594 151.90625 603.230469 C 152.371094 603.652344 152.996094 603.863281 153.773438 603.863281 C 154.550781 603.863281 155.140625 603.664062 155.542969 603.265625 C 155.953125 602.855469 156.160156 602.324219 156.160156 601.679688 C 156.160156 600.847656 155.878906 600.246094 155.324219 599.878906 C 154.769531 599.511719 153.929688 599.328125 152.808594 599.328125 L 152.421875 599.328125 L 152.421875 598.0625 L 152.824219 598.0625 C 153.847656 598.050781 154.617188 597.886719 155.140625 597.5625 C 155.664062 597.230469 155.925781 596.71875 155.925781 596.027344 C 155.925781 595.4375 155.730469 594.96875 155.339844 594.609375 C 154.964844 594.253906 154.417969 594.078125 153.707031 594.078125 C 153.019531 594.078125 152.460938 594.253906 152.039062 594.609375 C 151.617188 594.96875 151.367188 595.445312 151.289062 596.046875 Z M 166.378906 595.878906 C 166.136719 594.644531 165.375 594.027344 164.09375 594.027344 C 163.105469 594.027344 162.367188 594.410156 161.875 595.175781 C 161.386719 595.933594 161.148438 597.183594 161.160156 598.929688 C 161.414062 598.351562 161.835938 597.902344 162.425781 597.578125 C 163.027344 597.246094 163.695312 597.078125 164.429688 597.078125 C 165.574219 597.078125 166.484375 597.433594 167.164062 598.144531 C 167.851562 598.855469 168.199219 599.839844 168.199219 601.097656 C 168.199219 601.851562 168.046875 602.53125 167.746094 603.132812 C 167.457031 603.730469 167.011719 604.210938 166.414062 604.5625 C 165.824219 604.921875 165.105469 605.097656 164.261719 605.097656 C 163.117188 605.097656 162.222656 604.84375 161.578125 604.332031 C 160.933594 603.820312 160.480469 603.113281 160.226562 602.214844 C 159.96875 601.3125 159.84375 600.203125 159.84375 598.878906 C 159.84375 594.800781 161.265625 592.761719 164.113281 592.761719 C 165.199219 592.761719 166.058594 593.054688 166.679688 593.644531 C 167.300781 594.230469 167.667969 594.976562 167.78125 595.878906 Z M 164.113281 598.363281 C 163.632812 598.363281 163.183594 598.460938 162.761719 598.664062 C 162.335938 598.851562 161.992188 599.144531 161.726562 599.546875 C 161.472656 599.933594 161.34375 600.414062 161.34375 600.980469 C 161.34375 601.824219 161.585938 602.515625 162.078125 603.046875 C 162.566406 603.570312 163.265625 603.832031 164.179688 603.832031 C 164.957031 603.832031 165.574219 603.59375 166.027344 603.113281 C 166.496094 602.625 166.730469 601.96875 166.730469 601.148438 C 166.730469 600.28125 166.507812 599.601562 166.0625 599.113281 C 165.617188 598.613281 164.96875 598.363281 164.113281 598.363281 Z M 164.113281 598.363281 " fill-opacity="1" fill-rule="nonzero"/><g clip-path="url(#774fed35c1)"><path stroke-linecap="round" transform="matrix(0.152756, 0, 0, 0.152726, 80.999999, 81.05272)" fill="none" stroke-linejoin="miter" d="M 2800.371018 3408.048772 C 2800.371018 3408.048772 2963.519289 3373.878127 3038.137886 3294.743414 C 3136.998578 3189.878411 3159.783078 3064.117137 3268.105346 3051.175261 C 3438.081295 3030.867257 3536.609553 3630.950847 3742.948642 3549.769988 C 3949.287732 3468.589129 3900.522254 3020.457488 4023.292606 2944.519879 C 4107.858645 2892.189684 4151.842191 3047.799119 4270.265332 3007.20869 " stroke="#ffffff" stroke-width="46.988998" stroke-opacity="1" stroke-miterlimit="10"/></g><g clip-path="url(#3373f2d91c)"><g clip-path="url(#56d4f4990f)"><path fill="url(#ed58c24d1c)" d="M 253.535156 524.992188 L 253.535156 645.9375 L 390.117188 645.9375 L 390.117188 524.992188 Z M 253.535156 524.992188 " fill-rule="nonzero"/></g></g><path fill="#ffffff" d="M 96.34375 607.503906 L 98.902344 607.503906 C 99.378906 607.503906 99.835938 607.316406 100.171875 606.980469 C 100.507812 606.644531 100.695312 606.1875 100.695312 605.710938 L 100.695312 593.9375 C 100.695312 593.460938 100.507812 593.003906 100.171875 592.667969 C 99.835938 592.332031 99.378906 592.144531 98.902344 592.144531 L 96.34375 592.144531 C 95.867188 592.144531 95.414062 592.332031 95.078125 592.667969 C 94.738281 593.003906 94.550781 593.460938 94.550781 593.9375 L 94.550781 605.710938 C 94.550781 606.1875 94.738281 606.644531 95.078125 606.980469 C 95.414062 607.316406 95.867188 607.503906 96.34375 607.503906 Z M 96.34375 607.503906 " fill-opacity="1" fill-rule="nonzero"/><path fill="#ffffff" d="M 107.640625 584.71875 C 106.617188 584.71875 106.105469 585.230469 106.105469 587.789062 C 106.105469 590.226562 103.75 592.183594 102.234375 593.191406 L 102.234375 605.878906 C 103.871094 606.636719 107.15625 607.761719 112.25 607.761719 L 113.890625 607.761719 C 114.855469 607.761719 115.789062 607.421875 116.53125 606.796875 C 117.269531 606.175781 117.761719 605.3125 117.925781 604.359375 L 119.074219 597.703125 C 119.175781 597.117188 119.148438 596.511719 118.992188 595.9375 C 118.835938 595.359375 118.554688 594.824219 118.171875 594.367188 C 117.785156 593.914062 117.304688 593.546875 116.765625 593.292969 C 116.222656 593.042969 115.632812 592.910156 115.039062 592.910156 L 110.203125 592.910156 C 110.746094 591.617188 111.007812 590.21875 110.972656 588.816406 C 110.972656 585.742188 108.667969 584.71875 107.640625 584.71875 Z M 107.640625 584.71875 " fill-opacity="1" fill-rule="nonzero"/><path fill="#ffffff" d="M 181.65625 503.726562 C 168.070312 498.9375 157.054688 484.042969 157.054688 470.460938 C 157.054688 456.875 168.070312 449.746094 181.65625 454.535156 L 181.65625 438.75 C 159.707031 431.011719 141.914062 442.53125 141.914062 464.472656 C 141.914062 486.417969 159.707031 510.480469 181.65625 518.214844 C 202.675781 525.625 219.875 515.371094 221.289062 495.210938 L 206.160156 489.875 C 205.089844 502.097656 194.53125 508.265625 181.65625 503.726562 Z M 181.65625 503.726562 " fill-opacity="1" fill-rule="nonzero"/><path fill="#1c85e8" d="M 186.703125 435.484375 L 186.703125 451.269531 C 200.289062 456.0625 211.300781 470.953125 211.300781 484.539062 C 211.300781 485.25 211.265625 485.9375 211.203125 486.609375 L 226.335938 491.945312 C 226.398438 491.054688 226.441406 490.152344 226.441406 489.226562 C 226.441406 467.285156 208.648438 443.222656 186.703125 435.484375 Z M 186.703125 435.484375 " fill-opacity="1" fill-rule="nonzero"/><path stroke-linecap="butt" transform="matrix(0.152756, 0, 0, 0.152726, 80.999999, 81.05272)" fill="none" stroke-linejoin="miter" d="M 658.934898 2767.528214 L 658.934898 2862.392677 " stroke="#ffffff" stroke-width="11.005" stroke-opacity="1" stroke-miterlimit="10"/><path stroke-linecap="butt" transform="matrix(0.152756, 0, 0, 0.152726, 80.999999, 81.05272)" fill="none" stroke-linejoin="miter" d="M 497.883518 2549.715928 L 398.767108 2514.752402 " stroke="#ffffff" stroke-width="11.005" stroke-opacity="1" stroke-miterlimit="10"/><path stroke-linecap="round" transform="matrix(0.152756, 0, 0, 0.152726, 80.999999, 81.05272)" fill="none" stroke-linejoin="miter" d="M 1076.139292 2564.473759 L 1260.077459 2599.437286 " stroke="#ffffff" stroke-width="46.988998" stroke-opacity="1" stroke-miterlimit="10"/><path stroke-linecap="round" transform="matrix(0.152756, 0, 0, 0.152726, 80.999999, 81.05272)" fill="none" stroke-linejoin="miter" d="M 1076.139292 2852.673482 L 1260.077459 2887.637009 " stroke="#ffffff" stroke-width="46.988998" stroke-opacity="0.4" stroke-miterlimit="10"/><path stroke-linecap="round" transform="matrix(0.152756, 0, 0, 0.152726, 80.999999, 81.05272)" fill="none" stroke-linejoin="miter" d="M 1076.139292 2711.514956 L 1340.373003 2761.722274 " stroke="#ffffff" stroke-width="46.988998" stroke-opacity="1" stroke-miterlimit="10"/><g clip-path="url(#3bfa36d4ae)"><g clip-path="url(#0be7433336)"><path fill="url(#dfc23f5632)" d="M 575.796875 92.066406 L 575.796875 319.816406 L 762.695312 319.816406 L 762.695312 92.066406 Z M 575.796875 92.066406 " fill-rule="nonzero"/></g></g><path fill="#ffffff" d="M 588.644531 195 L 588.644531 271.214844 C 588.644531 271.878906 588.792969 272.53125 589.082031 273.128906 C 589.367188 273.730469 589.785156 274.253906 590.304688 274.667969 C 590.820312 275.085938 591.425781 275.378906 592.070312 275.527344 C 592.71875 275.675781 593.390625 275.679688 594.039062 275.535156 C 607.921875 272.425781 645.480469 263.4375 669.199219 252.25 C 669.960938 251.890625 670.597656 251.324219 671.050781 250.617188 C 671.492188 249.90625 671.734375 249.085938 671.726562 248.246094 L 671.726562 174.027344 C 671.734375 173.285156 671.546875 172.554688 671.1875 171.902344 C 670.832031 171.25 670.320312 170.699219 669.691406 170.300781 C 669.066406 169.898438 668.355469 169.660156 667.613281 169.609375 C 666.875 169.558594 666.132812 169.691406 665.457031 170 C 652.238281 176.089844 620.472656 189.382812 592.847656 190.578125 C 591.714844 190.632812 590.644531 191.125 589.859375 191.945312 C 589.078125 192.769531 588.644531 193.863281 588.644531 195 Z M 588.644531 195 " fill-opacity="1" fill-rule="nonzero"/><path fill="#1c85e8" d="M 592.082031 258.945312 L 592.082031 266.960938 C 592.082031 267.570312 592.21875 268.167969 592.488281 268.710938 C 592.757812 269.253906 593.148438 269.730469 593.628906 270.097656 C 594.113281 270.464844 594.675781 270.71875 595.269531 270.835938 C 595.867188 270.949219 596.480469 270.929688 597.066406 270.765625 L 638.613281 259.410156 C 639.269531 259.230469 639.867188 258.886719 640.351562 258.410156 C 640.835938 257.933594 641.183594 257.339844 641.367188 256.6875 C 641.554688 256.035156 641.570312 255.34375 641.410156 254.683594 C 641.25 254.023438 640.925781 253.417969 640.46875 252.921875 L 618.191406 228.957031 C 617.789062 228.527344 617.304688 228.191406 616.757812 227.976562 C 616.210938 227.761719 615.621094 227.667969 615.035156 227.707031 C 614.449219 227.746094 613.878906 227.917969 613.371094 228.203125 C 612.855469 228.492188 612.414062 228.890625 612.074219 229.371094 L 592.804688 256.667969 C 592.332031 257.335938 592.082031 258.132812 592.082031 258.945312 Z M 592.082031 258.945312 " fill-opacity="1" fill-rule="nonzero"/><path fill="#1c85e8" d="M 634.441406 240.144531 L 646.90625 253.371094 C 647.308594 253.796875 647.828125 254.09375 648.394531 254.222656 C 648.964844 254.351562 649.558594 254.304688 650.105469 254.09375 C 653.789062 252.652344 662.0625 249.402344 666.25 247.601562 C 666.777344 247.375 667.21875 247 667.539062 246.519531 C 667.851562 246.042969 668.015625 245.480469 668.015625 244.910156 L 668.015625 232.515625 C 668.015625 231.882812 667.808594 231.269531 667.433594 230.761719 L 649.90625 207.285156 C 649.585938 206.863281 649.164062 206.535156 648.679688 206.332031 C 648.195312 206.128906 647.660156 206.0625 647.144531 206.136719 C 646.625 206.210938 646.132812 206.421875 645.714844 206.75 C 645.308594 207.078125 644.996094 207.511719 644.808594 208.003906 L 633.828125 237.097656 C 633.636719 237.613281 633.585938 238.167969 633.699219 238.707031 C 633.800781 239.246094 634.066406 239.746094 634.441406 240.144531 Z M 634.441406 240.144531 " fill-opacity="0.6" fill-rule="nonzero"/><path fill="#febb94" d="M 623.492188 219.492188 C 627.191406 219.492188 630.1875 216.496094 630.1875 212.796875 C 630.1875 209.101562 627.191406 206.105469 623.492188 206.105469 C 619.796875 206.105469 616.800781 209.101562 616.800781 212.796875 C 616.800781 216.496094 619.796875 219.492188 623.492188 219.492188 Z M 623.492188 219.492188 " fill-opacity="1" fill-rule="nonzero"/><g clip-path="url(#a883a3f30f)"><path stroke-linecap="round" transform="matrix(0.152756, 0, 0, 0.152726, 80.999999, 81.05272)" fill="none" stroke-linejoin="miter" d="M 3993.475853 566.130442 C 4105.940758 509.094111 4214.160739 444.077808 4317.291926 371.593072 " stroke="#ffffff" stroke-width="46.988998" stroke-opacity="1" stroke-miterlimit="10"/></g><g clip-path="url(#487fd76706)"><path stroke-linecap="round" transform="matrix(0.152756, 0, 0, 0.152726, 80.999999, 81.05272)" fill="none" stroke-linejoin="miter" d="M 3993.475853 755.398985 C 3993.475853 755.398985 4067.173865 719.489116 4168.284877 658.155877 " stroke="#ffffff" stroke-width="46.988998" stroke-opacity="1" stroke-miterlimit="10"/></g><g clip-path="url(#5144f65b7a)"><path stroke-linecap="round" transform="matrix(0.152756, 0, 0, 0.152726, 80.999999, 81.05272)" fill="none" stroke-linejoin="miter" d="M 3993.475853 940.472928 C 4105.940758 883.436597 4214.160739 818.445871 4317.291926 745.935558 " stroke="#ffffff" stroke-width="46.988998" stroke-opacity="1" stroke-miterlimit="10"/></g><g clip-path="url(#0b9f0224a0)"><path stroke-linecap="round" transform="matrix(0.152756, 0, 0, 0.152726, 80.999999, 81.05272)" fill="none" stroke-linejoin="miter" d="M 3993.475853 1148.23352 C 4105.940758 1091.197188 4214.160739 1026.206463 4317.291926 953.721726 " stroke="#ffffff" stroke-width="46.988998" stroke-opacity="1" stroke-miterlimit="10"/></g><path fill="#ffffff" d="M 598.195312 297.515625 C 601.570312 297.515625 604.308594 294.777344 604.308594 291.402344 C 604.308594 288.027344 601.570312 285.292969 598.195312 285.292969 C 594.816406 285.292969 592.082031 288.027344 592.082031 291.402344 C 592.082031 294.777344 594.816406 297.515625 598.195312 297.515625 Z M 598.195312 297.515625 " fill-opacity="1" fill-rule="nonzero"/><path fill="#ffffff" d="M 633.640625 287.628906 C 637.015625 287.628906 639.753906 284.890625 639.753906 281.515625 C 639.753906 278.140625 637.015625 275.402344 633.640625 275.402344 C 630.265625 275.402344 627.53125 278.140625 627.53125 281.515625 C 627.53125 284.890625 630.265625 287.628906 633.640625 287.628906 Z M 633.640625 287.628906 " fill-opacity="1" fill-rule="nonzero"/><path fill="#ffffff" d="M 665.613281 276.707031 C 668.992188 276.707031 671.726562 273.972656 671.726562 270.59375 C 671.726562 267.21875 668.992188 264.484375 665.613281 264.484375 C 662.242188 264.484375 659.5 267.21875 659.5 270.59375 C 659.5 273.972656 662.242188 276.707031 665.613281 276.707031 Z M 665.613281 276.707031 " fill-opacity="1" fill-rule="nonzero"/></svg>