<svg xmlns="http://www.w3.org/2000/svg" xmlns:xlink="http://www.w3.org/1999/xlink" width="1080" zoomAndPan="magnify" viewBox="0 0 810 809.999993" height="1080" preserveAspectRatio="xMidYMid meet" version="1.0"><defs><clipPath id="bb58034c5c"><path d="M 715 555 L 757.5 555 L 757.5 596 L 715 596 Z M 715 555 " clip-rule="nonzero"/></clipPath><clipPath id="84f6a0d063"><path d="M 218 152.171875 L 250 152.171875 L 250 206 L 218 206 Z M 218 152.171875 " clip-rule="nonzero"/></clipPath><clipPath id="f0c23ec7aa"><path d="M 188 152.171875 L 220 152.171875 L 220 183 L 188 183 Z M 188 152.171875 " clip-rule="nonzero"/></clipPath></defs><path fill="#263156" d="M 535.003906 274.695312 L 396.035156 274.695312 C 394.582031 274.695312 393.417969 273.53125 393.417969 272.082031 L 393.417969 212.859375 C 393.417969 211.410156 394.582031 210.246094 396.035156 210.246094 L 535.003906 210.246094 C 536.457031 210.246094 537.621094 211.410156 537.621094 212.859375 L 537.621094 272.082031 C 537.621094 273.515625 536.457031 274.695312 535.003906 274.695312 Z M 535.003906 274.695312 " fill-opacity="1" fill-rule="nonzero"/><path fill="#ffffff" d="M 389.890625 274.058594 C 388.808594 274.058594 387.914062 273.164062 387.914062 272.082031 L 387.914062 212.859375 C 387.914062 211.777344 388.808594 210.882812 389.890625 210.882812 L 528.863281 210.882812 C 529.945312 210.882812 530.839844 211.777344 530.839844 212.859375 L 530.839844 272.082031 C 530.839844 273.164062 529.945312 274.058594 528.863281 274.058594 Z M 389.890625 274.058594 " fill-opacity="1" fill-rule="nonzero"/><path fill="#263156" d="M 528.863281 211.503906 C 529.597656 211.503906 530.203125 212.113281 530.203125 212.84375 L 530.203125 272.066406 C 530.203125 272.796875 529.597656 273.40625 528.863281 273.40625 L 389.890625 273.40625 C 389.160156 273.40625 388.550781 272.796875 388.550781 272.066406 L 388.550781 212.84375 C 388.550781 212.113281 389.160156 211.503906 389.890625 211.503906 L 528.863281 211.503906 M 528.863281 210.230469 L 389.890625 210.230469 C 388.441406 210.230469 387.277344 211.394531 387.277344 212.84375 L 387.277344 272.066406 C 387.277344 273.515625 388.441406 274.679688 389.890625 274.679688 L 528.863281 274.679688 C 530.3125 274.679688 531.480469 273.515625 531.480469 272.066406 L 531.480469 212.84375 C 531.480469 211.410156 530.3125 210.230469 528.863281 210.230469 Z M 528.863281 210.230469 " fill-opacity="1" fill-rule="nonzero"/><path fill="#e8ebfc" d="M 521.140625 268.332031 L 397.597656 268.332031 C 397.023438 268.332031 396.5625 267.871094 396.5625 267.296875 L 396.5625 267.105469 C 396.5625 266.53125 397.023438 266.066406 397.597656 266.066406 L 521.140625 266.066406 C 521.714844 266.066406 522.175781 266.53125 522.175781 267.105469 L 522.175781 267.296875 C 522.175781 267.871094 521.714844 268.332031 521.140625 268.332031 Z M 521.140625 268.332031 " fill-opacity="1" fill-rule="nonzero"/><path fill="#d05b71" d="M 402.71875 254.378906 L 401.429688 253.660156 C 404.042969 248.953125 413.332031 241.601562 417.894531 241.507812 C 422.011719 241.378906 424.835938 244.042969 427.625 246.578125 C 430.371094 249.082031 432.972656 251.457031 436.671875 251.472656 C 436.6875 251.472656 436.6875 251.472656 436.703125 251.472656 C 441.1875 251.472656 444.460938 247.070312 447.921875 242.429688 C 451.6875 237.375 455.578125 232.144531 461.515625 232.015625 C 466.429688 231.984375 470.082031 235.414062 473.578125 238.777344 C 476.816406 241.90625 479.863281 244.855469 483.675781 244.695312 C 488.414062 244.503906 491.253906 239.65625 494.289062 234.519531 C 497.335938 229.351562 500.476562 223.992188 505.871094 223.816406 C 509.445312 223.691406 513.242188 225.890625 517.199219 230.308594 L 516.097656 231.296875 C 512.445312 227.214844 509.015625 225.175781 505.917969 225.285156 C 501.339844 225.445312 498.546875 230.214844 495.5625 235.253906 C 492.46875 240.5 489.277344 245.941406 483.742188 246.164062 C 479.320312 246.371094 475.875 243.035156 472.554688 239.832031 C 469.316406 236.707031 465.949219 233.484375 461.707031 233.484375 C 461.660156 233.484375 461.59375 233.484375 461.546875 233.484375 C 456.328125 233.59375 452.660156 238.523438 449.117188 243.292969 C 445.59375 248.027344 441.9375 252.941406 436.722656 252.941406 C 436.703125 252.941406 436.6875 252.941406 436.671875 252.941406 C 432.414062 252.925781 429.476562 250.246094 426.636719 247.664062 C 423.957031 245.207031 421.46875 242.957031 417.941406 242.972656 C 413.9375 243.070312 405.066406 250.117188 402.71875 254.378906 Z M 402.71875 254.378906 " fill-opacity="1" fill-rule="nonzero"/><path fill="#e9bf6b" d="M 518.875 231.296875 C 518.875 231.566406 518.824219 231.824219 518.71875 232.074219 C 518.617188 232.320312 518.46875 232.539062 518.28125 232.730469 C 518.089844 232.921875 517.871094 233.066406 517.625 233.167969 C 517.375 233.273438 517.117188 233.324219 516.847656 233.324219 C 516.578125 233.324219 516.320312 233.273438 516.074219 233.167969 C 515.824219 233.066406 515.605469 232.921875 515.414062 232.730469 C 515.226562 232.539062 515.078125 232.320312 514.976562 232.074219 C 514.871094 231.824219 514.820312 231.566406 514.820312 231.296875 C 514.820312 231.03125 514.871094 230.769531 514.976562 230.523438 C 515.078125 230.273438 515.226562 230.054688 515.414062 229.867188 C 515.605469 229.675781 515.824219 229.53125 516.074219 229.425781 C 516.320312 229.324219 516.578125 229.273438 516.847656 229.273438 C 517.117188 229.273438 517.375 229.324219 517.625 229.425781 C 517.871094 229.53125 518.089844 229.675781 518.28125 229.867188 C 518.46875 230.054688 518.617188 230.273438 518.71875 230.523438 C 518.824219 230.769531 518.875 231.03125 518.875 231.296875 Z M 518.875 231.296875 " fill-opacity="1" fill-rule="nonzero"/><path fill="#e9bf6b" d="M 404.09375 254.011719 C 404.09375 254.277344 404.042969 254.535156 403.9375 254.785156 C 403.835938 255.035156 403.6875 255.253906 403.5 255.441406 C 403.308594 255.632812 403.089844 255.777344 402.839844 255.882812 C 402.59375 255.984375 402.335938 256.035156 402.066406 256.035156 C 401.796875 256.035156 401.539062 255.984375 401.289062 255.882812 C 401.042969 255.777344 400.824219 255.632812 400.632812 255.441406 C 400.445312 255.253906 400.296875 255.035156 400.195312 254.785156 C 400.089844 254.535156 400.039062 254.277344 400.039062 254.011719 C 400.039062 253.742188 400.089844 253.484375 400.195312 253.234375 C 400.296875 252.988281 400.445312 252.769531 400.632812 252.578125 C 400.824219 252.386719 401.042969 252.242188 401.289062 252.140625 C 401.539062 252.035156 401.796875 251.984375 402.066406 251.984375 C 402.335938 251.984375 402.59375 252.035156 402.839844 252.140625 C 403.089844 252.242188 403.308594 252.386719 403.5 252.578125 C 403.6875 252.769531 403.835938 252.988281 403.9375 253.234375 C 404.042969 253.484375 404.09375 253.742188 404.09375 254.011719 Z M 404.09375 254.011719 " fill-opacity="1" fill-rule="nonzero"/><path fill="#e8ebfc" d="M 425.105469 218.777344 L 397.503906 218.777344 C 397.105469 218.777344 396.769531 218.441406 396.769531 218.042969 C 396.769531 217.644531 397.105469 217.3125 397.503906 217.3125 L 425.105469 217.3125 C 425.503906 217.3125 425.839844 217.644531 425.839844 218.042969 C 425.839844 218.441406 425.519531 218.777344 425.105469 218.777344 Z M 425.105469 218.777344 " fill-opacity="1" fill-rule="nonzero"/><path fill="#e8ebfc" d="M 425.105469 224.726562 L 397.503906 224.726562 C 397.105469 224.726562 396.769531 224.390625 396.769531 223.992188 C 396.769531 223.59375 397.105469 223.261719 397.503906 223.261719 L 425.105469 223.261719 C 425.503906 223.261719 425.839844 223.59375 425.839844 223.992188 C 425.839844 224.390625 425.519531 224.726562 425.105469 224.726562 Z M 425.105469 224.726562 " fill-opacity="1" fill-rule="nonzero"/><path fill="#e8ebfc" d="M 201.667969 329.707031 L 92.296875 329.707031 C 86.074219 329.707031 81.03125 324.648438 81.03125 318.445312 C 81.03125 312.242188 86.089844 307.183594 92.296875 307.183594 L 201.667969 307.183594 C 207.890625 307.183594 212.933594 312.242188 212.933594 318.445312 C 212.933594 324.648438 207.890625 329.707031 201.667969 329.707031 Z M 92.296875 308.90625 C 87.03125 308.90625 82.753906 313.183594 82.753906 318.445312 C 82.753906 323.707031 87.03125 327.984375 92.296875 327.984375 L 201.667969 327.984375 C 206.933594 327.984375 211.210938 323.707031 211.210938 318.445312 C 211.210938 313.183594 206.933594 308.90625 201.667969 308.90625 Z M 92.296875 308.90625 " fill-opacity="1" fill-rule="nonzero"/><path fill="#8b92f7" d="M 99.953125 318.445312 C 99.953125 318.882812 99.914062 319.3125 99.828125 319.738281 C 99.742188 320.167969 99.617188 320.582031 99.449219 320.984375 C 99.28125 321.386719 99.078125 321.769531 98.835938 322.132812 C 98.59375 322.492188 98.320312 322.828125 98.011719 323.136719 C 97.703125 323.445312 97.367188 323.71875 97.003906 323.960938 C 96.640625 324.203125 96.261719 324.410156 95.855469 324.574219 C 95.453125 324.742188 95.039062 324.867188 94.613281 324.953125 C 94.183594 325.039062 93.753906 325.082031 93.316406 325.082031 C 92.882812 325.082031 92.449219 325.039062 92.023438 324.953125 C 91.59375 324.867188 91.179688 324.742188 90.777344 324.574219 C 90.375 324.410156 89.992188 324.203125 89.628906 323.960938 C 89.265625 323.71875 88.933594 323.445312 88.625 323.136719 C 88.316406 322.828125 88.039062 322.492188 87.796875 322.132812 C 87.554688 321.769531 87.351562 321.386719 87.183594 320.984375 C 87.019531 320.582031 86.894531 320.167969 86.808594 319.738281 C 86.722656 319.3125 86.679688 318.882812 86.679688 318.445312 C 86.679688 318.007812 86.722656 317.578125 86.808594 317.152344 C 86.894531 316.722656 87.019531 316.308594 87.183594 315.90625 C 87.351562 315.503906 87.554688 315.121094 87.796875 314.757812 C 88.039062 314.398438 88.316406 314.0625 88.625 313.753906 C 88.933594 313.445312 89.265625 313.171875 89.628906 312.929688 C 89.992188 312.6875 90.375 312.480469 90.777344 312.316406 C 91.179688 312.148438 91.59375 312.023438 92.023438 311.9375 C 92.449219 311.851562 92.882812 311.808594 93.316406 311.808594 C 93.753906 311.808594 94.183594 311.851562 94.613281 311.9375 C 95.039062 312.023438 95.453125 312.148438 95.855469 312.316406 C 96.261719 312.480469 96.640625 312.6875 97.003906 312.929688 C 97.367188 313.171875 97.703125 313.445312 98.011719 313.753906 C 98.320312 314.0625 98.59375 314.398438 98.835938 314.757812 C 99.078125 315.121094 99.28125 315.503906 99.449219 315.90625 C 99.617188 316.308594 99.742188 316.722656 99.828125 317.152344 C 99.914062 317.578125 99.953125 318.007812 99.953125 318.445312 Z M 99.953125 318.445312 " fill-opacity="1" fill-rule="nonzero"/><path fill="#e8ebfc" d="M 662.007812 309.511719 L 552.636719 309.511719 C 546.429688 309.511719 541.371094 304.457031 541.371094 298.253906 C 541.371094 292.050781 546.429688 286.992188 552.636719 286.992188 L 662.007812 286.992188 C 668.230469 286.992188 673.273438 292.050781 673.273438 298.253906 C 673.273438 301.25 672.109375 304.074219 669.984375 306.210938 C 667.863281 308.347656 665.023438 309.511719 662.007812 309.511719 Z M 552.636719 288.714844 C 547.386719 288.714844 543.09375 292.988281 543.09375 298.253906 C 543.09375 303.515625 547.371094 307.792969 552.636719 307.792969 L 662.007812 307.792969 C 664.5625 307.792969 666.96875 306.800781 668.773438 304.984375 C 670.558594 303.183594 671.550781 300.789062 671.550781 298.253906 C 671.550781 292.988281 667.273438 288.714844 662.007812 288.714844 Z M 552.636719 288.714844 " fill-opacity="1" fill-rule="nonzero"/><path fill="#8b92f7" d="M 560.292969 298.253906 C 560.292969 298.6875 560.25 299.121094 560.167969 299.546875 C 560.082031 299.976562 559.957031 300.390625 559.789062 300.792969 C 559.621094 301.195312 559.417969 301.578125 559.175781 301.941406 C 558.933594 302.300781 558.65625 302.636719 558.351562 302.945312 C 558.042969 303.253906 557.707031 303.527344 557.34375 303.769531 C 556.980469 304.011719 556.597656 304.214844 556.195312 304.382812 C 555.792969 304.550781 555.378906 304.675781 554.953125 304.761719 C 554.523438 304.847656 554.09375 304.886719 553.65625 304.886719 C 553.21875 304.886719 552.789062 304.847656 552.363281 304.761719 C 551.933594 304.675781 551.519531 304.550781 551.117188 304.382812 C 550.714844 304.214844 550.332031 304.011719 549.96875 303.769531 C 549.605469 303.527344 549.269531 303.253906 548.964844 302.945312 C 548.65625 302.636719 548.378906 302.300781 548.136719 301.941406 C 547.894531 301.578125 547.691406 301.195312 547.523438 300.792969 C 547.359375 300.390625 547.230469 299.976562 547.148438 299.546875 C 547.0625 299.121094 547.019531 298.6875 547.019531 298.253906 C 547.019531 297.816406 547.0625 297.386719 547.148438 296.960938 C 547.230469 296.53125 547.359375 296.117188 547.523438 295.714844 C 547.691406 295.3125 547.894531 294.929688 548.136719 294.566406 C 548.378906 294.203125 548.65625 293.871094 548.964844 293.5625 C 549.269531 293.253906 549.605469 292.980469 549.96875 292.738281 C 550.332031 292.496094 550.714844 292.289062 551.117188 292.125 C 551.519531 291.957031 551.933594 291.832031 552.363281 291.746094 C 552.789062 291.660156 553.21875 291.617188 553.65625 291.617188 C 554.09375 291.617188 554.523438 291.660156 554.953125 291.746094 C 555.378906 291.832031 555.792969 291.957031 556.195312 292.125 C 556.597656 292.289062 556.980469 292.496094 557.34375 292.738281 C 557.707031 292.980469 558.042969 293.253906 558.351562 293.5625 C 558.65625 293.871094 558.933594 294.203125 559.175781 294.566406 C 559.417969 294.929688 559.621094 295.3125 559.789062 295.714844 C 559.957031 296.117188 560.082031 296.53125 560.167969 296.960938 C 560.25 297.386719 560.292969 297.816406 560.292969 298.253906 Z M 560.292969 298.253906 " fill-opacity="1" fill-rule="nonzero"/><path fill="#263156" d="M 195.796875 472.035156 C 260.558594 526.519531 357.25 518.210938 411.734375 453.441406 C 466.238281 388.703125 457.925781 292.082031 393.132812 237.582031 C 328.371094 183.132812 231.710938 191.441406 177.195312 256.179688 C 122.707031 320.933594 131.019531 417.585938 195.796875 472.035156 Z M 188.96875 266.101562 C 237.96875 207.851562 324.9375 200.371094 383.222656 249.386719 C 441.492188 298.363281 448.972656 385.304688 399.945312 443.566406 C 350.914062 501.796875 263.941406 509.292969 205.691406 460.28125 C 147.4375 411.269531 139.9375 324.332031 188.96875 266.101562 Z M 188.96875 266.101562 " fill-opacity="1" fill-rule="nonzero"/><path fill="#e8ebfc" d="M 205.707031 460.28125 C 263.957031 509.292969 350.929688 501.796875 399.960938 443.566406 C 448.992188 385.304688 441.507812 298.363281 383.238281 249.386719 C 324.953125 200.371094 237.984375 207.851562 188.984375 266.101562 C 139.9375 324.332031 147.4375 411.269531 205.707031 460.28125 Z M 205.707031 460.28125 " fill-opacity="1" fill-rule="nonzero"/><path fill="#ffffff" d="M 208.898438 456.484375 C 265.058594 503.726562 348.902344 496.519531 396.164062 440.378906 C 443.4375 384.203125 436.210938 300.40625 380.046875 253.179688 C 323.855469 205.921875 240.023438 213.148438 192.78125 269.289062 C 145.507812 325.429688 152.734375 409.246094 208.898438 456.484375 Z M 208.898438 456.484375 " fill-opacity="1" fill-rule="nonzero"/><path fill="#263156" d="M 552.203125 583.617188 C 557.167969 577.714844 556.304688 568.898438 550.304688 564.0625 L 400.183594 446.582031 L 391.695312 456.660156 L 532.628906 585.085938 C 538.402344 590.1875 547.242188 589.519531 552.203125 583.617188 Z M 552.203125 583.617188 " fill-opacity="1" fill-rule="nonzero"/><path fill="#e9bf6b" d="M 246.679688 318.558594 C 260.242188 308.699219 276.945312 302.894531 295.023438 302.894531 C 313.066406 302.894531 329.757812 308.699219 343.351562 318.539062 L 363.296875 291.632812 C 344.132812 277.632812 320.550781 269.386719 295.007812 269.386719 C 269.480469 269.386719 245.847656 277.648438 226.71875 291.652344 Z M 246.679688 318.558594 " fill-opacity="1" fill-rule="nonzero"/><path fill="#8b92f7" d="M 225.234375 292.75 C 197.203125 313.898438 179.0625 347.472656 179.0625 385.304688 L 212.566406 385.304688 C 212.566406 358.511719 225.394531 334.730469 245.195312 319.671875 Z M 225.234375 292.75 " fill-opacity="1" fill-rule="nonzero"/><path fill="#d05b71" d="M 364.796875 292.734375 L 344.835938 319.65625 C 364.636719 334.714844 377.429688 358.492188 377.429688 385.304688 L 410.9375 385.304688 C 410.953125 347.457031 392.828125 313.882812 364.796875 292.734375 Z M 364.796875 292.734375 " fill-opacity="1" fill-rule="nonzero"/><path fill="#d05b71" d="M 295.757812 323.339844 L 294.273438 323.339844 L 288.273438 375.609375 C 287.972656 378.253906 289.902344 380.597656 292.40625 380.597656 L 297.625 380.597656 C 300.128906 380.597656 302.058594 378.269531 301.757812 375.609375 Z M 295.757812 323.339844 " fill-opacity="1" fill-rule="nonzero"/><path fill="#263156" d="M 304.054688 377.027344 C 304.054688 377.621094 303.996094 378.207031 303.878906 378.792969 C 303.765625 379.375 303.59375 379.9375 303.363281 380.488281 C 303.136719 381.035156 302.859375 381.558594 302.527344 382.050781 C 302.199219 382.542969 301.824219 383 301.402344 383.421875 C 300.984375 383.839844 300.527344 384.214844 300.03125 384.546875 C 299.539062 384.875 299.019531 385.15625 298.46875 385.382812 C 297.921875 385.609375 297.355469 385.78125 296.773438 385.894531 C 296.1875 386.011719 295.601562 386.070312 295.007812 386.070312 C 294.414062 386.070312 293.824219 386.011719 293.242188 385.894531 C 292.660156 385.78125 292.09375 385.609375 291.546875 385.382812 C 290.996094 385.15625 290.476562 384.875 289.980469 384.546875 C 289.488281 384.214844 289.03125 383.839844 288.609375 383.421875 C 288.191406 383 287.816406 382.542969 287.484375 382.050781 C 287.15625 381.558594 286.875 381.035156 286.648438 380.488281 C 286.421875 379.9375 286.25 379.375 286.132812 378.792969 C 286.019531 378.207031 285.960938 377.621094 285.960938 377.027344 C 285.960938 376.433594 286.019531 375.84375 286.132812 375.261719 C 286.25 374.679688 286.421875 374.113281 286.648438 373.566406 C 286.875 373.019531 287.15625 372.496094 287.484375 372.003906 C 287.816406 371.507812 288.191406 371.050781 288.609375 370.632812 C 289.03125 370.210938 289.488281 369.835938 289.980469 369.507812 C 290.476562 369.179688 290.996094 368.898438 291.546875 368.671875 C 292.09375 368.445312 292.660156 368.273438 293.242188 368.15625 C 293.824219 368.042969 294.414062 367.984375 295.007812 367.984375 C 295.601562 367.984375 296.1875 368.042969 296.773438 368.15625 C 297.355469 368.273438 297.921875 368.445312 298.46875 368.671875 C 299.019531 368.898438 299.539062 369.179688 300.03125 369.507812 C 300.527344 369.835938 300.984375 370.210938 301.402344 370.632812 C 301.824219 371.050781 302.199219 371.507812 302.527344 372.003906 C 302.859375 372.496094 303.136719 373.019531 303.363281 373.566406 C 303.59375 374.113281 303.765625 374.679688 303.878906 375.261719 C 303.996094 375.84375 304.054688 376.433594 304.054688 377.027344 Z M 304.054688 377.027344 " fill-opacity="1" fill-rule="nonzero"/><path fill="#e8ebfc" d="M 226.703125 384.539062 L 219.808594 384.476562 C 219.808594 383.851562 219.824219 383.230469 219.859375 382.59375 L 226.75 382.816406 C 226.71875 383.390625 226.703125 383.964844 226.703125 384.539062 Z M 363.757812 384.0625 C 363.804688 383.488281 363.855469 382.929688 363.886719 382.355469 L 370.777344 382.785156 C 370.746094 383.40625 370.699219 384.027344 370.632812 384.667969 Z M 228.886719 367.503906 L 222.1875 365.832031 C 222.347656 365.222656 222.507812 364.617188 222.667969 364.011719 L 229.320312 365.863281 C 229.175781 366.390625 229.03125 366.945312 228.886719 367.503906 Z M 360.28125 363.582031 C 360.089844 363.039062 359.878906 362.511719 359.65625 361.988281 L 366.070312 359.417969 C 366.3125 360.007812 366.535156 360.582031 366.757812 361.171875 Z M 235.0625 351.523438 L 228.984375 348.253906 C 229.289062 347.695312 229.589844 347.152344 229.894531 346.613281 L 235.878906 350.039062 C 235.621094 350.519531 235.335938 351.011719 235.0625 351.523438 Z M 352.300781 347.28125 C 351.984375 346.820312 351.648438 346.355469 351.3125 345.894531 L 356.882812 341.828125 C 357.25 342.335938 357.613281 342.847656 357.964844 343.359375 Z M 245.066406 337.679688 L 240.058594 332.925781 C 240.488281 332.464844 240.933594 332.019531 241.367188 331.570312 L 246.246094 336.453125 C 245.847656 336.851562 245.449219 337.265625 245.066406 337.679688 Z M 340.0625 333.484375 C 339.632812 333.101562 339.203125 332.734375 338.757812 332.367188 L 343.160156 327.058594 C 343.636719 327.457031 344.117188 327.871094 344.59375 328.285156 Z M 258.359375 326.992188 L 254.785156 321.09375 C 255.328125 320.773438 255.867188 320.453125 256.410156 320.136719 L 259.824219 326.132812 C 259.332031 326.402344 258.835938 326.707031 258.359375 326.992188 Z M 325.847656 323.933594 C 325.335938 323.675781 324.828125 323.421875 324.300781 323.183594 L 327.253906 316.945312 C 327.828125 317.21875 328.386719 317.488281 328.945312 317.773438 Z M 274.027344 320.070312 L 272.03125 313.46875 C 272.621094 313.292969 273.226562 313.117188 273.835938 312.941406 L 275.667969 319.59375 C 275.109375 319.753906 274.566406 319.914062 274.027344 320.070312 Z M 309.703125 318.222656 C 309.144531 318.09375 308.585938 317.984375 308.027344 317.871094 L 309.320312 311.09375 C 309.941406 311.203125 310.546875 311.332031 311.167969 311.476562 Z M 291.003906 316.898438 L 290.429688 310.023438 C 291.035156 309.976562 291.65625 309.929688 292.277344 309.878906 L 292.742188 316.769531 C 292.152344 316.800781 291.578125 316.851562 291.003906 316.898438 Z M 291.003906 316.898438 " fill-opacity="1" fill-rule="nonzero"/><path fill="#e8ebfc" d="M 688.925781 364.648438 L 524.011719 364.648438 C 519.625 364.648438 516.082031 368.191406 516.082031 372.578125 L 516.082031 602.660156 C 516.082031 607.03125 519.625 610.589844 524.011719 610.589844 L 688.925781 610.589844 C 693.296875 610.589844 696.855469 607.03125 696.855469 602.660156 L 696.855469 372.5625 C 696.855469 368.175781 693.296875 364.648438 688.925781 364.648438 Z M 695.480469 602.644531 C 695.480469 606.25 692.53125 609.199219 688.925781 609.199219 L 524.011719 609.199219 C 520.390625 609.199219 517.4375 606.25 517.4375 602.644531 L 517.4375 372.5625 C 517.4375 368.941406 520.390625 366.007812 524.011719 366.007812 L 688.925781 366.007812 C 692.53125 366.007812 695.480469 368.941406 695.480469 372.5625 Z M 695.480469 602.644531 " fill-opacity="1" fill-rule="nonzero"/><path fill="#e8ebfc" d="M 688.925781 364.648438 L 524.011719 364.648438 C 519.625 364.648438 516.082031 368.191406 516.082031 372.578125 L 516.082031 395.273438 L 696.855469 395.273438 L 696.855469 372.578125 C 696.855469 368.175781 693.296875 364.648438 688.925781 364.648438 Z M 635.507812 383.726562 C 633.433594 383.726562 631.726562 382.019531 631.726562 379.945312 C 631.726562 377.839844 633.433594 376.148438 635.507812 376.148438 C 637.613281 376.148438 639.304688 377.855469 639.304688 379.945312 C 639.304688 382.035156 637.613281 383.726562 635.507812 383.726562 Z M 655.753906 383.726562 C 653.679688 383.726562 651.972656 382.019531 651.972656 379.945312 C 651.972656 377.839844 653.679688 376.148438 655.753906 376.148438 C 657.859375 376.148438 659.550781 377.855469 659.550781 379.945312 C 659.550781 382.035156 657.84375 383.726562 655.753906 383.726562 Z M 676 383.726562 C 673.894531 383.726562 672.203125 382.019531 672.203125 379.945312 C 672.203125 377.839844 673.910156 376.148438 676 376.148438 C 678.074219 376.148438 679.78125 377.855469 679.78125 379.945312 C 679.78125 382.035156 678.089844 383.726562 676 383.726562 Z M 676 383.726562 " fill-opacity="1" fill-rule="nonzero"/><path fill="#e8ebfc" d="M 550.945312 425.878906 L 661.992188 425.878906 L 661.992188 431.652344 L 550.945312 431.652344 Z M 550.945312 425.878906 " fill-opacity="1" fill-rule="nonzero"/><path fill="#e8ebfc" d="M 550.945312 450.203125 L 661.992188 450.203125 L 661.992188 455.976562 L 550.945312 455.976562 Z M 550.945312 450.203125 " fill-opacity="1" fill-rule="nonzero"/><path fill="#e8ebfc" d="M 550.945312 474.523438 L 661.992188 474.523438 L 661.992188 480.296875 L 550.945312 480.296875 Z M 550.945312 474.523438 " fill-opacity="1" fill-rule="nonzero"/><path fill="#263156" d="M 700.15625 616.746094 L 699.757812 615.023438 C 696.230469 600.09375 693.902344 590.238281 691.542969 566.488281 C 689.195312 542.707031 674.214844 542.355469 673.351562 542.355469 C 673.351562 542.355469 673.335938 542.355469 673.335938 542.355469 L 673.335938 541.574219 C 673.625 541.574219 689.914062 541.816406 692.324219 566.410156 C 694.667969 590.109375 696.996094 599.949219 700.523438 614.847656 L 700.921875 616.570312 Z M 700.15625 616.746094 " fill-opacity="1" fill-rule="nonzero"/><path fill="#8b92f7" d="M 672.90625 541.816406 C 672.90625 541.816406 656.375 548.113281 661.578125 572.550781 C 665.136719 589.246094 686.707031 595.148438 686.707031 595.148438 C 686.707031 595.148438 681.425781 587.78125 686.515625 573.617188 C 690.472656 562.644531 691.507812 534.429688 672.90625 541.816406 Z M 672.90625 541.816406 " fill-opacity="1" fill-rule="nonzero"/><path fill="#263156" d="M 676.113281 583.058594 C 672.539062 577.875 670.625 571.703125 669.96875 565.4375 C 669.90625 565.371094 669.84375 565.308594 669.792969 565.246094 L 669.953125 565.117188 C 669.875 564.367188 669.828125 563.632812 669.792969 562.882812 C 669.683594 560.777344 669.714844 558.65625 669.84375 556.535156 C 668.421875 558.324219 667.175781 560.269531 666.1875 562.324219 C 665.628906 563.539062 665.152344 564.796875 664.832031 566.089844 C 664.546875 567.398438 664.417969 568.738281 664.527344 570.09375 C 664.335938 568.753906 664.386719 567.382812 664.609375 566.042969 C 664.847656 564.703125 665.277344 563.410156 665.773438 562.132812 C 666.8125 559.613281 668.199219 557.253906 669.875 555.070312 L 669.9375 555.117188 C 670.019531 554.128906 670.113281 553.140625 670.257812 552.148438 C 670.671875 549.007812 671.101562 546.472656 671.949219 543.539062 C 672.15625 542.820312 672.667969 542.230469 673.367188 541.941406 C 672.714844 543.871094 672.1875 545.867188 671.742188 547.875 C 674.375 549.152344 676.734375 550.84375 678.808594 552.835938 C 680.980469 554.894531 682.71875 557.367188 683.945312 560.042969 C 682.589844 557.414062 680.738281 555.070312 678.507812 553.15625 C 676.433594 551.335938 674.054688 549.820312 671.550781 548.738281 C 671.308594 549.902344 671.085938 551.066406 670.910156 552.246094 C 670.734375 553.363281 670.609375 554.480469 670.511719 555.59375 L 670.558594 555.644531 C 670.542969 555.660156 670.527344 555.691406 670.496094 555.722656 C 670.273438 558.097656 670.175781 560.476562 670.242188 562.851562 C 670.257812 563.488281 670.289062 564.144531 670.335938 564.78125 L 670.480469 564.652344 C 672.011719 566.519531 673.640625 568.355469 675.332031 570.09375 C 677.039062 571.832031 678.808594 573.523438 680.851562 574.863281 C 678.730469 573.632812 676.847656 572.039062 675.027344 570.410156 C 673.433594 568.960938 671.917969 567.429688 670.433594 565.867188 C 670.960938 571.941406 672.730469 577.941406 676.113281 583.058594 Z M 676.113281 583.058594 " fill-opacity="1" fill-rule="nonzero"/><path fill="#263156" d="M 706.890625 622.835938 L 706.109375 622.804688 C 707.113281 598.355469 701.816406 574.414062 697.15625 553.296875 C 695.691406 546.679688 694.316406 540.425781 693.199219 534.527344 C 690.792969 521.65625 693.214844 513.777344 695.671875 509.4375 C 698.355469 504.683594 701.609375 503.042969 701.738281 502.976562 L 702.085938 503.679688 C 702.054688 503.695312 698.898438 505.324219 696.328125 509.882812 C 693.949219 514.109375 691.605469 521.796875 693.964844 534.398438 C 695.066406 540.285156 696.457031 546.535156 697.90625 553.15625 C 702.597656 574.289062 707.910156 598.292969 706.890625 622.835938 Z M 706.890625 622.835938 " fill-opacity="1" fill-rule="nonzero"/><path fill="#8b92f7" d="M 702.039062 502.882812 C 702.039062 502.882812 716.589844 492.835938 733.789062 510.953125 C 745.550781 523.328125 738.195312 544.445312 738.195312 544.445312 C 738.195312 544.445312 735.097656 535.929688 720.546875 532.101562 C 709.285156 529.152344 685.429688 514.03125 702.039062 502.882812 Z M 702.039062 502.882812 " fill-opacity="1" fill-rule="nonzero"/><path fill="#263156" d="M 734.238281 528.878906 C 731.988281 522.996094 727.984375 517.921875 723.179688 513.839844 C 723.164062 513.761719 723.148438 513.664062 723.132812 513.585938 L 722.941406 513.632812 C 722.367188 513.152344 721.792969 512.675781 721.1875 512.230469 C 719.511719 510.9375 717.738281 509.773438 715.9375 508.671875 C 718.203125 508.511719 720.515625 508.578125 722.78125 508.925781 C 724.089844 509.152344 725.398438 509.46875 726.660156 509.949219 C 727.902344 510.441406 729.082031 511.097656 730.121094 511.972656 C 729.132812 511.046875 727.96875 510.332031 726.738281 509.757812 C 725.492188 509.199219 724.1875 508.816406 722.863281 508.511719 C 720.195312 507.953125 717.46875 507.746094 714.722656 507.890625 L 714.738281 507.96875 C 713.878906 507.476562 713 506.996094 712.109375 506.550781 C 709.265625 505.117188 706.953125 504.03125 704.050781 503.058594 C 703.347656 502.820312 702.566406 502.914062 701.929688 503.3125 C 703.890625 503.871094 705.820312 504.558594 707.734375 505.339844 C 707.304688 508.242188 707.351562 511.128906 707.832031 513.96875 C 708.292969 516.917969 709.347656 519.757812 710.863281 522.277344 C 709.476562 519.675781 708.582031 516.804688 708.261719 513.902344 C 707.941406 511.160156 708.039062 508.335938 708.550781 505.671875 C 709.652344 506.136719 710.734375 506.613281 711.804688 507.140625 C 712.824219 507.636719 713.816406 508.160156 714.804688 508.703125 L 714.804688 508.769531 C 714.835938 508.769531 714.867188 508.769531 714.898438 508.769531 C 716.972656 509.917969 719 511.191406 720.914062 512.59375 C 721.441406 512.976562 721.953125 513.378906 722.445312 513.777344 L 722.269531 513.824219 C 722.941406 516.152344 723.53125 518.527344 724.011719 520.90625 C 724.472656 523.296875 724.871094 525.707031 724.824219 528.164062 C 725.015625 525.722656 724.777344 523.265625 724.457031 520.839844 C 724.167969 518.703125 723.769531 516.582031 723.308594 514.476562 C 727.984375 518.351562 731.941406 523.203125 734.238281 528.878906 Z M 734.238281 528.878906 " fill-opacity="1" fill-rule="nonzero"/><path fill="#263156" d="M 695.003906 610.714844 L 694.222656 610.683594 C 695.210938 585.996094 700.1875 575.210938 704.210938 566.550781 C 707.496094 559.453125 710.097656 553.855469 709.554688 543.136719 C 708.390625 519.566406 679.449219 511.175781 679.160156 511.097656 L 679.367188 510.347656 C 679.671875 510.425781 709.140625 518.960938 710.335938 543.089844 C 710.878906 553.984375 708.246094 559.664062 704.910156 566.871094 C 700.9375 575.484375 695.992188 586.1875 695.003906 610.714844 Z M 695.003906 610.714844 " fill-opacity="1" fill-rule="nonzero"/><path fill="#8b92f7" d="M 679.128906 532.292969 C 670.734375 536.3125 645.191406 537.554688 640.324219 534.957031 C 635.457031 532.355469 642.320312 513.550781 654.398438 508.480469 C 666.09375 503.570312 673.910156 507.300781 678.777344 510.394531 C 678.953125 510.492188 679.097656 510.585938 679.253906 510.699219 C 679.382812 510.777344 679.511719 510.855469 679.621094 510.953125 C 687.328125 516.375 687.394531 528.335938 679.128906 532.292969 Z M 679.128906 532.292969 " fill-opacity="1" fill-rule="nonzero"/><path fill="#263156" d="M 679.640625 510.984375 C 678.28125 511.429688 676.71875 512.054688 675.378906 512.546875 C 675.664062 515.832031 674.980469 519.085938 673.433594 521.878906 C 674.707031 519.039062 675.058594 515.816406 674.566406 512.867188 C 670.800781 514.269531 667.097656 515.847656 663.476562 517.605469 C 663.460938 517.621094 663.429688 517.621094 663.414062 517.636719 C 663.507812 518.847656 663.378906 519.996094 663.140625 521.144531 C 662.886719 522.308594 662.519531 523.441406 661.976562 524.492188 C 660.9375 526.613281 659.390625 528.449219 657.574219 529.917969 C 659.28125 528.335938 660.683594 526.441406 661.5625 524.320312 C 662.007812 523.265625 662.296875 522.148438 662.472656 521.03125 C 662.613281 520.042969 662.644531 519.023438 662.550781 518.066406 C 661.148438 518.769531 659.773438 519.519531 658.417969 520.285156 L 658.355469 520.476562 C 658.289062 520.457031 658.226562 520.441406 658.164062 520.410156 C 654.90625 522.277344 651.8125 524.398438 649.035156 526.933594 C 651.683594 524.382812 654.652344 522.230469 657.796875 520.300781 C 656.230469 519.835938 654.605469 519.5 652.976562 519.308594 C 651.144531 519.085938 649.277344 519.085938 647.425781 519.375 C 649.242188 518.945312 651.125 518.800781 653.007812 518.863281 C 654.890625 518.945312 656.742188 519.167969 658.609375 519.613281 L 658.546875 519.851562 C 660.09375 518.925781 661.671875 518.035156 663.253906 517.207031 C 665.085938 516.25 666.953125 515.355469 668.835938 514.492188 C 666.90625 513.535156 664.832031 512.769531 662.710938 512.277344 C 660.332031 511.703125 657.875 511.496094 655.433594 511.734375 C 657.859375 511.351562 660.363281 511.414062 662.804688 511.847656 C 665.246094 512.261719 667.609375 512.980469 669.890625 514.03125 C 672.808594 512.722656 675.761719 511.511719 678.777344 510.425781 C 678.953125 510.523438 679.097656 510.617188 679.253906 510.730469 C 679.398438 510.808594 679.511719 510.890625 679.640625 510.984375 Z M 679.640625 510.984375 " fill-opacity="1" fill-rule="nonzero"/><path fill="#263156" d="M 701.480469 619.742188 C 701.257812 582.804688 708.152344 569.742188 713.972656 565.292969 C 717.738281 562.40625 720.898438 563.25 721.027344 563.28125 L 720.820312 564.03125 C 720.789062 564.015625 717.882812 563.265625 714.421875 565.929688 C 708.757812 570.300781 702.039062 583.171875 702.261719 619.726562 Z M 701.480469 619.742188 " fill-opacity="1" fill-rule="nonzero"/><g clip-path="url(#bb58034c5c)"><path fill="#8b92f7" d="M 757.578125 595.148438 C 757.578125 595.148438 728.414062 591.179688 719.144531 582.5 C 710.75 574.636719 719.253906 565.339844 720.929688 563.664062 C 721.105469 563.488281 721.203125 563.394531 721.203125 563.394531 C 721.203125 563.394531 721.265625 563.265625 721.394531 563.027344 C 722.558594 560.953125 728.957031 550.9375 740.875 557.8125 C 754.132812 565.453125 757.578125 595.148438 757.578125 595.148438 Z M 757.578125 595.148438 " fill-opacity="1" fill-rule="nonzero"/></g><path fill="#263156" d="M 751.339844 587.652344 C 747.75 583.234375 743.492188 579.4375 739.039062 575.945312 C 739.007812 575.945312 738.976562 575.960938 738.929688 575.960938 L 738.914062 575.835938 C 738.320312 575.371094 737.746094 574.925781 737.15625 574.480469 C 736.070312 573.664062 734.957031 572.867188 733.855469 572.085938 C 733.824219 574.03125 733.949219 575.996094 734.238281 577.941406 C 734.589844 580.09375 735.148438 582.230469 736.28125 584.128906 C 735.035156 582.308594 734.300781 580.171875 733.804688 578.019531 C 733.328125 575.867188 733.054688 573.699219 732.976562 571.464844 C 729.179688 568.800781 724.953125 566.027344 720.929688 563.664062 C 721.105469 563.488281 721.203125 563.394531 721.203125 563.394531 C 721.203125 563.394531 721.265625 563.265625 721.394531 563.027344 L 721.410156 563.011719 C 723.609375 564.351562 725.765625 565.753906 727.886719 567.207031 C 730.679688 566.871094 733.457031 566.726562 736.230469 566.808594 C 739.007812 566.902344 741.832031 567.175781 744.417969 568.257812 C 741.800781 567.316406 738.976562 567.207031 736.230469 567.253906 C 733.789062 567.316406 731.367188 567.574219 728.972656 567.941406 C 731.84375 569.917969 734.652344 571.976562 737.398438 574.128906 C 737.859375 574.496094 738.304688 574.878906 738.769531 575.246094 L 738.738281 575.101562 C 740.253906 574.925781 741.753906 574.925781 743.234375 575.101562 C 744.71875 575.277344 746.1875 575.660156 747.496094 576.328125 C 746.125 575.804688 744.65625 575.5625 743.203125 575.53125 C 741.960938 575.515625 740.699219 575.613281 739.503906 575.851562 C 743.828125 579.40625 747.910156 583.25 751.339844 587.652344 Z M 751.339844 587.652344 " fill-opacity="1" fill-rule="nonzero"/><path fill="#263156" d="M 723.5625 656.554688 L 680.804688 656.554688 C 677.804688 656.554688 675.25 654.386719 674.773438 651.417969 L 667.785156 608.050781 L 736.566406 608.050781 L 729.578125 651.417969 C 729.117188 654.367188 726.5625 656.554688 723.5625 656.554688 Z M 723.5625 656.554688 " fill-opacity="1" fill-rule="nonzero"/><path fill="#e4b8af" d="M 426.605469 522.148438 C 426.605469 522.148438 410.746094 590.046875 409.324219 596.203125 C 406.804688 607.160156 397.773438 632.488281 397.773438 632.488281 C 397.773438 632.488281 436.164062 654.050781 447.125 647.304688 C 455.386719 642.199219 454.828125 613.492188 455.5625 602.867188 C 456.265625 592.726562 484.890625 495.082031 484.890625 495.082031 Z M 426.605469 522.148438 " fill-opacity="1" fill-rule="nonzero"/><path fill="#6066f1" d="M 487.042969 447.648438 C 487.042969 447.648438 449.308594 432.578125 434.136719 479.789062 C 421.261719 519.851562 412.246094 564.445312 412.246094 564.445312 L 475.285156 583.28125 Z M 487.042969 447.648438 " fill-opacity="1" fill-rule="nonzero"/><path fill="#e4b8af" d="M 447.824219 468.082031 C 447.984375 467.777344 474.34375 502.546875 494.480469 498.289062 C 516.976562 493.488281 531.527344 450.28125 531.527344 450.28125 L 532.898438 405.480469 L 532.929688 404.746094 L 533.152344 402.082031 L 528.6875 403.183594 L 510.945312 407.554688 L 503.828125 409.324219 L 485.640625 413.789062 C 485.640625 413.789062 484.074219 425.242188 480.917969 434.332031 C 480.566406 435.289062 480.261719 436.199219 479.910156 437.042969 C 479.257812 438.511719 478.363281 439.882812 477.421875 441.03125 C 475.238281 443.757812 472.699219 445.386719 472.699219 445.417969 C 467.324219 454.191406 447.953125 468.082031 447.824219 468.082031 Z M 447.824219 468.082031 " fill-opacity="1" fill-rule="nonzero"/><path fill="#263156" d="M 477.421875 441.03125 C 513.847656 454.667969 531.253906 411.398438 532.882812 405.496094 L 532.914062 404.761719 L 533.136719 402.097656 L 528.671875 403.199219 C 523.613281 405.816406 516.511719 408.734375 510.945312 407.554688 L 503.828125 409.324219 L 485.640625 413.789062 C 485.640625 413.789062 484.074219 425.242188 480.917969 434.332031 C 480.566406 435.289062 480.261719 436.199219 479.910156 437.042969 C 479.257812 438.527344 478.363281 439.898438 477.421875 441.03125 Z M 477.421875 441.03125 " fill-opacity="1" fill-rule="nonzero"/><path fill="#e4b8af" d="M 467.339844 384.761719 C 467.242188 407.664062 470.929688 431.492188 492.773438 433.152344 C 508.039062 434.300781 527.011719 417.15625 534.542969 399.164062 C 538.417969 389.882812 541.914062 381.78125 543.347656 375.417969 C 544.480469 370.375 544.976562 367.171875 544.976562 367.171875 L 543.890625 355.398438 L 543.238281 348.507812 C 543.238281 348.507812 539.390625 343.566406 535.101562 338.03125 C 529.738281 331.078125 517.757812 336.5625 517.660156 336.148438 C 517.535156 335.511719 488.863281 324.507812 476.785156 334.203125 C 476.738281 334.21875 476.71875 334.25 476.71875 334.265625 C 475.621094 335.144531 474.710938 336.101562 474.039062 337.121094 C 473.480469 337.96875 473.082031 338.875 472.875 339.816406 C 472.460938 341.652344 471.902344 344.394531 471.199219 347.886719 C 470.945312 349.355469 470.625 350.949219 470.355469 352.640625 C 469.875 355.511719 469.382812 358.652344 468.949219 361.988281 C 468.023438 368.957031 467.355469 376.835938 467.339844 384.761719 Z M 467.339844 384.761719 " fill-opacity="1" fill-rule="nonzero"/><path fill="#263156" d="M 544.386719 375.417969 C 544.386719 375.417969 568.605469 327.757812 527.1875 319.402344 C 527.1875 319.402344 499.121094 298.171875 474.996094 309.929688 C 453.539062 320.390625 457.414062 341.9375 470.132812 349.179688 C 478.460938 353.917969 521.808594 350.472656 527.28125 355.621094 C 532.738281 360.773438 533.585938 401.714844 533.585938 401.714844 C 533.585938 401.714844 538.578125 384.332031 544.386719 375.417969 Z M 544.386719 375.417969 " fill-opacity="1" fill-rule="nonzero"/><path fill="#263156" d="M 520.195312 302 C 520.746094 302.082031 521.289062 302.195312 521.824219 302.335938 C 522.363281 302.476562 522.890625 302.640625 523.414062 302.835938 C 523.933594 303.03125 524.441406 303.25 524.941406 303.496094 C 525.441406 303.742188 525.929688 304.015625 526.402344 304.3125 C 526.875 304.609375 527.332031 304.925781 527.773438 305.269531 C 528.214844 305.613281 528.640625 305.980469 529.046875 306.367188 C 529.457031 306.753906 529.84375 307.160156 530.210938 307.589844 C 530.578125 308.015625 530.925781 308.460938 531.253906 308.925781 C 531.578125 309.386719 531.878906 309.867188 532.160156 310.359375 C 532.441406 310.855469 532.695312 311.363281 532.929688 311.882812 C 533.160156 312.40625 533.367188 312.9375 533.546875 313.480469 C 533.726562 314.023438 533.882812 314.574219 534.011719 315.132812 C 534.140625 315.695312 534.242188 316.257812 534.316406 316.828125 C 534.390625 317.398438 534.441406 317.972656 534.460938 318.546875 C 534.480469 319.125 534.476562 319.699219 534.441406 320.277344 C 534.40625 320.851562 534.347656 321.425781 534.257812 321.996094 C 534.171875 322.566406 534.054688 323.132812 533.914062 323.691406 C 533.773438 324.25 533.605469 324.800781 533.414062 325.34375 C 533.21875 325.886719 533 326.421875 532.757812 326.941406 C 532.515625 327.460938 532.246094 327.972656 531.957031 328.464844 C 531.664062 328.960938 531.351562 329.4375 531.015625 329.902344 C 530.679688 330.367188 530.320312 330.8125 529.945312 331.238281 C 529.566406 331.667969 529.167969 332.074219 528.753906 332.460938 C 528.335938 332.847656 527.90625 333.214844 527.453125 333.558594 C 527.003906 333.902344 526.539062 334.222656 526.058594 334.519531 C 525.578125 334.8125 525.085938 335.085938 524.582031 335.332031 C 524.078125 335.578125 523.5625 335.800781 523.039062 335.996094 C 522.511719 336.1875 521.980469 336.355469 521.4375 336.496094 C 520.898438 336.636719 520.355469 336.75 519.804688 336.832031 C 519.253906 336.917969 518.699219 336.976562 518.144531 337.003906 C 517.589844 337.03125 517.035156 337.03125 516.480469 337.003906 C 515.925781 336.976562 515.375 336.917969 514.828125 336.835938 C 514.277344 336.75 513.734375 336.636719 513.199219 336.496094 C 512.660156 336.359375 512.132812 336.191406 511.609375 335.996094 C 511.089844 335.800781 510.578125 335.582031 510.082031 335.335938 C 509.582031 335.089844 509.09375 334.816406 508.621094 334.523438 C 508.148438 334.226562 507.691406 333.90625 507.25 333.5625 C 506.808594 333.21875 506.382812 332.851562 505.976562 332.464844 C 505.566406 332.078125 505.179688 331.671875 504.8125 331.246094 C 504.445312 330.816406 504.097656 330.371094 503.769531 329.910156 C 503.445312 329.445312 503.140625 328.964844 502.863281 328.472656 C 502.582031 327.976562 502.328125 327.46875 502.09375 326.949219 C 501.863281 326.425781 501.65625 325.894531 501.476562 325.351562 C 501.296875 324.808594 501.140625 324.257812 501.011719 323.699219 C 500.882812 323.140625 500.78125 322.574219 500.707031 322.003906 C 500.632812 321.433594 500.582031 320.859375 500.5625 320.285156 C 500.542969 319.707031 500.546875 319.132812 500.582031 318.554688 C 500.617188 317.980469 500.675781 317.40625 500.765625 316.835938 C 500.851562 316.265625 500.96875 315.699219 501.109375 315.140625 C 501.25 314.582031 501.417969 314.03125 501.609375 313.488281 C 501.804688 312.945312 502.023438 312.414062 502.265625 311.890625 C 502.507812 311.371094 502.777344 310.863281 503.066406 310.367188 C 503.359375 309.871094 503.671875 309.394531 504.007812 308.929688 C 504.34375 308.46875 504.703125 308.023438 505.078125 307.59375 C 505.457031 307.167969 505.855469 306.757812 506.269531 306.371094 C 506.6875 305.984375 507.117188 305.617188 507.570312 305.277344 C 508.019531 304.933594 508.484375 304.613281 508.964844 304.316406 C 509.441406 304.019531 509.933594 303.746094 510.441406 303.5 C 510.945312 303.253906 511.460938 303.03125 511.984375 302.839844 C 512.511719 302.644531 513.042969 302.476562 513.582031 302.335938 C 514.125 302.195312 514.667969 302.085938 515.21875 302 C 515.769531 301.914062 516.324219 301.859375 516.878906 301.828125 C 517.433594 301.800781 517.988281 301.800781 518.542969 301.828125 C 519.097656 301.855469 519.648438 301.914062 520.195312 302 Z M 520.195312 302 " fill-opacity="1" fill-rule="nonzero"/><path fill="#263156" d="M 494.753906 297.652344 C 495.464844 297.761719 496.167969 297.90625 496.867188 298.089844 C 497.566406 298.269531 498.25 298.488281 498.929688 298.738281 C 499.605469 298.992188 500.265625 299.277344 500.914062 299.597656 C 501.5625 299.917969 502.195312 300.269531 502.808594 300.65625 C 503.421875 301.039062 504.015625 301.457031 504.589844 301.902344 C 505.164062 302.347656 505.71875 302.824219 506.246094 303.324219 C 506.773438 303.828125 507.277344 304.355469 507.757812 304.910156 C 508.234375 305.464844 508.683594 306.042969 509.109375 306.644531 C 509.53125 307.246094 509.921875 307.871094 510.289062 308.511719 C 510.652344 309.152344 510.984375 309.8125 511.285156 310.492188 C 511.585938 311.167969 511.851562 311.859375 512.085938 312.5625 C 512.320312 313.269531 512.523438 313.984375 512.691406 314.710938 C 512.855469 315.4375 512.988281 316.171875 513.085938 316.910156 C 513.183594 317.652344 513.246094 318.398438 513.273438 319.144531 C 513.300781 319.894531 513.292969 320.640625 513.246094 321.390625 C 513.203125 322.136719 513.125 322.882812 513.011719 323.621094 C 512.898438 324.363281 512.746094 325.097656 512.5625 325.824219 C 512.382812 326.550781 512.164062 327.265625 511.914062 327.96875 C 511.660156 328.675781 511.378906 329.367188 511.0625 330.042969 C 510.746094 330.722656 510.398438 331.382812 510.019531 332.023438 C 509.644531 332.664062 509.234375 333.289062 508.800781 333.890625 C 508.363281 334.492188 507.898438 335.070312 507.410156 335.625 C 506.917969 336.179688 506.402344 336.707031 505.863281 337.210938 C 505.324219 337.714844 504.761719 338.191406 504.175781 338.636719 C 503.589844 339.082031 502.988281 339.496094 502.363281 339.882812 C 501.742188 340.269531 501.101562 340.621094 500.445312 340.941406 C 499.792969 341.261719 499.121094 341.546875 498.441406 341.800781 C 497.757812 342.054688 497.066406 342.269531 496.363281 342.453125 C 495.664062 342.632812 494.957031 342.78125 494.242188 342.890625 C 493.527344 343 492.808594 343.074219 492.085938 343.109375 C 491.367188 343.148438 490.644531 343.148438 489.925781 343.113281 C 489.207031 343.074219 488.492188 343.003906 487.777344 342.890625 C 487.066406 342.78125 486.359375 342.636719 485.664062 342.453125 C 484.964844 342.273438 484.277344 342.054688 483.601562 341.804688 C 482.925781 341.550781 482.265625 341.265625 481.617188 340.945312 C 480.96875 340.625 480.335938 340.273438 479.722656 339.886719 C 479.109375 339.503906 478.511719 339.089844 477.9375 338.640625 C 477.363281 338.195312 476.8125 337.722656 476.285156 337.21875 C 475.757812 336.714844 475.253906 336.1875 474.773438 335.632812 C 474.296875 335.078125 473.847656 334.5 473.421875 333.898438 C 473 333.296875 472.605469 332.675781 472.242188 332.03125 C 471.878906 331.390625 471.546875 330.730469 471.246094 330.054688 C 470.945312 329.375 470.679688 328.6875 470.445312 327.980469 C 470.207031 327.277344 470.007812 326.558594 469.839844 325.832031 C 469.671875 325.105469 469.542969 324.375 469.445312 323.632812 C 469.347656 322.890625 469.285156 322.148438 469.257812 321.398438 C 469.230469 320.652344 469.238281 319.902344 469.28125 319.15625 C 469.328125 318.40625 469.40625 317.664062 469.519531 316.921875 C 469.632812 316.179688 469.78125 315.449219 469.964844 314.722656 C 470.148438 313.996094 470.367188 313.277344 470.617188 312.574219 C 470.867188 311.867188 471.152344 311.175781 471.46875 310.5 C 471.785156 309.824219 472.132812 309.164062 472.507812 308.519531 C 472.886719 307.878906 473.296875 307.257812 473.730469 306.65625 C 474.167969 306.054688 474.632812 305.476562 475.121094 304.917969 C 475.613281 304.363281 476.128906 303.835938 476.667969 303.332031 C 477.207031 302.828125 477.769531 302.355469 478.355469 301.910156 C 478.9375 301.460938 479.542969 301.046875 480.164062 300.660156 C 480.789062 300.277344 481.429688 299.921875 482.082031 299.601562 C 482.738281 299.28125 483.410156 298.996094 484.089844 298.742188 C 484.773438 298.492188 485.464844 298.273438 486.164062 298.089844 C 486.867188 297.910156 487.574219 297.761719 488.289062 297.652344 C 489.003906 297.542969 489.722656 297.46875 490.445312 297.433594 C 491.164062 297.394531 491.882812 297.394531 492.605469 297.433594 C 493.324219 297.46875 494.039062 297.542969 494.753906 297.652344 Z M 494.753906 297.652344 " fill-opacity="1" fill-rule="nonzero"/><path fill="#263156" d="M 468.585938 311.128906 C 469.132812 311.210938 469.675781 311.324219 470.214844 311.464844 C 470.75 311.605469 471.28125 311.773438 471.800781 311.964844 C 472.320312 312.160156 472.832031 312.382812 473.332031 312.628906 C 473.832031 312.875 474.316406 313.144531 474.789062 313.441406 C 475.261719 313.738281 475.71875 314.058594 476.164062 314.402344 C 476.605469 314.746094 477.03125 315.109375 477.4375 315.496094 C 477.84375 315.882812 478.230469 316.292969 478.601562 316.71875 C 478.96875 317.144531 479.316406 317.589844 479.640625 318.054688 C 479.964844 318.515625 480.269531 318.996094 480.550781 319.492188 C 480.828125 319.984375 481.085938 320.492188 481.316406 321.015625 C 481.546875 321.535156 481.753906 322.066406 481.933594 322.609375 C 482.117188 323.152344 482.269531 323.707031 482.398438 324.265625 C 482.527344 324.824219 482.628906 325.390625 482.707031 325.960938 C 482.78125 326.53125 482.828125 327.101562 482.847656 327.679688 C 482.871094 328.253906 482.863281 328.832031 482.828125 329.40625 C 482.796875 329.984375 482.734375 330.554688 482.648438 331.125 C 482.558594 331.695312 482.445312 332.261719 482.304688 332.820312 C 482.160156 333.382812 481.996094 333.933594 481.800781 334.476562 C 481.609375 335.019531 481.390625 335.550781 481.144531 336.070312 C 480.902344 336.59375 480.636719 337.101562 480.34375 337.597656 C 480.054688 338.089844 479.738281 338.570312 479.402344 339.03125 C 479.066406 339.496094 478.710938 339.941406 478.332031 340.367188 C 477.953125 340.796875 477.558594 341.203125 477.140625 341.589844 C 476.726562 341.976562 476.292969 342.34375 475.84375 342.6875 C 475.394531 343.03125 474.929688 343.351562 474.449219 343.648438 C 473.96875 343.945312 473.476562 344.214844 472.972656 344.464844 C 472.464844 344.710938 471.953125 344.929688 471.425781 345.125 C 470.902344 345.320312 470.367188 345.484375 469.828125 345.625 C 469.289062 345.765625 468.742188 345.878906 468.191406 345.964844 C 467.640625 346.046875 467.089844 346.105469 466.535156 346.132812 C 465.976562 346.160156 465.421875 346.164062 464.871094 346.132812 C 464.316406 346.105469 463.761719 346.050781 463.214844 345.964844 C 462.667969 345.878906 462.125 345.769531 461.585938 345.628906 C 461.050781 345.488281 460.519531 345.320312 460 345.128906 C 459.476562 344.933594 458.96875 344.710938 458.46875 344.464844 C 457.96875 344.21875 457.484375 343.949219 457.011719 343.652344 C 456.539062 343.355469 456.078125 343.035156 455.636719 342.691406 C 455.195312 342.347656 454.769531 341.984375 454.363281 341.597656 C 453.957031 341.210938 453.570312 340.800781 453.199219 340.375 C 452.832031 339.949219 452.484375 339.503906 452.160156 339.039062 C 451.832031 338.574219 451.53125 338.097656 451.25 337.601562 C 450.972656 337.109375 450.714844 336.601562 450.484375 336.078125 C 450.253906 335.558594 450.046875 335.023438 449.863281 334.484375 C 449.683594 333.941406 449.527344 333.386719 449.402344 332.828125 C 449.273438 332.269531 449.171875 331.703125 449.09375 331.132812 C 449.019531 330.5625 448.972656 329.992188 448.953125 329.414062 C 448.929688 328.839844 448.9375 328.261719 448.972656 327.6875 C 449.003906 327.109375 449.066406 326.539062 449.152344 325.96875 C 449.242188 325.394531 449.355469 324.832031 449.496094 324.273438 C 449.636719 323.710938 449.804688 323.160156 450 322.617188 C 450.191406 322.074219 450.410156 321.542969 450.652344 321.023438 C 450.898438 320.5 451.164062 319.992188 451.457031 319.496094 C 451.746094 319.003906 452.0625 318.523438 452.398438 318.0625 C 452.734375 317.597656 453.089844 317.152344 453.46875 316.722656 C 453.84375 316.296875 454.242188 315.890625 454.660156 315.503906 C 455.074219 315.113281 455.507812 314.75 455.957031 314.40625 C 456.40625 314.0625 456.871094 313.742188 457.351562 313.445312 C 457.832031 313.148438 458.324219 312.878906 458.828125 312.628906 C 459.332031 312.382812 459.847656 312.164062 460.375 311.96875 C 460.898438 311.773438 461.433594 311.605469 461.972656 311.46875 C 462.511719 311.328125 463.058594 311.214844 463.609375 311.128906 C 464.160156 311.042969 464.710938 310.988281 465.265625 310.960938 C 465.820312 310.929688 466.375 310.929688 466.929688 310.960938 C 467.484375 310.988281 468.035156 311.042969 468.585938 311.128906 Z M 468.585938 311.128906 " fill-opacity="1" fill-rule="nonzero"/><path fill="#263156" d="M 521.949219 337.019531 C 522.746094 337.140625 523.519531 337.34375 524.277344 337.625 C 525.03125 337.90625 525.753906 338.261719 526.441406 338.691406 C 527.128906 339.125 527.765625 339.621094 528.359375 340.183594 C 528.949219 340.742188 529.480469 341.359375 529.953125 342.03125 C 530.425781 342.707031 530.832031 343.417969 531.167969 344.175781 C 531.503906 344.933594 531.765625 345.71875 531.953125 346.527344 C 532.136719 347.339844 532.246094 348.164062 532.277344 349 C 532.308594 349.835938 532.257812 350.667969 532.128906 351.496094 C 532.003906 352.324219 531.796875 353.132812 531.519531 353.921875 C 531.238281 354.710938 530.886719 355.460938 530.464844 356.179688 C 530.039062 356.898438 529.554688 357.566406 529.007812 358.1875 C 528.457031 358.808594 527.855469 359.367188 527.203125 359.867188 C 526.550781 360.367188 525.859375 360.792969 525.125 361.152344 C 524.390625 361.511719 523.632812 361.792969 522.847656 361.996094 C 522.0625 362.199219 521.269531 362.320312 520.464844 362.363281 C 519.65625 362.402344 518.855469 362.363281 518.058594 362.238281 C 517.261719 362.117188 516.488281 361.914062 515.730469 361.632812 C 514.976562 361.351562 514.253906 360.996094 513.566406 360.566406 C 512.878906 360.132812 512.242188 359.636719 511.652344 359.078125 C 511.058594 358.515625 510.527344 357.898438 510.054688 357.226562 C 509.582031 356.554688 509.175781 355.839844 508.839844 355.082031 C 508.503906 354.324219 508.242188 353.539062 508.058594 352.730469 C 507.871094 351.917969 507.761719 351.09375 507.730469 350.257812 C 507.703125 349.421875 507.75 348.589844 507.878906 347.761719 C 508.003906 346.933594 508.210938 346.125 508.488281 345.335938 C 508.769531 344.546875 509.121094 343.796875 509.542969 343.078125 C 509.96875 342.359375 510.453125 341.691406 511 341.070312 C 511.550781 340.449219 512.152344 339.890625 512.804688 339.390625 C 513.457031 338.890625 514.152344 338.464844 514.882812 338.105469 C 515.617188 337.746094 516.375 337.46875 517.160156 337.261719 C 517.945312 337.058594 518.738281 336.9375 519.546875 336.894531 C 520.351562 336.855469 521.152344 336.894531 521.949219 337.019531 Z M 521.949219 337.019531 " fill-opacity="1" fill-rule="nonzero"/><path fill="#263156" d="M 543.476562 319.96875 C 544.273438 320.089844 545.050781 320.292969 545.804688 320.574219 C 546.5625 320.855469 547.28125 321.210938 547.96875 321.644531 C 548.65625 322.074219 549.292969 322.570312 549.886719 323.132812 C 550.476562 323.691406 551.007812 324.308594 551.480469 324.980469 C 551.953125 325.65625 552.359375 326.367188 552.695312 327.125 C 553.03125 327.882812 553.292969 328.667969 553.480469 329.476562 C 553.667969 330.289062 553.773438 331.113281 553.804688 331.949219 C 553.835938 332.785156 553.785156 333.617188 553.660156 334.445312 C 553.53125 335.273438 553.328125 336.082031 553.046875 336.871094 C 552.765625 337.660156 552.414062 338.414062 551.992188 339.128906 C 551.570312 339.847656 551.082031 340.515625 550.535156 341.136719 C 549.988281 341.757812 549.386719 342.316406 548.730469 342.816406 C 548.078125 343.316406 547.386719 343.742188 546.652344 344.101562 C 545.917969 344.460938 545.160156 344.742188 544.375 344.945312 C 543.59375 345.148438 542.796875 345.269531 541.992188 345.3125 C 541.183594 345.351562 540.382812 345.3125 539.589844 345.1875 C 538.792969 345.066406 538.015625 344.863281 537.261719 344.582031 C 536.503906 344.300781 535.78125 343.945312 535.09375 343.515625 C 534.410156 343.082031 533.769531 342.585938 533.179688 342.027344 C 532.585938 341.464844 532.054688 340.847656 531.582031 340.175781 C 531.109375 339.503906 530.707031 338.789062 530.371094 338.03125 C 530.035156 337.273438 529.773438 336.492188 529.585938 335.679688 C 529.398438 334.867188 529.289062 334.042969 529.257812 333.207031 C 529.230469 332.371094 529.277344 331.539062 529.40625 330.710938 C 529.535156 329.882812 529.738281 329.074219 530.019531 328.285156 C 530.296875 327.496094 530.652344 326.746094 531.074219 326.027344 C 531.496094 325.308594 531.980469 324.640625 532.53125 324.019531 C 533.078125 323.398438 533.679688 322.839844 534.332031 322.339844 C 534.984375 321.839844 535.679688 321.414062 536.410156 321.054688 C 537.144531 320.695312 537.902344 320.417969 538.6875 320.214844 C 539.472656 320.007812 540.265625 319.886719 541.074219 319.847656 C 541.878906 319.804688 542.679688 319.84375 543.476562 319.96875 Z M 543.476562 319.96875 " fill-opacity="1" fill-rule="nonzero"/><path fill="#263156" d="M 546.03125 336.484375 C 546.828125 336.605469 547.601562 336.808594 548.359375 337.089844 C 549.113281 337.371094 549.835938 337.726562 550.523438 338.15625 C 551.210938 338.585938 551.847656 339.082031 552.4375 339.644531 C 553.03125 340.207031 553.5625 340.824219 554.035156 341.496094 C 554.507812 342.167969 554.914062 342.882812 555.25 343.640625 C 555.585938 344.398438 555.847656 345.179688 556.03125 345.992188 C 556.21875 346.804688 556.328125 347.628906 556.359375 348.464844 C 556.386719 349.300781 556.339844 350.132812 556.210938 350.960938 C 556.085938 351.789062 555.878906 352.597656 555.601562 353.386719 C 555.320312 354.171875 554.96875 354.925781 554.546875 355.644531 C 554.121094 356.363281 553.636719 357.03125 553.089844 357.652344 C 552.539062 358.273438 551.9375 358.832031 551.285156 359.332031 C 550.632812 359.828125 549.9375 360.257812 549.207031 360.617188 C 548.472656 360.972656 547.714844 361.253906 546.929688 361.457031 C 546.144531 361.664062 545.351562 361.785156 544.542969 361.824219 C 543.738281 361.867188 542.9375 361.828125 542.140625 361.703125 C 541.34375 361.582031 540.570312 361.378906 539.8125 361.097656 C 539.058594 360.816406 538.335938 360.460938 537.648438 360.027344 C 536.960938 359.597656 536.324219 359.101562 535.730469 358.539062 C 535.140625 357.980469 534.609375 357.363281 534.136719 356.6875 C 533.664062 356.015625 533.257812 355.300781 532.921875 354.546875 C 532.585938 353.789062 532.324219 353.003906 532.136719 352.191406 C 531.953125 351.382812 531.84375 350.558594 531.8125 349.722656 C 531.78125 348.886719 531.832031 348.054688 531.960938 347.226562 C 532.085938 346.398438 532.292969 345.589844 532.570312 344.800781 C 532.851562 344.011719 533.203125 343.257812 533.625 342.542969 C 534.050781 341.824219 534.535156 341.152344 535.082031 340.535156 C 535.632812 339.914062 536.234375 339.355469 536.886719 338.855469 C 537.539062 338.355469 538.230469 337.929688 538.964844 337.570312 C 539.699219 337.210938 540.457031 336.929688 541.242188 336.726562 C 542.027344 336.523438 542.820312 336.402344 543.625 336.359375 C 544.433594 336.320312 545.234375 336.359375 546.03125 336.484375 Z M 546.03125 336.484375 " fill-opacity="1" fill-rule="nonzero"/><path fill="#263156" d="M 542.503906 352.507812 C 543.175781 352.609375 543.832031 352.78125 544.472656 353.019531 C 545.113281 353.257812 545.722656 353.558594 546.304688 353.925781 C 546.886719 354.289062 547.429688 354.707031 547.929688 355.183594 C 548.429688 355.660156 548.878906 356.183594 549.28125 356.75 C 549.679688 357.320312 550.023438 357.925781 550.308594 358.566406 C 550.589844 359.203125 550.8125 359.867188 550.972656 360.554688 C 551.128906 361.242188 551.222656 361.941406 551.246094 362.648438 C 551.273438 363.355469 551.230469 364.058594 551.121094 364.761719 C 551.015625 365.460938 550.84375 366.144531 550.605469 366.8125 C 550.367188 367.476562 550.070312 368.117188 549.710938 368.722656 C 549.355469 369.332031 548.941406 369.898438 548.480469 370.421875 C 548.015625 370.945312 547.503906 371.421875 546.953125 371.84375 C 546.398438 372.265625 545.8125 372.628906 545.191406 372.929688 C 544.570312 373.234375 543.929688 373.472656 543.265625 373.644531 C 542.601562 373.816406 541.929688 373.917969 541.246094 373.953125 C 540.5625 373.988281 539.886719 373.953125 539.210938 373.851562 C 538.539062 373.746094 537.878906 373.574219 537.242188 373.335938 C 536.601562 373.097656 535.988281 372.796875 535.410156 372.433594 C 534.828125 372.070312 534.285156 371.648438 533.785156 371.171875 C 533.285156 370.699219 532.835938 370.175781 532.433594 369.605469 C 532.035156 369.039062 531.691406 368.433594 531.40625 367.792969 C 531.121094 367.152344 530.902344 366.488281 530.742188 365.800781 C 530.585938 365.113281 530.492188 364.417969 530.46875 363.710938 C 530.441406 363 530.484375 362.296875 530.589844 361.597656 C 530.699219 360.894531 530.871094 360.210938 531.109375 359.546875 C 531.347656 358.878906 531.644531 358.242188 532.003906 357.632812 C 532.359375 357.027344 532.769531 356.460938 533.234375 355.933594 C 533.699219 355.410156 534.207031 354.9375 534.761719 354.515625 C 535.316406 354.09375 535.902344 353.730469 536.523438 353.425781 C 537.140625 353.125 537.785156 352.886719 538.449219 352.714844 C 539.113281 352.542969 539.785156 352.4375 540.46875 352.402344 C 541.148438 352.367188 541.828125 352.402344 542.503906 352.507812 Z M 542.503906 352.507812 " fill-opacity="1" fill-rule="nonzero"/><path fill="#263156" d="M 497.5 337.933594 C 498.296875 338.054688 499.074219 338.257812 499.832031 338.539062 C 500.585938 338.820312 501.308594 339.175781 501.996094 339.609375 C 502.679688 340.039062 503.320312 340.535156 503.910156 341.097656 C 504.503906 341.660156 505.035156 342.277344 505.507812 342.949219 C 505.980469 343.621094 506.382812 344.335938 506.71875 345.089844 C 507.058594 345.847656 507.316406 346.632812 507.503906 347.445312 C 507.691406 348.253906 507.800781 349.078125 507.832031 349.914062 C 507.859375 350.75 507.8125 351.582031 507.683594 352.410156 C 507.554688 353.238281 507.351562 354.046875 507.070312 354.835938 C 506.792969 355.625 506.441406 356.378906 506.015625 357.09375 C 505.59375 357.8125 505.109375 358.484375 504.558594 359.101562 C 504.011719 359.722656 503.410156 360.28125 502.757812 360.78125 C 502.105469 361.28125 501.410156 361.707031 500.679688 362.066406 C 499.945312 362.425781 499.1875 362.707031 498.402344 362.910156 C 497.617188 363.113281 496.824219 363.234375 496.015625 363.277344 C 495.210938 363.316406 494.410156 363.277344 493.613281 363.152344 C 492.816406 363.03125 492.042969 362.828125 491.285156 362.546875 C 490.527344 362.265625 489.808594 361.910156 489.121094 361.480469 C 488.433594 361.050781 487.796875 360.554688 487.203125 359.992188 C 486.613281 359.429688 486.082031 358.8125 485.609375 358.140625 C 485.136719 357.46875 484.730469 356.753906 484.394531 355.996094 C 484.058594 355.238281 483.796875 354.457031 483.609375 353.644531 C 483.421875 352.832031 483.316406 352.007812 483.285156 351.171875 C 483.253906 350.335938 483.304688 349.503906 483.429688 348.675781 C 483.558594 347.847656 483.761719 347.039062 484.042969 346.25 C 484.324219 345.464844 484.675781 344.710938 485.097656 343.992188 C 485.519531 343.273438 486.007812 342.605469 486.554688 341.984375 C 487.105469 341.363281 487.703125 340.804688 488.359375 340.304688 C 489.011719 339.808594 489.703125 339.378906 490.4375 339.019531 C 491.171875 338.664062 491.929688 338.382812 492.714844 338.179688 C 493.496094 337.972656 494.292969 337.851562 495.097656 337.8125 C 495.90625 337.769531 496.707031 337.808594 497.5 337.933594 Z M 497.5 337.933594 " fill-opacity="1" fill-rule="nonzero"/><path fill="#263156" d="M 533.550781 305.191406 C 534.34375 305.316406 535.113281 305.515625 535.867188 305.796875 C 536.617188 306.074219 537.332031 306.429688 538.015625 306.855469 C 538.699219 307.285156 539.332031 307.777344 539.917969 308.335938 C 540.507812 308.894531 541.035156 309.507812 541.503906 310.175781 C 541.976562 310.84375 542.375 311.554688 542.710938 312.304688 C 543.042969 313.058594 543.304688 313.835938 543.488281 314.644531 C 543.675781 315.449219 543.78125 316.269531 543.8125 317.101562 C 543.84375 317.929688 543.792969 318.757812 543.667969 319.582031 C 543.539062 320.402344 543.339844 321.207031 543.058594 321.988281 C 542.78125 322.773438 542.429688 323.523438 542.011719 324.234375 C 541.589844 324.949219 541.109375 325.613281 540.5625 326.230469 C 540.019531 326.847656 539.421875 327.402344 538.773438 327.898438 C 538.125 328.394531 537.433594 328.820312 536.707031 329.175781 C 535.980469 329.53125 535.226562 329.8125 534.445312 330.011719 C 533.667969 330.214844 532.875 330.335938 532.074219 330.378906 C 531.273438 330.417969 530.480469 330.378906 529.6875 330.257812 C 528.898438 330.136719 528.125 329.933594 527.375 329.652344 C 526.625 329.375 525.90625 329.019531 525.226562 328.59375 C 524.542969 328.164062 523.90625 327.671875 523.320312 327.113281 C 522.734375 326.554688 522.203125 325.941406 521.734375 325.273438 C 521.265625 324.605469 520.863281 323.894531 520.53125 323.144531 C 520.195312 322.390625 519.9375 321.613281 519.75 320.804688 C 519.566406 320 519.457031 319.179688 519.425781 318.347656 C 519.398438 317.519531 519.445312 316.691406 519.574219 315.867188 C 519.699219 315.046875 519.902344 314.242188 520.179688 313.460938 C 520.460938 312.675781 520.808594 311.929688 521.230469 311.214844 C 521.648438 310.5 522.132812 309.835938 522.675781 309.21875 C 523.222656 308.601562 523.816406 308.046875 524.46875 307.550781 C 525.117188 307.054688 525.804688 306.628906 526.535156 306.273438 C 527.261719 305.917969 528.015625 305.640625 528.792969 305.4375 C 529.574219 305.234375 530.363281 305.113281 531.164062 305.070312 C 531.964844 305.03125 532.761719 305.070312 533.550781 305.191406 Z M 533.550781 305.191406 " fill-opacity="1" fill-rule="nonzero"/><path fill="#e4b8af" d="M 536.441406 378.207031 C 536.441406 378.207031 551.039062 372.128906 548.183594 385.175781 C 545.328125 398.222656 531.8125 401.605469 531.8125 401.605469 Z M 536.441406 378.207031 " fill-opacity="1" fill-rule="nonzero"/><path fill="#263156" d="M 538.851562 383.023438 C 538.851562 383.023438 549.636719 381.828125 536.710938 394.027344 Z M 538.851562 383.023438 " fill-opacity="1" fill-rule="nonzero"/><path fill="#263156" d="M 482.128906 384.097656 C 482.15625 384.582031 482.125 385.046875 482.039062 385.496094 C 481.957031 385.949219 481.824219 386.347656 481.644531 386.699219 C 481.464844 387.050781 481.25 387.324219 481.003906 387.519531 C 480.753906 387.71875 480.492188 387.824219 480.210938 387.839844 C 479.933594 387.851562 479.660156 387.773438 479.394531 387.601562 C 479.125 387.433594 478.886719 387.179688 478.671875 386.851562 C 478.457031 386.519531 478.285156 386.136719 478.152344 385.695312 C 478.023438 385.257812 477.949219 384.796875 477.921875 384.3125 C 477.898438 383.832031 477.929688 383.367188 478.011719 382.917969 C 478.097656 382.464844 478.226562 382.066406 478.40625 381.714844 C 478.585938 381.363281 478.800781 381.089844 479.050781 380.890625 C 479.296875 380.695312 479.5625 380.589844 479.839844 380.574219 C 480.121094 380.5625 480.394531 380.640625 480.660156 380.808594 C 480.925781 380.980469 481.167969 381.230469 481.382812 381.5625 C 481.597656 381.894531 481.769531 382.277344 481.898438 382.71875 C 482.027344 383.15625 482.105469 383.617188 482.128906 384.097656 Z M 482.128906 384.097656 " fill-opacity="1" fill-rule="nonzero"/><path fill="#263156" d="M 507.050781 385.742188 C 507.078125 386.222656 507.046875 386.691406 506.960938 387.140625 C 506.878906 387.589844 506.746094 387.992188 506.566406 388.339844 C 506.386719 388.691406 506.171875 388.964844 505.925781 389.164062 C 505.675781 389.359375 505.414062 389.46875 505.132812 389.480469 C 504.855469 389.496094 504.582031 389.417969 504.316406 389.246094 C 504.046875 389.074219 503.808594 388.824219 503.59375 388.492188 C 503.378906 388.164062 503.207031 387.777344 503.078125 387.339844 C 502.945312 386.898438 502.871094 386.4375 502.84375 385.957031 C 502.820312 385.476562 502.851562 385.007812 502.933594 384.558594 C 503.019531 384.109375 503.152344 383.707031 503.332031 383.355469 C 503.511719 383.007812 503.722656 382.734375 503.972656 382.535156 C 504.21875 382.335938 504.484375 382.230469 504.761719 382.21875 C 505.042969 382.203125 505.316406 382.28125 505.582031 382.453125 C 505.847656 382.625 506.089844 382.875 506.304688 383.207031 C 506.519531 383.535156 506.691406 383.921875 506.820312 384.359375 C 506.949219 384.800781 507.027344 385.261719 507.050781 385.742188 Z M 507.050781 385.742188 " fill-opacity="1" fill-rule="nonzero"/><path fill="#263156" d="M 485.449219 375.144531 C 485.449219 375.144531 480.152344 369.660156 474.519531 371.539062 Z M 485.449219 375.144531 " fill-opacity="1" fill-rule="nonzero"/><path fill="#263156" d="M 514.535156 375.015625 C 514.054688 374.875 506.558594 372.257812 501.132812 376.453125 Z M 514.535156 375.015625 " fill-opacity="1" fill-rule="nonzero"/><path fill="#263156" d="M 490.074219 402.992188 C 487.300781 402.992188 486.484375 401.765625 486.246094 400.949219 C 485.71875 399.117188 487.300781 396.804688 488.988281 396.054688 C 489.214844 395.957031 489.46875 396.054688 489.566406 396.277344 C 489.660156 396.5 489.566406 396.757812 489.339844 396.851562 C 487.855469 397.503906 486.707031 399.46875 487.074219 400.726562 C 487.410156 401.921875 489.039062 402.386719 491.605469 402.019531 C 491.863281 401.972656 492.070312 402.148438 492.101562 402.386719 C 492.132812 402.625 491.972656 402.847656 491.734375 402.878906 C 491.128906 402.945312 490.570312 402.992188 490.074219 402.992188 Z M 490.074219 402.992188 " fill-opacity="1" fill-rule="nonzero"/><path fill="#ffffff" d="M 481.96875 412.195312 C 481.96875 412.195312 482.175781 412.800781 482.71875 413.628906 C 483.675781 415.128906 485.71875 417.332031 489.46875 417.746094 C 493.171875 418.144531 495.980469 416.34375 497.527344 415.003906 C 498.386719 414.238281 498.851562 413.628906 498.851562 413.628906 " fill-opacity="1" fill-rule="nonzero"/><path fill="#ffffff" d="M 440.46875 485.449219 C 443.167969 523.953125 450.363281 561.242188 453.21875 599.121094 C 457.925781 639.632812 456.792969 656.15625 456.855469 656.539062 C 456.679688 655.375 472.921875 644.320312 510.320312 650.414062 C 545.933594 656.21875 605.191406 651.59375 620.921875 644.289062 C 621.480469 644.050781 619.40625 601.464844 618.914062 599.183594 C 604.410156 459.199219 605.75 449.261719 587.179688 440.058594 C 578.46875 434.890625 571.910156 435.242188 561.824219 433.390625 L 561.824219 433.359375 C 554.867188 431.890625 535.003906 429.914062 531.078125 429.882812 C 521.601562 443.742188 503.191406 458.417969 489.101562 461.113281 C 482.050781 459.914062 481.378906 443.34375 479.800781 439.292969 C 455.371094 444.875 437.070312 458.910156 440.46875 485.449219 Z M 440.46875 485.449219 " fill-opacity="1" fill-rule="nonzero"/><path fill="#6066f1" d="M 488.082031 454.207031 C 488.082031 454.207031 484.203125 496.230469 485.015625 534.988281 C 485.832031 573.746094 485.433594 650.03125 485.433594 650.03125 L 453.1875 647.988281 C 453.1875 647.988281 448.574219 545.386719 442.785156 520.699219 C 431.152344 471.128906 447.074219 456.4375 447.074219 456.4375 C 447.074219 456.4375 458.914062 444.398438 471.964844 440.9375 Z M 488.082031 454.207031 " fill-opacity="1" fill-rule="nonzero"/><path fill="#6066f1" d="M 543.0625 430.535156 C 543.0625 430.535156 573.871094 433.230469 584.480469 438.414062 L 578.050781 523.855469 L 583.253906 622.675781 L 523.566406 642.261719 C 523.566406 642.261719 518.171875 579.214844 515.394531 538.847656 C 512.332031 494.175781 504.992188 455.019531 504.992188 455.019531 Z M 543.0625 430.535156 " fill-opacity="1" fill-rule="nonzero"/><path fill="#6066f1" d="M 529.898438 425.242188 L 543.0625 430.535156 L 519.289062 470.523438 L 505.007812 455.019531 Z M 529.898438 425.242188 " fill-opacity="1" fill-rule="nonzero"/><path fill="#e4b8af" d="M 631.757812 561.226562 C 631.757812 561.226562 643.675781 627.894531 636.351562 643.730469 C 629.9375 657.605469 630.050781 654.863281 579.488281 654.019531 C 557.292969 653.652344 523.359375 653.96875 523.359375 653.96875 L 522.128906 625.789062 L 578.945312 607.253906 L 573.503906 574.621094 Z M 631.757812 561.226562 " fill-opacity="1" fill-rule="nonzero"/><path fill="#e4b8af" d="M 527.363281 626.234375 C 527.363281 626.234375 516.894531 621.785156 510.003906 617.667969 C 503.109375 613.554688 495.421875 609.632812 490.21875 610.523438 C 485.015625 611.433594 453.089844 622.261719 457.988281 629.359375 C 457.988281 629.359375 451.238281 634.273438 454.910156 638.59375 C 454.910156 638.59375 453.21875 641.097656 455.578125 644.066406 C 457.941406 647.03125 470.914062 636.042969 477.085938 635.757812 C 483.261719 635.46875 492.453125 636.105469 492.453125 636.105469 C 492.453125 636.105469 479.417969 641.019531 476.65625 641.878906 C 473.898438 642.757812 466.382812 647.480469 467.195312 649.742188 C 468.023438 651.992188 479.050781 645.707031 484.601562 644.832031 C 490.15625 643.9375 496.25 642.296875 499.265625 645.148438 C 502.28125 648.003906 506.730469 654.082031 513.242188 654.160156 C 519.75 654.242188 525.382812 653.15625 525.382812 653.15625 Z M 527.363281 626.234375 " fill-opacity="1" fill-rule="nonzero"/><path fill="#263156" d="M 457.988281 629.359375 C 457.988281 629.359375 458.386719 629.007812 459.105469 628.386719 C 459.839844 627.8125 460.878906 626.9375 462.203125 626.042969 C 463.542969 625.132812 465.089844 624.082031 466.875 623.109375 C 468.648438 622.121094 470.609375 621.195312 472.636719 620.429688 C 474.695312 619.695312 476.800781 619.136719 478.792969 618.800781 C 480.804688 618.453125 482.703125 618.355469 484.316406 618.308594 C 485.941406 618.261719 487.28125 618.433594 488.222656 618.53125 C 489.164062 618.660156 489.675781 618.785156 489.675781 618.785156 C 489.675781 618.785156 489.132812 618.769531 488.207031 618.816406 C 487.28125 618.835938 485.941406 618.960938 484.378906 619.136719 C 482.800781 619.3125 480.980469 619.648438 479.066406 620.078125 C 477.152344 620.523438 475.109375 621.066406 473.164062 621.800781 C 471.183594 622.503906 469.269531 623.378906 467.484375 624.242188 C 465.695312 625.101562 464.035156 625.949219 462.648438 626.730469 C 461.261719 627.511719 460.078125 628.132812 459.265625 628.609375 C 458.46875 629.089844 457.988281 629.359375 457.988281 629.359375 Z M 457.988281 629.359375 " fill-opacity="1" fill-rule="nonzero"/><path fill="#263156" d="M 454.925781 638.59375 C 454.925781 638.59375 455.386719 638.226562 456.1875 637.605469 C 457.015625 637 458.164062 636.105469 459.617188 635.132812 C 461.085938 634.175781 462.777344 633.027344 464.675781 631.929688 C 466.574219 630.828125 468.648438 629.726562 470.832031 628.800781 C 473.035156 627.878906 475.414062 627.320312 477.597656 627.078125 C 479.800781 626.808594 481.859375 626.808594 483.613281 626.808594 C 485.367188 626.824219 486.835938 627 487.839844 627.09375 C 488.863281 627.238281 489.4375 627.320312 489.4375 627.320312 C 489.4375 627.320312 488.863281 627.335938 487.839844 627.382812 C 486.820312 627.398438 485.367188 627.527344 483.644531 627.636719 C 481.921875 627.75 479.910156 628.003906 477.789062 628.355469 C 475.667969 628.722656 473.480469 629.25 471.40625 630.15625 C 469.300781 631.035156 467.242188 632.085938 465.3125 633.0625 C 463.398438 634.066406 461.578125 634.992188 460.0625 635.835938 C 458.613281 636.617188 457.238281 637.367188 456.347656 637.84375 C 455.4375 638.308594 454.925781 638.59375 454.925781 638.59375 Z M 454.925781 638.59375 " fill-opacity="1" fill-rule="nonzero"/><path fill="#263156" d="M 610.503906 612.46875 C 610.359375 612.46875 610.234375 612.4375 610.105469 612.359375 C 597.359375 604.941406 579.265625 607.988281 579.089844 608.019531 C 578.660156 608.101562 578.242188 607.8125 578.164062 607.367188 C 578.082031 606.9375 578.371094 606.519531 578.816406 606.441406 C 579.582031 606.3125 597.660156 603.25 610.917969 610.972656 C 611.300781 611.195312 611.429688 611.6875 611.207031 612.054688 C 611.046875 612.328125 610.777344 612.46875 610.503906 612.46875 Z M 610.503906 612.46875 " fill-opacity="1" fill-rule="nonzero"/><path fill="#6066f1" d="M 584.496094 438.414062 C 584.496094 438.414062 612.660156 448.703125 618.675781 473.855469 C 624.6875 499.007812 636.226562 566.585938 636.226562 566.585938 L 572.675781 576.488281 C 572.675781 576.488281 559.941406 515.242188 556.832031 483.183594 C 553.71875 451.128906 584.496094 438.414062 584.496094 438.414062 Z M 584.496094 438.414062 " fill-opacity="1" fill-rule="nonzero"/><path fill="#263156" d="M 573.3125 576.457031 C 573.121094 576.457031 572.929688 576.3125 572.882812 576.121094 C 572.753906 575.515625 559.449219 514.941406 556.386719 483.234375 C 556.367188 482.992188 556.527344 482.785156 556.769531 482.753906 C 557.007812 482.738281 557.214844 482.898438 557.246094 483.136719 C 560.324219 514.796875 573.601562 575.324219 573.726562 575.929688 C 573.777344 576.167969 573.632812 576.394531 573.394531 576.441406 C 573.378906 576.457031 573.34375 576.457031 573.3125 576.457031 Z M 573.3125 576.457031 " fill-opacity="1" fill-rule="nonzero"/><path fill="#263156" d="M 450.730469 576.839844 C 450.507812 576.839844 450.316406 576.664062 450.296875 576.441406 C 448.289062 549.851562 445.832031 531.175781 443.867188 516.152344 C 443.039062 509.851562 442.257812 503.886719 441.636719 498.320312 C 441.601562 498.082031 441.777344 497.875 442.019531 497.84375 C 442.273438 497.828125 442.464844 497.984375 442.496094 498.226562 C 443.117188 503.792969 443.902344 509.742188 444.714844 516.039062 C 446.691406 531.066406 449.132812 549.773438 451.160156 576.378906 C 451.175781 576.617188 451 576.824219 450.761719 576.839844 C 450.746094 576.839844 450.746094 576.839844 450.730469 576.839844 Z M 450.730469 576.839844 " fill-opacity="1" fill-rule="nonzero"/><path fill="#263156" d="M 329.246094 654.386719 L 482.640625 654.386719 L 441.714844 535.449219 C 441.011719 533.394531 439.082031 532.023438 436.894531 532.023438 L 287.140625 532.023438 Z M 329.246094 654.386719 " fill-opacity="1" fill-rule="nonzero"/><path fill="#263156" d="M 323.773438 654.386719 L 477.167969 654.386719 L 436.242188 535.449219 C 435.539062 533.394531 433.609375 532.023438 431.425781 532.023438 L 288.800781 532.023438 C 285.304688 532.023438 282.847656 535.46875 283.980469 538.769531 Z M 323.773438 654.386719 " fill-opacity="1" fill-rule="nonzero"/><path fill="#ffffff" d="M 383.410156 589.222656 C 383.617188 590.167969 383.765625 591.117188 383.847656 592.070312 C 383.929688 593.027344 383.945312 593.964844 383.894531 594.894531 C 383.847656 595.820312 383.730469 596.714844 383.550781 597.582031 C 383.371094 598.445312 383.128906 599.261719 382.828125 600.03125 C 382.523438 600.796875 382.167969 601.503906 381.753906 602.148438 C 381.339844 602.789062 380.875 603.359375 380.367188 603.851562 C 379.855469 604.34375 379.308594 604.753906 378.722656 605.078125 C 378.136719 605.402344 377.523438 605.636719 376.886719 605.777344 C 376.246094 605.921875 375.59375 605.96875 374.925781 605.925781 C 374.257812 605.878906 373.589844 605.742188 372.917969 605.515625 C 372.246094 605.285156 371.585938 604.964844 370.9375 604.558594 C 370.289062 604.152344 369.664062 603.667969 369.0625 603.101562 C 368.460938 602.53125 367.898438 601.894531 367.367188 601.191406 C 366.835938 600.484375 366.351562 599.722656 365.914062 598.90625 C 365.472656 598.085938 365.085938 597.226562 364.757812 596.328125 C 364.425781 595.429688 364.152344 594.507812 363.941406 593.566406 C 363.730469 592.621094 363.585938 591.671875 363.503906 590.71875 C 363.421875 589.761719 363.40625 588.824219 363.457031 587.894531 C 363.503906 586.96875 363.621094 586.074219 363.800781 585.207031 C 363.980469 584.34375 364.21875 583.527344 364.523438 582.757812 C 364.828125 581.988281 365.183594 581.285156 365.597656 580.640625 C 366.011719 579.996094 366.476562 579.429688 366.984375 578.9375 C 367.496094 578.445312 368.042969 578.035156 368.628906 577.710938 C 369.214844 577.386719 369.824219 577.152344 370.464844 577.011719 C 371.105469 576.867188 371.757812 576.820312 372.425781 576.863281 C 373.09375 576.910156 373.761719 577.046875 374.433594 577.273438 C 375.105469 577.503906 375.765625 577.824219 376.414062 578.230469 C 377.0625 578.636719 377.6875 579.121094 378.289062 579.6875 C 378.886719 580.253906 379.453125 580.890625 379.984375 581.597656 C 380.515625 582.304688 381 583.066406 381.4375 583.882812 C 381.878906 584.703125 382.261719 585.5625 382.59375 586.460938 C 382.925781 587.359375 383.199219 588.277344 383.410156 589.222656 Z M 383.410156 589.222656 " fill-opacity="1" fill-rule="nonzero"/><path fill="#263156" d="M 323.773438 641.992188 L 546.445312 641.992188 L 546.445312 654.386719 L 323.773438 654.386719 Z M 323.773438 641.992188 " fill-opacity="1" fill-rule="nonzero"/><path fill="#6066f1" d="M 479.910156 433.996094 L 488.082031 454.207031 L 478.890625 464.191406 L 471.949219 440.9375 Z M 479.910156 433.996094 " fill-opacity="1" fill-rule="nonzero"/><path fill="#263156" d="M 478.890625 464.621094 C 478.859375 464.621094 478.828125 464.621094 478.792969 464.605469 C 478.652344 464.574219 478.523438 464.460938 478.476562 464.300781 L 471.535156 441.046875 C 471.472656 440.824219 471.597656 440.570312 471.824219 440.503906 C 472.0625 440.441406 472.300781 440.570312 472.363281 440.792969 L 479.082031 463.3125 L 487.761719 453.886719 C 487.921875 453.710938 488.207031 453.695312 488.367188 453.855469 C 488.542969 454.015625 488.558594 454.285156 488.398438 454.460938 L 479.210938 464.445312 C 479.128906 464.574219 479.019531 464.621094 478.890625 464.621094 Z M 478.890625 464.621094 " fill-opacity="1" fill-rule="nonzero"/><path fill="#313131" d="M 518.109375 488.449219 C 518.109375 488.8125 518.039062 489.167969 517.898438 489.503906 C 517.757812 489.84375 517.558594 490.140625 517.300781 490.398438 C 517.042969 490.660156 516.742188 490.859375 516.40625 490.996094 C 516.066406 491.136719 515.714844 491.207031 515.347656 491.207031 C 514.980469 491.207031 514.628906 491.136719 514.292969 490.996094 C 513.953125 490.859375 513.65625 490.660156 513.394531 490.398438 C 513.136719 490.140625 512.9375 489.84375 512.796875 489.503906 C 512.65625 489.167969 512.585938 488.8125 512.585938 488.449219 C 512.585938 488.082031 512.65625 487.730469 512.796875 487.390625 C 512.9375 487.054688 513.136719 486.757812 513.394531 486.496094 C 513.65625 486.238281 513.953125 486.039062 514.292969 485.898438 C 514.628906 485.757812 514.980469 485.6875 515.347656 485.6875 C 515.714844 485.6875 516.066406 485.757812 516.40625 485.898438 C 516.742188 486.039062 517.042969 486.238281 517.300781 486.496094 C 517.558594 486.757812 517.757812 487.054688 517.898438 487.390625 C 518.039062 487.730469 518.109375 488.082031 518.109375 488.449219 Z M 518.109375 488.449219 " fill-opacity="1" fill-rule="nonzero"/><path fill="#313131" d="M 523.882812 549.246094 C 523.882812 549.613281 523.8125 549.964844 523.675781 550.304688 C 523.535156 550.640625 523.335938 550.9375 523.074219 551.199219 C 522.816406 551.457031 522.519531 551.65625 522.179688 551.796875 C 521.84375 551.9375 521.488281 552.007812 521.125 552.007812 C 520.757812 552.007812 520.40625 551.9375 520.066406 551.796875 C 519.730469 551.65625 519.429688 551.457031 519.171875 551.199219 C 518.914062 550.9375 518.714844 550.640625 518.574219 550.304688 C 518.433594 549.964844 518.363281 549.613281 518.363281 549.246094 C 518.363281 548.882812 518.433594 548.527344 518.574219 548.191406 C 518.714844 547.851562 518.914062 547.554688 519.171875 547.296875 C 519.429688 547.039062 519.730469 546.839844 520.066406 546.699219 C 520.40625 546.558594 520.757812 546.488281 521.125 546.488281 C 521.488281 546.488281 521.84375 546.558594 522.179688 546.699219 C 522.519531 546.839844 522.816406 547.039062 523.074219 547.296875 C 523.335938 547.554688 523.535156 547.851562 523.675781 548.191406 C 523.8125 548.527344 523.882812 548.882812 523.882812 549.246094 Z M 523.882812 549.246094 " fill-opacity="1" fill-rule="nonzero"/><path fill="#313131" d="M 526.722656 579.136719 C 526.722656 579.503906 526.652344 579.855469 526.515625 580.191406 C 526.375 580.53125 526.175781 580.828125 525.914062 581.085938 C 525.65625 581.347656 525.359375 581.546875 525.019531 581.683594 C 524.683594 581.824219 524.328125 581.894531 523.964844 581.894531 C 523.597656 581.894531 523.246094 581.824219 522.90625 581.683594 C 522.570312 581.546875 522.269531 581.347656 522.011719 581.085938 C 521.753906 580.828125 521.554688 580.53125 521.414062 580.191406 C 521.273438 579.855469 521.203125 579.503906 521.203125 579.136719 C 521.203125 578.769531 521.273438 578.417969 521.414062 578.082031 C 521.554688 577.742188 521.753906 577.445312 522.011719 577.183594 C 522.269531 576.925781 522.570312 576.726562 522.90625 576.585938 C 523.246094 576.445312 523.597656 576.375 523.964844 576.375 C 524.328125 576.375 524.683594 576.445312 525.019531 576.585938 C 525.359375 576.726562 525.65625 576.925781 525.914062 577.183594 C 526.175781 577.445312 526.375 577.742188 526.515625 578.082031 C 526.652344 578.417969 526.722656 578.769531 526.722656 579.136719 Z M 526.722656 579.136719 " fill-opacity="1" fill-rule="nonzero"/><path fill="#313131" d="M 529.867188 608.195312 C 529.867188 608.5625 529.796875 608.914062 529.65625 609.25 C 529.515625 609.589844 529.316406 609.886719 529.058594 610.148438 C 528.800781 610.40625 528.5 610.605469 528.164062 610.746094 C 527.824219 610.886719 527.472656 610.953125 527.105469 610.953125 C 526.742188 610.953125 526.390625 610.886719 526.050781 610.746094 C 525.710938 610.605469 525.414062 610.40625 525.15625 610.148438 C 524.894531 609.886719 524.695312 609.589844 524.558594 609.25 C 524.417969 608.914062 524.347656 608.5625 524.347656 608.195312 C 524.347656 607.828125 524.417969 607.476562 524.558594 607.140625 C 524.695312 606.800781 524.894531 606.503906 525.15625 606.246094 C 525.414062 605.984375 525.710938 605.785156 526.050781 605.644531 C 526.390625 605.507812 526.742188 605.4375 527.105469 605.4375 C 527.472656 605.4375 527.824219 605.507812 528.164062 605.644531 C 528.5 605.785156 528.800781 605.984375 529.058594 606.246094 C 529.316406 606.503906 529.515625 606.800781 529.65625 607.140625 C 529.796875 607.476562 529.867188 607.828125 529.867188 608.195312 Z M 529.867188 608.195312 " fill-opacity="1" fill-rule="nonzero"/><path fill="#313131" d="M 521.171875 515.976562 C 521.171875 516.34375 521.101562 516.695312 520.960938 517.03125 C 520.820312 517.371094 520.621094 517.667969 520.363281 517.929688 C 520.105469 518.1875 519.804688 518.386719 519.46875 518.527344 C 519.128906 518.667969 518.777344 518.734375 518.410156 518.734375 C 518.046875 518.734375 517.691406 518.667969 517.355469 518.527344 C 517.015625 518.386719 516.71875 518.1875 516.460938 517.929688 C 516.199219 517.667969 516 517.371094 515.859375 517.03125 C 515.722656 516.695312 515.652344 516.34375 515.652344 515.976562 C 515.652344 515.609375 515.722656 515.257812 515.859375 514.921875 C 516 514.582031 516.199219 514.285156 516.460938 514.027344 C 516.71875 513.765625 517.015625 513.566406 517.355469 513.429688 C 517.691406 513.289062 518.046875 513.21875 518.410156 513.21875 C 518.777344 513.21875 519.128906 513.289062 519.46875 513.429688 C 519.804688 513.566406 520.105469 513.765625 520.363281 514.027344 C 520.621094 514.285156 520.820312 514.582031 520.960938 514.921875 C 521.101562 515.257812 521.171875 515.609375 521.171875 515.976562 Z M 521.171875 515.976562 " fill-opacity="1" fill-rule="nonzero"/><path fill="#263156" d="M 519.289062 470.953125 C 519.160156 470.953125 519.050781 470.90625 518.96875 470.808594 L 504.691406 455.304688 C 504.53125 455.128906 504.546875 454.859375 504.722656 454.699219 C 504.898438 454.539062 505.167969 454.554688 505.328125 454.730469 L 519.210938 469.804688 L 542.679688 430.3125 C 542.808594 430.105469 543.078125 430.042969 543.269531 430.167969 C 543.476562 430.296875 543.539062 430.550781 543.414062 430.761719 L 519.640625 470.746094 C 519.578125 470.855469 519.449219 470.9375 519.304688 470.953125 C 519.320312 470.953125 519.304688 470.953125 519.289062 470.953125 Z M 519.289062 470.953125 " fill-opacity="1" fill-rule="nonzero"/><path fill="#263156" d="M 269.527344 566.726562 L 170.347656 566.726562 C 168.050781 566.726562 166.199219 564.863281 166.199219 562.582031 L 166.199219 459.898438 C 166.199219 457.601562 168.066406 455.753906 170.347656 455.753906 L 269.527344 455.753906 C 271.824219 455.753906 273.675781 457.617188 273.675781 459.898438 L 273.675781 562.582031 C 273.691406 564.863281 271.824219 566.726562 269.527344 566.726562 Z M 269.527344 566.726562 " fill-opacity="1" fill-rule="nonzero"/><path fill="#ffffff" d="M 107.230469 565.960938 C 105.347656 565.960938 103.832031 564.429688 103.832031 562.566406 L 103.832031 459.882812 C 103.832031 458 105.363281 456.484375 107.230469 456.484375 L 263.238281 456.484375 C 265.121094 456.484375 266.636719 458.015625 266.636719 459.882812 L 266.636719 562.566406 C 266.636719 564.445312 265.105469 565.960938 263.238281 565.960938 Z M 107.230469 565.960938 " fill-opacity="1" fill-rule="nonzero"/><path fill="#263156" d="M 263.238281 457.234375 C 264.691406 457.234375 265.890625 458.417969 265.890625 459.882812 L 265.890625 562.566406 C 265.890625 564.015625 264.707031 565.210938 263.238281 565.210938 L 107.230469 565.210938 C 105.777344 565.210938 104.582031 564.03125 104.582031 562.566406 L 104.582031 459.882812 C 104.582031 458.433594 105.761719 457.234375 107.230469 457.234375 L 263.238281 457.234375 M 263.238281 455.738281 L 107.230469 455.738281 C 104.933594 455.738281 103.082031 457.601562 103.082031 459.882812 L 103.082031 562.566406 C 103.082031 564.863281 104.949219 566.710938 107.230469 566.710938 L 263.238281 566.710938 C 265.539062 566.710938 267.386719 564.84375 267.386719 562.566406 L 267.386719 459.882812 C 267.40625 457.585938 265.539062 455.738281 263.238281 455.738281 Z M 263.238281 455.738281 " fill-opacity="1" fill-rule="nonzero"/><path fill="#e9bf6b" d="M 135.855469 511.175781 L 150.628906 511.175781 L 150.628906 545.722656 L 135.855469 545.722656 Z M 135.855469 511.175781 " fill-opacity="1" fill-rule="nonzero"/><path fill="#8b92f7" d="M 163.855469 483.757812 L 178.628906 483.757812 L 178.628906 545.738281 L 163.855469 545.738281 Z M 163.855469 483.757812 " fill-opacity="1" fill-rule="nonzero"/><path fill="#e9bf6b" d="M 191.855469 476.726562 L 206.632812 476.726562 L 206.632812 545.722656 L 191.855469 545.722656 Z M 191.855469 476.726562 " fill-opacity="1" fill-rule="nonzero"/><path fill="#8b92f7" d="M 219.859375 501.144531 L 234.632812 501.144531 L 234.632812 545.722656 L 219.859375 545.722656 Z M 219.859375 501.144531 " fill-opacity="1" fill-rule="nonzero"/><g clip-path="url(#84f6a0d063)"><path fill="#e8ebfc" d="M 236.59375 182.71875 C 236.515625 188.203125 233.976562 193.117188 230.054688 196.417969 L 238.796875 205.300781 C 245.003906 199.71875 248.992188 191.664062 249.121094 182.734375 C 249.375 165.875 235.925781 152.207031 219.058594 152.207031 L 218.867188 164.726562 C 228.808594 164.710938 236.738281 172.765625 236.59375 182.71875 Z M 236.59375 182.71875 " fill-opacity="1" fill-rule="nonzero"/></g><path fill="#6066f1" d="M 188.058594 182.71875 C 187.804688 199.574219 201.253906 213.242188 218.136719 213.242188 C 226.03125 213.242188 233.308594 210.230469 238.8125 205.285156 L 230.070312 196.402344 C 226.878906 199.082031 222.777344 200.707031 218.34375 200.707031 C 208.386719 200.707031 200.457031 192.652344 200.601562 182.699219 L 188.058594 182.699219 Z M 188.058594 182.71875 " fill-opacity="1" fill-rule="nonzero"/><g clip-path="url(#f0c23ec7aa)"><path fill="#8b92f7" d="M 188.058594 182.71875 L 200.585938 182.71875 C 200.742188 172.765625 208.929688 164.710938 218.867188 164.710938 L 219.058594 152.191406 C 202.195312 152.175781 188.316406 165.84375 188.058594 182.71875 Z M 188.058594 182.71875 " fill-opacity="1" fill-rule="nonzero"/></g><path fill="#e8ebfc" d="M 274.742188 169.015625 L 408.609375 169.015625 L 408.609375 176.976562 L 274.742188 176.976562 Z M 274.742188 169.015625 " fill-opacity="1" fill-rule="nonzero"/><path fill="#e8ebfc" d="M 274.742188 188.441406 L 374.671875 188.441406 L 374.671875 196.402344 L 274.742188 196.402344 Z M 274.742188 188.441406 " fill-opacity="1" fill-rule="nonzero"/></svg>