<svg xmlns="http://www.w3.org/2000/svg" xmlns:xlink="http://www.w3.org/1999/xlink" width="1080" zoomAndPan="magnify" viewBox="0 0 810 809.999993" height="1080" preserveAspectRatio="xMidYMid meet" version="1.0"><defs><clipPath id="f6a186df73"><path d="M 33.683594 281 L 104 281 L 104 351 L 33.683594 351 Z M 33.683594 281 " clip-rule="nonzero"/></clipPath><clipPath id="26daa43f2c"><path d="M 48 675 L 747 675 L 747 682.726562 L 48 682.726562 Z M 48 675 " clip-rule="nonzero"/></clipPath></defs><path fill="#000000" d="M 405 243 C 402.347656 243 399.699219 243.066406 397.050781 243.195312 C 394.402344 243.324219 391.757812 243.519531 389.121094 243.78125 C 386.484375 244.039062 383.851562 244.363281 381.230469 244.753906 C 378.605469 245.140625 375.996094 245.59375 373.394531 246.113281 C 370.796875 246.628906 368.207031 247.210938 365.636719 247.855469 C 363.066406 248.5 360.511719 249.207031 357.972656 249.976562 C 355.4375 250.746094 352.921875 251.578125 350.421875 252.46875 C 347.925781 253.363281 345.453125 254.316406 343.003906 255.332031 C 340.554688 256.347656 338.132812 257.421875 335.734375 258.554688 C 333.339844 259.6875 330.972656 260.878906 328.632812 262.128906 C 326.296875 263.378906 323.988281 264.683594 321.714844 266.046875 C 319.441406 267.410156 317.203125 268.828125 314.996094 270.300781 C 312.792969 271.773438 310.625 273.300781 308.496094 274.878906 C 306.367188 276.460938 304.277344 278.089844 302.226562 279.773438 C 300.179688 281.453125 298.171875 283.183594 296.207031 284.964844 C 294.242188 286.746094 292.324219 288.574219 290.449219 290.449219 C 288.574219 292.324219 286.746094 294.242188 284.964844 296.207031 C 283.183594 298.171875 281.453125 300.179688 279.773438 302.226562 C 278.089844 304.277344 276.460938 306.367188 274.878906 308.496094 C 273.300781 310.625 271.773438 312.792969 270.300781 314.996094 C 268.828125 317.203125 267.410156 319.441406 266.046875 321.714844 C 264.683594 323.988281 263.378906 326.296875 262.128906 328.632812 C 260.878906 330.972656 259.6875 333.339844 258.554688 335.734375 C 257.421875 338.132812 256.347656 340.554688 255.332031 343.003906 C 254.316406 345.453125 253.363281 347.925781 252.46875 350.425781 C 251.578125 352.921875 250.746094 355.4375 249.976562 357.972656 C 249.207031 360.511719 248.5 363.066406 247.855469 365.636719 C 247.210938 368.210938 246.628906 370.796875 246.113281 373.394531 C 245.59375 375.996094 245.140625 378.605469 244.753906 381.230469 C 244.363281 383.851562 244.039062 386.484375 243.78125 389.121094 C 243.519531 391.757812 243.324219 394.402344 243.195312 397.050781 C 243.066406 399.699219 243 402.347656 243 405 C 243 407.652344 243.066406 410.300781 243.195312 412.949219 C 243.324219 415.597656 243.519531 418.242188 243.78125 420.878906 C 244.039062 423.515625 244.363281 426.148438 244.753906 428.769531 C 245.140625 431.394531 245.59375 434.003906 246.113281 436.605469 C 246.628906 439.203125 247.210938 441.789062 247.855469 444.363281 C 248.5 446.933594 249.207031 449.488281 249.976562 452.027344 C 250.746094 454.5625 251.578125 457.078125 252.46875 459.574219 C 253.363281 462.074219 254.316406 464.546875 255.332031 466.996094 C 256.347656 469.445312 257.421875 471.867188 258.554688 474.265625 C 259.6875 476.660156 260.878906 479.027344 262.128906 481.367188 C 263.378906 483.703125 264.683594 486.011719 266.046875 488.285156 C 267.410156 490.558594 268.828125 492.796875 270.300781 495.003906 C 271.773438 497.207031 273.300781 499.375 274.878906 501.503906 C 276.460938 503.632812 278.089844 505.722656 279.773438 507.773438 C 281.453125 509.820312 283.183594 511.828125 284.964844 513.792969 C 286.746094 515.757812 288.574219 517.675781 290.449219 519.550781 C 292.324219 521.425781 294.242188 523.253906 296.207031 525.035156 C 298.171875 526.816406 300.179688 528.546875 302.226562 530.226562 C 304.277344 531.910156 306.367188 533.539062 308.496094 535.121094 C 310.625 536.699219 312.792969 538.226562 314.996094 539.699219 C 317.203125 541.171875 319.441406 542.589844 321.714844 543.953125 C 323.988281 545.316406 326.296875 546.621094 328.632812 547.871094 C 330.972656 549.121094 333.339844 550.3125 335.734375 551.445312 C 338.132812 552.578125 340.554688 553.652344 343.003906 554.667969 C 345.453125 555.683594 347.925781 556.636719 350.421875 557.53125 C 352.921875 558.421875 355.4375 559.253906 357.972656 560.023438 C 360.511719 560.792969 363.066406 561.5 365.636719 562.144531 C 368.210938 562.789062 370.796875 563.371094 373.394531 563.886719 C 375.996094 564.40625 378.605469 564.859375 381.230469 565.246094 C 383.851562 565.636719 386.484375 565.960938 389.121094 566.21875 C 391.757812 566.480469 394.402344 566.675781 397.050781 566.804688 C 399.699219 566.933594 402.347656 567 405 567 C 407.652344 567 410.300781 566.933594 412.949219 566.804688 C 415.597656 566.675781 418.242188 566.480469 420.878906 566.21875 C 423.515625 565.960938 426.148438 565.636719 428.769531 565.246094 C 431.394531 564.859375 434.003906 564.40625 436.605469 563.886719 C 439.203125 563.371094 441.789062 562.789062 444.363281 562.144531 C 446.933594 561.5 449.488281 560.792969 452.027344 560.023438 C 454.5625 559.253906 457.078125 558.421875 459.574219 557.53125 C 462.074219 556.636719 464.546875 555.683594 466.996094 554.667969 C 469.445312 553.652344 471.867188 552.578125 474.265625 551.445312 C 476.660156 550.3125 479.027344 549.121094 481.367188 547.871094 C 483.703125 546.621094 486.011719 545.316406 488.285156 543.953125 C 490.558594 542.589844 492.796875 541.171875 495.003906 539.699219 C 497.207031 538.226562 499.375 536.699219 501.503906 535.121094 C 503.632812 533.539062 505.722656 531.910156 507.773438 530.226562 C 509.820312 528.546875 511.828125 526.816406 513.792969 525.035156 C 515.757812 523.253906 517.675781 521.425781 519.550781 519.550781 C 521.425781 517.675781 523.253906 515.757812 525.035156 513.792969 C 526.816406 511.828125 528.546875 509.820312 530.226562 507.773438 C 531.910156 505.722656 533.539062 503.632812 535.121094 501.503906 C 536.699219 499.375 538.226562 497.207031 539.699219 495.003906 C 541.171875 492.796875 542.589844 490.558594 543.953125 488.285156 C 545.316406 486.011719 546.621094 483.703125 547.871094 481.367188 C 549.121094 479.027344 550.3125 476.660156 551.445312 474.265625 C 552.578125 471.867188 553.652344 469.445312 554.667969 466.996094 C 555.683594 464.546875 556.636719 462.074219 557.53125 459.574219 C 558.421875 457.078125 559.253906 454.5625 560.023438 452.027344 C 560.792969 449.488281 561.5 446.933594 562.144531 444.363281 C 562.789062 441.789062 563.371094 439.203125 563.886719 436.605469 C 564.40625 434.003906 564.859375 431.394531 565.246094 428.769531 C 565.636719 426.148438 565.960938 423.515625 566.21875 420.878906 C 566.480469 418.242188 566.675781 415.597656 566.804688 412.949219 C 566.933594 410.300781 567 407.652344 567 405 C 567 402.347656 566.933594 399.699219 566.804688 397.050781 C 566.671875 394.402344 566.476562 391.761719 566.21875 389.121094 C 565.957031 386.484375 565.632812 383.851562 565.242188 381.230469 C 564.855469 378.609375 564.402344 375.996094 563.882812 373.398438 C 563.367188 370.796875 562.785156 368.210938 562.140625 365.640625 C 561.496094 363.066406 560.789062 360.511719 560.019531 357.976562 C 559.25 355.4375 558.417969 352.921875 557.523438 350.425781 C 556.632812 347.929688 555.675781 345.457031 554.664062 343.007812 C 553.648438 340.558594 552.574219 338.136719 551.441406 335.738281 C 550.308594 333.34375 549.113281 330.976562 547.863281 328.636719 C 546.617188 326.300781 545.308594 323.992188 543.945312 321.71875 C 542.582031 319.445312 541.164062 317.207031 539.691406 315.003906 C 538.21875 312.796875 536.691406 310.632812 535.113281 308.5 C 533.535156 306.371094 531.902344 304.28125 530.222656 302.234375 C 528.539062 300.183594 526.808594 298.175781 525.027344 296.214844 C 523.246094 294.25 521.421875 292.328125 519.546875 290.453125 C 517.671875 288.578125 515.75 286.753906 513.785156 284.972656 C 511.824219 283.191406 509.816406 281.460938 507.765625 279.777344 C 505.71875 278.097656 503.628906 276.464844 501.5 274.886719 C 499.367188 273.308594 497.203125 271.78125 494.996094 270.308594 C 492.792969 268.835938 490.554688 267.417969 488.28125 266.054688 C 486.007812 264.691406 483.699219 263.382812 481.363281 262.132812 C 479.023438 260.886719 476.65625 259.691406 474.261719 258.558594 C 471.863281 257.425781 469.441406 256.351562 466.992188 255.335938 C 464.542969 254.320312 462.070312 253.367188 459.574219 252.476562 C 457.078125 251.582031 454.5625 250.75 452.023438 249.980469 C 449.488281 249.210938 446.933594 248.503906 444.359375 247.859375 C 441.789062 247.214844 439.203125 246.632812 436.601562 246.117188 C 434.003906 245.597656 431.390625 245.144531 428.769531 244.757812 C 426.148438 244.367188 423.515625 244.042969 420.878906 243.78125 C 418.238281 243.523438 415.597656 243.328125 412.949219 243.195312 C 410.300781 243.066406 407.652344 243 405 243 Z M 405 303.75 C 405.957031 303.75 406.914062 303.777344 407.871094 303.832031 C 408.828125 303.886719 409.785156 303.96875 410.734375 304.078125 C 411.6875 304.191406 412.636719 304.328125 413.582031 304.492188 C 414.523438 304.65625 415.460938 304.847656 416.394531 305.070312 C 417.328125 305.289062 418.253906 305.535156 419.171875 305.808594 C 420.09375 306.078125 421.003906 306.378906 421.902344 306.703125 C 422.804688 307.03125 423.695312 307.382812 424.578125 307.757812 C 425.457031 308.136719 426.328125 308.539062 427.183594 308.964844 C 428.042969 309.394531 428.886719 309.84375 429.71875 310.320312 C 430.550781 310.796875 431.367188 311.296875 432.171875 311.820312 C 432.972656 312.34375 433.761719 312.890625 434.53125 313.460938 C 435.304688 314.027344 436.058594 314.621094 436.792969 315.234375 C 437.53125 315.84375 438.25 316.480469 438.949219 317.132812 C 439.648438 317.789062 440.332031 318.460938 440.992188 319.15625 C 441.652344 319.847656 442.292969 320.5625 442.914062 321.292969 C 443.535156 322.023438 444.132812 322.769531 444.707031 323.535156 C 445.285156 324.300781 445.839844 325.082031 446.371094 325.882812 C 446.902344 326.679688 447.410156 327.492188 447.894531 328.316406 C 448.378906 329.144531 448.839844 329.984375 449.277344 330.839844 C 449.710938 331.691406 450.121094 332.558594 450.507812 333.433594 C 450.894531 334.3125 451.253906 335.199219 451.589844 336.097656 C 451.921875 336.996094 452.230469 337.902344 452.515625 338.820312 C 452.796875 339.734375 453.050781 340.65625 453.28125 341.589844 C 453.507812 342.519531 453.710938 343.457031 453.882812 344.398438 C 454.058594 345.339844 454.207031 346.289062 454.324219 347.238281 C 454.445312 348.1875 454.535156 349.144531 454.601562 350.097656 C 454.664062 351.054688 454.703125 352.011719 454.710938 352.972656 C 454.71875 353.929688 454.703125 354.886719 454.65625 355.84375 C 454.609375 356.800781 454.535156 357.757812 454.433594 358.710938 C 454.332031 359.664062 454.203125 360.613281 454.046875 361.558594 C 453.890625 362.503906 453.703125 363.441406 453.492188 364.378906 C 453.28125 365.3125 453.046875 366.242188 452.78125 367.160156 C 452.515625 368.082031 452.226562 368.996094 451.90625 369.898438 C 451.589844 370.804688 451.246094 371.699219 450.875 372.582031 C 450.507812 373.46875 450.113281 374.339844 449.695312 375.203125 C 449.273438 376.0625 448.828125 376.914062 448.359375 377.746094 C 447.890625 378.582031 447.398438 379.40625 446.882812 380.210938 C 446.367188 381.019531 445.828125 381.8125 445.265625 382.589844 C 444.703125 383.363281 444.117188 384.125 443.511719 384.867188 C 442.90625 385.609375 442.277344 386.332031 441.628906 387.039062 C 440.980469 387.746094 440.316406 388.429688 439.625 389.097656 C 438.9375 389.765625 438.230469 390.414062 437.507812 391.039062 C 436.78125 391.664062 436.039062 392.269531 435.277344 392.855469 C 434.519531 393.4375 433.742188 394 432.949219 394.539062 C 432.15625 395.078125 431.347656 395.589844 430.527344 396.082031 C 429.703125 396.574219 428.867188 397.042969 428.019531 397.488281 C 427.167969 397.929688 426.308594 398.347656 425.433594 398.742188 C 424.558594 399.136719 423.675781 399.503906 422.78125 399.847656 C 421.882812 400.1875 420.980469 400.503906 420.066406 400.796875 C 419.152344 401.085938 418.234375 401.347656 417.304688 401.585938 C 416.375 401.824219 415.441406 402.03125 414.5 402.214844 C 413.558594 402.398438 412.613281 402.554688 411.664062 402.679688 C 410.714844 402.808594 409.761719 402.910156 408.804688 402.984375 C 407.851562 403.054688 406.894531 403.101562 405.933594 403.117188 C 404.976562 403.136719 404.019531 403.125 403.0625 403.089844 C 402.105469 403.050781 401.148438 402.984375 400.195312 402.890625 C 399.238281 402.796875 398.289062 402.675781 397.34375 402.53125 C 396.394531 402.382812 395.453125 402.207031 394.515625 402.003906 C 393.582031 401.800781 392.652344 401.570312 391.726562 401.316406 C 390.804688 401.058594 389.886719 400.773438 388.980469 400.464844 C 388.074219 400.15625 387.175781 399.820312 386.289062 399.460938 C 385.402344 399.097656 384.527344 398.710938 383.660156 398.300781 C 382.792969 397.886719 381.941406 397.449219 381.101562 396.988281 C 380.261719 396.527344 379.4375 396.042969 378.625 395.53125 C 336.910156 369.105469 354.984375 304.257812 405 303.75 Z M 463.269531 506.25 L 346.730469 506.25 C 345.527344 506.246094 344.328125 506.1875 343.132812 506.066406 C 341.9375 505.945312 340.746094 505.769531 339.570312 505.53125 C 338.390625 505.296875 337.226562 505 336.074219 504.652344 C 334.925781 504.300781 333.792969 503.894531 332.683594 503.433594 C 331.574219 502.972656 330.488281 502.457031 329.429688 501.886719 C 328.367188 501.320312 327.339844 500.703125 326.339844 500.03125 C 325.339844 499.363281 324.375 498.648438 323.449219 497.882812 C 322.519531 497.121094 321.628906 496.3125 320.78125 495.460938 C 319.929688 494.609375 319.125 493.71875 318.363281 492.789062 C 317.601562 491.859375 316.882812 490.894531 316.21875 489.894531 C 315.550781 488.894531 314.933594 487.863281 314.367188 486.804688 C 313.800781 485.742188 313.285156 484.65625 312.824219 483.546875 C 312.367188 482.4375 311.960938 481.304688 311.613281 480.152344 C 311.261719 479.003906 310.96875 477.839844 310.734375 476.660156 C 310.5 475.480469 310.324219 474.292969 310.207031 473.09375 C 310.085938 471.898438 310.027344 470.699219 310.027344 469.496094 C 310.027344 438.363281 332.960938 411.480469 365.867188 399.378906 C 367.222656 400.527344 368.621094 401.609375 370.070312 402.632812 C 371.523438 403.65625 373.011719 404.613281 374.546875 405.503906 C 376.078125 406.394531 377.648438 407.21875 379.253906 407.972656 C 380.859375 408.726562 382.496094 409.40625 384.164062 410.019531 C 385.828125 410.628906 387.515625 411.164062 389.230469 411.625 C 390.941406 412.085938 392.671875 412.472656 394.417969 412.78125 C 396.164062 413.09375 397.921875 413.324219 399.6875 413.480469 C 401.457031 413.636719 403.226562 413.714844 405 413.714844 C 406.773438 413.714844 408.542969 413.636719 410.3125 413.480469 C 412.078125 413.324219 413.835938 413.09375 415.582031 412.78125 C 417.328125 412.472656 419.058594 412.085938 420.769531 411.625 C 422.484375 411.164062 424.171875 410.628906 425.835938 410.019531 C 427.503906 409.40625 429.140625 408.726562 430.746094 407.972656 C 432.351562 407.21875 433.921875 406.394531 435.453125 405.503906 C 436.988281 404.613281 438.476562 403.65625 439.929688 402.632812 C 441.378906 401.609375 442.777344 400.527344 444.132812 399.378906 C 477.039062 411.480469 499.972656 438.363281 499.972656 469.496094 C 499.972656 470.699219 499.914062 471.898438 499.792969 473.09375 C 499.675781 474.292969 499.5 475.480469 499.265625 476.660156 C 499.03125 477.839844 498.738281 479.003906 498.386719 480.152344 C 498.039062 481.304688 497.632812 482.4375 497.175781 483.546875 C 496.714844 484.65625 496.199219 485.742188 495.632812 486.804688 C 495.066406 487.863281 494.449219 488.894531 493.78125 489.894531 C 493.117188 490.894531 492.398438 491.859375 491.636719 492.789062 C 490.875 493.71875 490.070312 494.609375 489.21875 495.460938 C 488.371094 496.3125 487.480469 497.121094 486.550781 497.882812 C 485.621094 498.648438 484.660156 499.363281 483.660156 500.03125 C 482.660156 500.703125 481.632812 501.320312 480.570312 501.886719 C 479.511719 502.457031 478.425781 502.972656 477.316406 503.433594 C 476.207031 503.894531 475.074219 504.300781 473.925781 504.652344 C 472.773438 505 471.609375 505.296875 470.429688 505.53125 C 469.253906 505.769531 468.0625 505.945312 466.867188 506.066406 C 465.671875 506.1875 464.472656 506.246094 463.269531 506.25 Z M 463.269531 506.25 " fill-opacity="1" fill-rule="nonzero"/><path fill="#d4def9" d="M 747.460938 608.4375 C 729.351562 635.59375 702.964844 655.414062 681.421875 679.761719 L 53.816406 676.171875 C 83.636719 658.847656 99.714844 584.25 100.183594 549.757812 C 100.339844 538.519531 98.621094 527.441406 96.125 516.359375 C 87.539062 478.4375 68.960938 440.980469 80.511719 404.460938 C 97.21875 351.710938 156.386719 324.085938 158.417969 264.9375 C 159.042969 247.613281 157.011719 230.292969 157.949219 212.96875 C 160.601562 162.558594 201.039062 126.976562 251.777344 130.566406 C 284.25 132.90625 314.382812 149.917969 338.425781 171.921875 C 355.441406 187.527344 370.898438 206.101562 392.285156 214.683594 C 418.515625 224.984375 448.488281 217.960938 474.71875 207.347656 C 500.945312 196.894531 526.394531 182.847656 554.496094 179.570312 C 568.703125 177.851562 582.128906 178.632812 594.617188 181.285156 C 600.863281 182.691406 606.796875 184.5625 612.574219 186.90625 C 676.425781 207.816406 680.328125 269.621094 682.828125 327.207031 C 682.828125 327.363281 682.828125 327.363281 682.828125 327.519531 C 684.074219 354.675781 683.917969 384.015625 694.535156 409.453125 C 704.214844 432.863281 724.199219 448.316406 740.589844 467.042969 C 774.78125 506.371094 776.03125 565.832031 747.460938 608.4375 Z M 747.460938 608.4375 " fill-opacity="1" fill-rule="nonzero"/><path fill="#ffffff" d="M 332.804688 220.769531 L 324.6875 220.769531 C 323.28125 214.371094 320.78125 208.441406 317.503906 202.980469 L 323.59375 196.894531 C 325.777344 194.707031 325.777344 191.273438 323.59375 189.246094 L 310.324219 175.980469 C 308.136719 173.796875 304.703125 173.796875 302.671875 175.980469 L 296.894531 181.753906 C 291.589844 178.320312 285.5 175.824219 279.253906 174.261719 L 279.253906 165.835938 C 279.253906 162.871094 276.757812 160.375 273.789062 160.375 L 255.054688 160.375 C 252.089844 160.375 249.589844 162.871094 249.589844 165.835938 L 249.589844 174.105469 C 243.191406 175.511719 237.257812 178.007812 231.792969 181.285156 L 225.707031 175.199219 C 223.519531 173.015625 220.085938 173.015625 218.054688 175.199219 L 204.785156 188.464844 C 202.597656 190.648438 202.597656 194.082031 204.785156 196.113281 L 210.5625 201.886719 C 207.125 207.191406 204.628906 213.28125 203.066406 219.523438 L 194.480469 219.523438 C 191.515625 219.523438 189.015625 222.019531 189.015625 224.984375 L 189.015625 243.710938 C 189.015625 246.679688 191.515625 249.175781 194.480469 249.175781 L 202.753906 249.175781 C 204.160156 255.574219 206.660156 261.503906 209.9375 266.964844 L 203.847656 273.054688 C 201.664062 275.238281 201.664062 278.671875 203.847656 280.699219 L 217.117188 293.964844 C 219.304688 296.152344 222.738281 296.152344 224.769531 293.964844 L 230.542969 288.191406 C 235.851562 291.625 241.941406 294.121094 248.1875 295.683594 L 248.1875 304.109375 C 248.1875 307.074219 250.683594 309.574219 253.652344 309.574219 L 272.386719 309.574219 C 275.351562 309.574219 277.847656 307.074219 277.847656 304.109375 L 277.847656 295.996094 C 284.25 294.589844 290.183594 292.09375 295.648438 288.816406 L 301.734375 294.902344 C 303.921875 297.085938 307.355469 297.085938 309.386719 294.902344 L 322.65625 281.636719 C 324.839844 279.453125 324.839844 276.019531 322.65625 273.988281 L 316.878906 268.214844 C 320.3125 262.910156 322.8125 256.820312 324.53125 250.578125 L 332.960938 250.578125 C 335.925781 250.578125 338.425781 248.082031 338.425781 245.117188 L 338.425781 226.390625 C 338.269531 223.269531 335.769531 220.769531 332.804688 220.769531 Z M 263.640625 269.621094 C 244.441406 269.621094 228.984375 254.011719 228.984375 234.972656 C 228.984375 214.996094 245.84375 199.078125 265.984375 200.328125 C 283.3125 201.417969 297.363281 215.621094 298.300781 232.789062 C 299.550781 252.921875 283.46875 269.621094 263.640625 269.621094 Z M 263.640625 269.621094 " fill-opacity="1" fill-rule="nonzero"/><path fill="#263156" d="M 349.664062 637 L 471.59375 637 L 471.59375 671.175781 L 349.664062 671.175781 Z M 349.664062 637 " fill-opacity="1" fill-rule="nonzero"/><path fill="#263156" d="M 706.714844 261.035156 L 706.714844 624.511719 C 706.714844 632.785156 700 639.652344 691.570312 639.652344 L 129.535156 639.652344 C 121.261719 639.652344 114.390625 632.941406 114.390625 624.511719 L 114.390625 261.035156 C 114.390625 252.765625 121.105469 245.898438 129.378906 245.898438 L 691.570312 245.898438 C 700 245.898438 706.714844 252.609375 706.714844 261.035156 Z M 706.714844 261.035156 " fill-opacity="1" fill-rule="nonzero"/><path fill="#ffffff" d="M 706.714844 261.035156 L 706.714844 605.472656 L 114.390625 605.472656 L 114.390625 261.035156 C 114.390625 252.765625 121.105469 245.898438 129.378906 245.898438 L 691.570312 245.898438 C 700 245.898438 706.714844 252.609375 706.714844 261.035156 Z M 706.714844 261.035156 " fill-opacity="1" fill-rule="nonzero"/><path fill="#5385ea" d="M 129.066406 261.035156 L 692.195312 261.035156 L 692.195312 589.554688 L 129.066406 589.554688 Z M 129.066406 261.035156 " fill-opacity="1" fill-rule="nonzero"/><path fill="#263156" d="M 510 678.667969 L 311.101562 678.667969 L 311.101562 675.234375 C 311.101562 671.175781 314.382812 667.898438 318.441406 667.898438 L 502.664062 667.898438 C 506.722656 667.898438 510 671.175781 510 675.234375 Z M 510 678.667969 " fill-opacity="1" fill-rule="nonzero"/><path fill="#ffffff" d="M 341.546875 508.867188 L 346.855469 508.867188 L 346.855469 521.976562 C 346.855469 524.632812 348.105469 526.035156 350.601562 526.035156 C 353.101562 526.035156 354.503906 524.476562 354.503906 521.976562 L 354.503906 508.867188 L 359.8125 508.867188 L 359.8125 521.976562 C 359.8125 528.0625 355.597656 531.03125 350.445312 531.03125 C 345.292969 531.03125 341.390625 528.0625 341.390625 521.976562 L 341.390625 508.867188 Z M 341.546875 508.867188 " fill-opacity="1" fill-rule="nonzero"/><path fill="#ffffff" d="M 375.582031 522.914062 L 372.300781 522.914062 L 372.300781 530.875 L 366.996094 530.875 L 366.996094 508.867188 L 375.738281 508.867188 C 381.046875 508.867188 383.855469 511.832031 383.855469 515.890625 C 383.699219 519.480469 381.203125 522.914062 375.582031 522.914062 Z M 375.113281 518.699219 C 377.296875 518.699219 378.078125 517.609375 378.078125 515.890625 C 378.078125 514.175781 377.140625 513.082031 375.113281 513.082031 L 372.144531 513.082031 L 372.144531 518.542969 L 375.113281 518.542969 Z M 375.113281 518.699219 " fill-opacity="1" fill-rule="nonzero"/><path fill="#ffffff" d="M 409.304688 519.792969 C 409.304688 526.347656 404.777344 530.71875 397.75 530.71875 L 389.476562 530.71875 L 389.476562 508.710938 L 397.75 508.710938 C 404.777344 508.867188 409.304688 513.238281 409.304688 519.792969 Z M 397.4375 526.191406 C 401.496094 526.191406 403.839844 523.851562 403.839844 519.792969 C 403.839844 515.734375 401.496094 513.394531 397.4375 513.394531 L 394.941406 513.394531 L 394.941406 526.191406 Z M 397.4375 526.191406 " fill-opacity="1" fill-rule="nonzero"/><path fill="#ffffff" d="M 429.128906 526.972656 L 420.855469 526.972656 L 419.605469 530.875 L 413.988281 530.875 L 421.949219 508.867188 L 428.195312 508.867188 L 436.15625 530.875 L 430.535156 530.875 Z M 425.070312 514.800781 L 422.417969 522.914062 L 427.882812 522.914062 Z M 425.070312 514.800781 " fill-opacity="1" fill-rule="nonzero"/><path fill="#ffffff" d="M 440.527344 508.867188 L 457.542969 508.867188 L 457.542969 513.082031 L 451.769531 513.082031 L 451.769531 530.71875 L 446.460938 530.71875 L 446.460938 513.082031 L 440.527344 513.082031 Z M 440.527344 508.867188 " fill-opacity="1" fill-rule="nonzero"/><path fill="#ffffff" d="M 476.746094 513.082031 L 468.628906 513.082031 L 468.628906 517.453125 L 475.8125 517.453125 L 475.8125 521.507812 L 468.628906 521.507812 L 468.628906 526.347656 L 476.746094 526.347656 L 476.746094 530.5625 L 463.320312 530.5625 L 463.320312 508.554688 L 476.746094 508.554688 Z M 476.746094 513.082031 " fill-opacity="1" fill-rule="nonzero"/><path fill="#263156" d="M 448.957031 391.039062 L 444.429688 391.039062 C 443.648438 387.449219 442.246094 384.171875 440.527344 381.207031 L 443.804688 377.929688 C 445.054688 376.679688 445.054688 374.808594 443.804688 373.714844 L 436.46875 366.378906 C 435.21875 365.132812 433.347656 365.132812 432.253906 366.378906 L 428.972656 369.65625 C 426.007812 367.785156 422.730469 366.378906 419.140625 365.445312 L 419.140625 360.761719 C 419.140625 359.046875 417.734375 357.796875 416.171875 357.796875 L 405.867188 357.796875 C 404.152344 357.796875 402.902344 359.203125 402.902344 360.761719 L 402.902344 365.289062 C 399.3125 366.066406 396.03125 367.472656 393.066406 369.191406 L 389.789062 365.914062 C 388.539062 364.664062 386.664062 364.664062 385.574219 365.914062 L 378.234375 373.246094 C 376.984375 374.496094 376.984375 376.367188 378.234375 377.460938 L 381.515625 380.738281 C 379.640625 383.703125 378.234375 386.980469 377.296875 390.570312 L 372.613281 390.570312 C 370.898438 390.570312 369.648438 391.976562 369.648438 393.535156 L 369.648438 403.835938 C 369.648438 405.554688 371.054688 406.800781 372.613281 406.800781 L 377.140625 406.800781 C 377.921875 410.390625 379.328125 413.667969 381.046875 416.632812 L 377.765625 419.910156 C 376.519531 421.160156 376.519531 423.03125 377.765625 424.125 L 385.105469 431.460938 C 386.351562 432.707031 388.226562 432.707031 389.320312 431.460938 L 392.597656 428.183594 C 395.566406 430.054688 398.84375 431.460938 402.433594 432.394531 L 402.433594 437.078125 C 402.433594 438.792969 403.839844 440.042969 405.398438 440.042969 L 415.703125 440.042969 C 417.421875 440.042969 418.671875 438.640625 418.671875 437.078125 L 418.671875 432.550781 C 422.261719 431.773438 425.539062 430.367188 428.507812 428.652344 L 431.785156 431.929688 C 433.035156 433.175781 434.90625 433.175781 436 431.929688 L 443.335938 424.59375 C 444.585938 423.34375 444.585938 421.472656 443.335938 420.378906 L 440.058594 417.101562 C 441.933594 414.136719 443.335938 410.859375 444.273438 407.269531 L 448.957031 407.269531 C 450.675781 407.269531 451.925781 405.863281 451.925781 404.304688 L 451.925781 394.003906 C 451.925781 392.441406 450.675781 391.039062 448.957031 391.039062 Z M 410.550781 418.039062 C 399.9375 418.039062 391.347656 409.453125 391.347656 398.84375 C 391.347656 387.761719 400.714844 378.867188 411.957031 379.644531 C 421.480469 380.269531 429.285156 388.074219 429.910156 397.75 C 430.535156 408.832031 421.636719 418.039062 410.550781 418.039062 Z M 410.550781 418.039062 " fill-opacity="1" fill-rule="nonzero"/><path fill="#ffffff" d="M 418.203125 331.109375 C 418.203125 326.894531 414.765625 323.460938 410.550781 323.460938 L 410.394531 323.460938 C 406.179688 323.460938 402.746094 326.894531 402.746094 331.109375 C 402.746094 335.324219 406.179688 338.757812 410.394531 338.757812 L 410.550781 338.757812 C 414.765625 338.757812 418.203125 335.324219 418.203125 331.109375 Z M 418.203125 331.109375 " fill-opacity="1" fill-rule="nonzero"/><path fill="#ffffff" d="M 410.863281 338.757812 C 415.078125 338.757812 418.515625 335.324219 418.515625 331.109375 C 418.515625 326.894531 415.078125 323.460938 410.863281 323.460938 L 410.707031 323.460938 C 406.492188 323.460938 403.058594 326.894531 403.058594 331.109375 C 403.058594 335.324219 406.492188 338.757812 410.863281 338.757812 Z M 410.863281 338.757812 " fill-opacity="1" fill-rule="nonzero"/><path fill="#d4def9" d="M 454.578125 346.402344 C 456.921875 342.8125 455.828125 338.132812 452.390625 335.792969 L 452.238281 335.636719 C 448.644531 333.292969 443.960938 334.386719 441.621094 337.976562 C 439.277344 341.566406 440.371094 346.246094 443.960938 348.589844 L 444.117188 348.589844 C 447.554688 350.929688 452.390625 349.835938 454.578125 346.402344 Z M 454.578125 346.402344 " fill-opacity="1" fill-rule="nonzero"/><path fill="#d4def9" d="M 466.597656 374.808594 C 468.316406 378.710938 472.84375 380.425781 476.746094 378.554688 C 480.652344 376.835938 482.367188 372.3125 480.496094 368.410156 L 480.496094 368.253906 C 478.777344 364.351562 474.25 362.632812 470.347656 364.507812 C 466.597656 366.378906 464.882812 370.90625 466.597656 374.808594 Z M 466.597656 374.808594 " fill-opacity="1" fill-rule="nonzero"/><path fill="#d4def9" d="M 471.4375 409.140625 C 470.816406 413.355469 473.78125 417.257812 477.839844 417.882812 C 482.054688 418.507812 485.957031 415.542969 486.582031 411.484375 L 486.582031 411.328125 C 487.207031 407.113281 484.242188 403.210938 480.027344 402.585938 C 475.96875 401.964844 472.0625 404.929688 471.4375 409.140625 Z M 471.4375 409.140625 " fill-opacity="1" fill-rule="nonzero"/><path fill="#d4def9" d="M 457.699219 451.4375 C 460.824219 454.246094 465.664062 453.933594 468.472656 450.65625 L 468.628906 450.5 C 471.4375 447.378906 471.128906 442.539062 467.847656 439.730469 C 464.726562 436.921875 459.886719 437.234375 457.078125 440.511719 L 457.078125 440.667969 C 454.265625 443.789062 454.578125 448.625 457.699219 451.4375 Z M 457.699219 451.4375 " fill-opacity="1" fill-rule="nonzero"/><path fill="#d4def9" d="M 427.726562 459.238281 C 423.667969 460.488281 421.324219 464.703125 422.574219 468.757812 C 423.824219 472.816406 428.039062 475.15625 432.097656 473.910156 L 432.253906 473.910156 C 436.3125 472.660156 438.652344 468.449219 437.40625 464.390625 C 436.15625 460.332031 431.941406 457.992188 427.726562 459.238281 Z M 427.726562 459.238281 " fill-opacity="1" fill-rule="nonzero"/><path fill="#ffffff" d="M 393.066406 459.238281 C 389.007812 457.992188 384.792969 460.332031 383.542969 464.390625 C 382.292969 468.449219 384.636719 472.660156 388.695312 473.910156 L 388.851562 473.910156 C 392.910156 475.15625 397.125 472.816406 398.375 468.757812 C 399.625 464.703125 397.28125 460.488281 393.066406 459.238281 Z M 393.066406 459.238281 " fill-opacity="1" fill-rule="nonzero"/><path fill="#ffffff" d="M 364.027344 440.355469 C 361.21875 437.234375 356.378906 436.765625 353.253906 439.574219 C 350.132812 442.382812 349.664062 447.222656 352.476562 450.34375 L 352.632812 450.5 C 355.441406 453.621094 360.28125 454.089844 363.402344 451.28125 C 366.527344 448.472656 366.839844 443.632812 364.027344 440.355469 Z M 364.027344 440.355469 " fill-opacity="1" fill-rule="nonzero"/><path fill="#ffffff" d="M 349.664062 408.832031 C 349.039062 404.617188 345.136719 401.808594 341.078125 402.277344 C 337.019531 402.742188 334.054688 406.800781 334.519531 410.859375 L 334.519531 411.015625 C 335.144531 415.230469 339.046875 418.039062 343.265625 417.570312 C 347.324219 417.101562 350.289062 413.199219 349.664062 408.832031 Z M 349.664062 408.832031 " fill-opacity="1" fill-rule="nonzero"/><path fill="#ffffff" d="M 354.660156 374.652344 C 356.378906 370.75 354.660156 366.222656 350.914062 364.507812 C 347.167969 362.789062 342.484375 364.507812 340.765625 368.253906 L 340.765625 368.410156 C 339.046875 372.3125 340.765625 376.835938 344.511719 378.554688 C 348.261719 380.269531 352.789062 378.554688 354.660156 374.652344 Z M 354.660156 374.652344 " fill-opacity="1" fill-rule="nonzero"/><path fill="#ffffff" d="M 377.296875 348.433594 C 380.890625 346.09375 381.824219 341.410156 379.640625 337.820312 C 377.296875 334.230469 372.613281 333.292969 369.023438 335.480469 L 368.867188 335.636719 C 365.277344 337.976562 364.339844 342.660156 366.527344 346.246094 C 369.023438 349.835938 373.707031 350.773438 377.296875 348.433594 Z M 377.296875 348.433594 " fill-opacity="1" fill-rule="nonzero"/><path fill="#263156" d="M 163.257812 287.878906 L 658.003906 287.878906 L 658.003906 289.128906 L 163.257812 289.128906 Z M 163.257812 287.878906 " fill-opacity="1" fill-rule="nonzero"/><path fill="#263156" d="M 163.257812 560.683594 L 658.003906 560.683594 L 658.003906 561.929688 L 163.257812 561.929688 Z M 163.257812 560.683594 " fill-opacity="1" fill-rule="nonzero"/><path fill="#ffffff" d="M 767.914062 470.476562 L 518.277344 470.476562 C 514.996094 470.476562 512.5 467.824219 512.5 464.703125 L 512.5 364.664062 C 512.5 361.386719 515.152344 358.890625 518.277344 358.890625 L 767.914062 358.890625 C 771.191406 358.890625 773.6875 361.542969 773.6875 364.664062 L 773.6875 464.703125 C 773.6875 467.980469 771.191406 470.476562 767.914062 470.476562 Z M 767.914062 470.476562 " fill-opacity="1" fill-rule="nonzero"/><path fill="#263156" d="M 767.914062 471.257812 L 518.277344 471.257812 C 514.683594 471.257812 511.71875 468.292969 511.71875 464.703125 L 511.71875 364.664062 C 511.71875 361.074219 514.683594 358.109375 518.277344 358.109375 L 767.914062 358.109375 C 771.503906 358.109375 774.46875 361.074219 774.46875 364.664062 L 774.46875 464.703125 C 774.46875 468.292969 771.503906 471.257812 767.914062 471.257812 Z M 518.277344 359.667969 C 515.464844 359.667969 513.28125 361.855469 513.28125 364.664062 L 513.28125 464.703125 C 513.28125 467.511719 515.464844 469.695312 518.277344 469.695312 L 767.914062 469.695312 C 770.722656 469.695312 772.910156 467.511719 772.910156 464.703125 L 772.910156 364.664062 C 772.910156 361.855469 770.722656 359.667969 767.914062 359.667969 Z M 518.277344 359.667969 " fill-opacity="1" fill-rule="nonzero"/><path fill="#5385ea" d="M 579.164062 382.765625 C 561.519531 382.765625 547.3125 396.96875 547.3125 414.605469 C 547.3125 432.238281 561.519531 446.441406 579.164062 446.441406 C 596.804688 446.441406 611.011719 432.238281 611.011719 414.605469 C 611.011719 397.125 596.804688 382.765625 579.164062 382.765625 Z M 579.164062 440.042969 C 565.113281 440.042969 553.871094 428.652344 553.871094 414.761719 C 553.871094 400.714844 565.269531 389.476562 579.164062 389.476562 C 593.058594 389.476562 604.453125 400.871094 604.453125 414.761719 C 604.609375 428.652344 593.214844 440.042969 579.164062 440.042969 Z M 579.164062 440.042969 " fill-opacity="1" fill-rule="nonzero"/><path fill="#263156" d="M 579.164062 382.765625 L 579.164062 389.320312 C 593.214844 389.320312 604.453125 400.714844 604.453125 414.605469 C 604.453125 428.652344 593.058594 439.886719 579.164062 439.886719 C 573.230469 439.886719 567.765625 437.859375 563.550781 434.425781 L 558.867188 439.105469 C 564.332031 443.632812 571.511719 446.441406 579.164062 446.441406 C 596.804688 446.441406 611.011719 432.238281 611.011719 414.605469 C 611.011719 397.125 596.804688 382.765625 579.164062 382.765625 Z M 579.164062 382.765625 " fill-opacity="1" fill-rule="nonzero"/><path fill="#5385ea" d="M 571.355469 412.109375 C 571.199219 411.484375 570.886719 411.015625 569.953125 411.015625 C 568.859375 411.015625 568.234375 411.953125 568.234375 413.980469 C 568.703125 413.355469 569.484375 412.886719 570.417969 412.886719 C 572.136719 412.886719 573.230469 413.980469 573.230469 415.851562 C 573.230469 417.570312 572.136719 418.972656 570.109375 418.972656 C 567.296875 418.972656 566.671875 417.101562 566.671875 414.136719 C 566.671875 411.171875 567.609375 409.453125 569.953125 409.453125 C 571.824219 409.453125 572.761719 410.703125 572.917969 411.953125 L 571.355469 411.953125 Z M 568.390625 415.851562 C 568.390625 416.789062 569.015625 417.414062 569.953125 417.414062 C 570.886719 417.414062 571.511719 416.789062 571.511719 415.851562 C 571.511719 414.917969 571.042969 414.292969 569.953125 414.292969 C 569.171875 414.449219 568.390625 414.917969 568.390625 415.851562 Z M 568.390625 415.851562 " fill-opacity="1" fill-rule="nonzero"/><path fill="#5385ea" d="M 580.878906 409.765625 L 580.878906 411.328125 L 576.820312 411.328125 L 576.820312 413.511719 C 577.132812 413.042969 577.914062 412.730469 578.695312 412.730469 C 580.878906 412.730469 581.660156 414.292969 581.660156 415.851562 C 581.660156 417.726562 580.566406 419.128906 578.539062 419.128906 C 576.507812 419.128906 575.414062 418.039062 575.257812 416.476562 L 576.976562 416.476562 C 577.132812 417.101562 577.601562 417.570312 578.539062 417.570312 C 579.632812 417.570312 580.097656 416.789062 580.097656 415.851562 C 580.097656 414.761719 579.632812 414.292969 578.539062 414.292969 C 577.757812 414.292969 577.289062 414.761719 577.132812 415.230469 L 575.414062 415.230469 L 575.414062 409.765625 Z M 580.878906 409.765625 " fill-opacity="1" fill-rule="nonzero"/><path fill="#5385ea" d="M 584.625 409.921875 C 585.71875 409.921875 586.65625 410.703125 586.65625 411.953125 C 586.65625 413.355469 585.71875 413.980469 584.625 413.980469 C 583.535156 413.980469 582.597656 413.199219 582.597656 411.953125 C 582.597656 410.703125 583.378906 409.921875 584.625 409.921875 Z M 583.847656 412.109375 C 583.847656 412.730469 584.160156 413.042969 584.472656 413.042969 C 584.9375 413.042969 585.25 412.730469 585.25 412.109375 C 585.25 411.484375 584.9375 411.171875 584.472656 411.171875 C 584.160156 411.015625 583.847656 411.328125 583.847656 412.109375 Z M 589 410.078125 L 590.714844 410.078125 L 585.71875 418.972656 L 584.003906 418.972656 Z M 590.089844 415.074219 C 591.183594 415.074219 592.121094 415.851562 592.121094 417.101562 C 592.121094 418.507812 591.339844 419.128906 590.089844 419.128906 C 589 419.128906 588.0625 418.351562 588.0625 417.101562 C 588.21875 415.695312 589 415.074219 590.089844 415.074219 Z M 589.464844 417.101562 C 589.464844 417.882812 589.777344 418.039062 590.246094 418.039062 C 590.714844 418.039062 591.027344 417.726562 591.027344 417.101562 C 591.027344 416.476562 590.714844 416.164062 590.246094 416.164062 C 589.777344 416.164062 589.464844 416.320312 589.464844 417.101562 Z M 589.464844 417.101562 " fill-opacity="1" fill-rule="nonzero"/><path fill="#d4def9" d="M 736.375 403.054688 L 631.152344 403.054688 C 629.746094 403.054688 628.652344 401.964844 628.652344 400.558594 C 628.652344 399.152344 629.746094 398.0625 631.152344 398.0625 L 736.375 398.0625 C 737.78125 398.0625 738.875 399.152344 738.875 400.558594 C 738.71875 401.964844 737.625 403.054688 736.375 403.054688 Z M 736.375 403.054688 " fill-opacity="1" fill-rule="nonzero"/><path fill="#d4def9" d="M 696.566406 417.101562 L 631.152344 417.101562 C 629.746094 417.101562 628.652344 416.007812 628.652344 414.605469 C 628.652344 413.199219 629.746094 412.109375 631.152344 412.109375 L 696.566406 412.109375 C 697.96875 412.109375 699.0625 413.199219 699.0625 414.605469 C 698.90625 416.007812 697.816406 417.101562 696.566406 417.101562 Z M 696.566406 417.101562 " fill-opacity="1" fill-rule="nonzero"/><path fill="#d4def9" d="M 653.320312 431.148438 L 631.152344 431.148438 C 629.746094 431.148438 628.652344 430.054688 628.652344 428.652344 C 628.652344 427.246094 629.746094 426.152344 631.152344 426.152344 L 653.320312 426.152344 C 654.726562 426.152344 655.816406 427.246094 655.816406 428.652344 C 655.660156 430.054688 654.570312 431.148438 653.320312 431.148438 Z M 653.320312 431.148438 " fill-opacity="1" fill-rule="nonzero"/><path fill="#263156" d="M 665.183594 429.117188 C 665.183594 429.261719 665.15625 429.402344 665.101562 429.535156 C 665.046875 429.671875 664.96875 429.789062 664.863281 429.890625 C 664.761719 429.992188 664.644531 430.074219 664.511719 430.128906 C 664.375 430.183594 664.238281 430.210938 664.09375 430.210938 C 663.949219 430.210938 663.808594 430.183594 663.675781 430.128906 C 663.539062 430.074219 663.421875 429.992188 663.320312 429.890625 C 663.21875 429.789062 663.136719 429.671875 663.082031 429.535156 C 663.027344 429.402344 663 429.261719 663 429.117188 C 663 428.972656 663.027344 428.835938 663.082031 428.699219 C 663.136719 428.566406 663.21875 428.449219 663.320312 428.347656 C 663.421875 428.242188 663.539062 428.164062 663.675781 428.109375 C 663.808594 428.054688 663.949219 428.027344 664.09375 428.027344 C 664.238281 428.027344 664.375 428.054688 664.511719 428.109375 C 664.644531 428.164062 664.761719 428.242188 664.863281 428.347656 C 664.96875 428.449219 665.046875 428.566406 665.101562 428.699219 C 665.15625 428.835938 665.183594 428.972656 665.183594 429.117188 Z M 665.183594 429.117188 " fill-opacity="1" fill-rule="nonzero"/><path fill="#263156" d="M 672.679688 429.117188 C 672.679688 429.261719 672.652344 429.402344 672.597656 429.535156 C 672.539062 429.671875 672.460938 429.789062 672.359375 429.890625 C 672.257812 429.992188 672.136719 430.074219 672.003906 430.128906 C 671.871094 430.183594 671.730469 430.210938 671.585938 430.210938 C 671.441406 430.210938 671.300781 430.183594 671.167969 430.128906 C 671.035156 430.074219 670.914062 429.992188 670.8125 429.890625 C 670.710938 429.789062 670.632812 429.671875 670.578125 429.535156 C 670.519531 429.402344 670.492188 429.261719 670.492188 429.117188 C 670.492188 428.972656 670.519531 428.835938 670.578125 428.699219 C 670.632812 428.566406 670.710938 428.449219 670.8125 428.347656 C 670.914062 428.242188 671.035156 428.164062 671.167969 428.109375 C 671.300781 428.054688 671.441406 428.027344 671.585938 428.027344 C 671.730469 428.027344 671.871094 428.054688 672.003906 428.109375 C 672.136719 428.164062 672.257812 428.242188 672.359375 428.347656 C 672.460938 428.449219 672.539062 428.566406 672.597656 428.699219 C 672.652344 428.835938 672.679688 428.972656 672.679688 429.117188 Z M 672.679688 429.117188 " fill-opacity="1" fill-rule="nonzero"/><path fill="#263156" d="M 680.328125 429.117188 C 680.328125 429.261719 680.300781 429.402344 680.246094 429.535156 C 680.191406 429.671875 680.109375 429.789062 680.007812 429.890625 C 679.90625 429.992188 679.789062 430.074219 679.652344 430.128906 C 679.519531 430.183594 679.382812 430.210938 679.234375 430.210938 C 679.089844 430.210938 678.953125 430.183594 678.816406 430.128906 C 678.683594 430.074219 678.566406 429.992188 678.464844 429.890625 C 678.359375 429.789062 678.28125 429.671875 678.226562 429.535156 C 678.171875 429.402344 678.144531 429.261719 678.144531 429.117188 C 678.144531 428.972656 678.171875 428.835938 678.226562 428.699219 C 678.28125 428.566406 678.359375 428.449219 678.464844 428.347656 C 678.566406 428.242188 678.683594 428.164062 678.816406 428.109375 C 678.953125 428.054688 679.089844 428.027344 679.234375 428.027344 C 679.382812 428.027344 679.519531 428.054688 679.652344 428.109375 C 679.789062 428.164062 679.90625 428.242188 680.007812 428.347656 C 680.109375 428.449219 680.191406 428.566406 680.246094 428.699219 C 680.300781 428.835938 680.328125 428.972656 680.328125 429.117188 Z M 680.328125 429.117188 " fill-opacity="1" fill-rule="nonzero"/><path fill="#263156" d="M 687.980469 429.117188 C 687.980469 429.261719 687.949219 429.402344 687.894531 429.535156 C 687.839844 429.671875 687.761719 429.789062 687.660156 429.890625 C 687.554688 429.992188 687.4375 430.074219 687.304688 430.128906 C 687.171875 430.183594 687.03125 430.210938 686.886719 430.210938 C 686.742188 430.210938 686.601562 430.183594 686.46875 430.128906 C 686.332031 430.074219 686.214844 429.992188 686.113281 429.890625 C 686.011719 429.789062 685.933594 429.671875 685.875 429.535156 C 685.820312 429.402344 685.792969 429.261719 685.792969 429.117188 C 685.792969 428.972656 685.820312 428.835938 685.875 428.699219 C 685.933594 428.566406 686.011719 428.449219 686.113281 428.347656 C 686.214844 428.242188 686.332031 428.164062 686.46875 428.109375 C 686.601562 428.054688 686.742188 428.027344 686.886719 428.027344 C 687.03125 428.027344 687.171875 428.054688 687.304688 428.109375 C 687.4375 428.164062 687.554688 428.242188 687.660156 428.347656 C 687.761719 428.449219 687.839844 428.566406 687.894531 428.699219 C 687.949219 428.835938 687.980469 428.972656 687.980469 429.117188 Z M 687.980469 429.117188 " fill-opacity="1" fill-rule="nonzero"/><path fill="#263156" d="M 695.472656 429.117188 C 695.472656 429.261719 695.445312 429.402344 695.390625 429.535156 C 695.332031 429.671875 695.253906 429.789062 695.152344 429.890625 C 695.050781 429.992188 694.933594 430.074219 694.796875 430.128906 C 694.664062 430.183594 694.523438 430.210938 694.378906 430.210938 C 694.234375 430.210938 694.09375 430.183594 693.960938 430.128906 C 693.828125 430.074219 693.710938 429.992188 693.605469 429.890625 C 693.503906 429.789062 693.425781 429.671875 693.371094 429.535156 C 693.316406 429.402344 693.285156 429.261719 693.285156 429.117188 C 693.285156 428.972656 693.316406 428.835938 693.371094 428.699219 C 693.425781 428.566406 693.503906 428.449219 693.605469 428.347656 C 693.710938 428.242188 693.828125 428.164062 693.960938 428.109375 C 694.09375 428.054688 694.234375 428.027344 694.378906 428.027344 C 694.523438 428.027344 694.664062 428.054688 694.796875 428.109375 C 694.933594 428.164062 695.050781 428.242188 695.152344 428.347656 C 695.253906 428.449219 695.335938 428.566406 695.390625 428.699219 C 695.445312 428.835938 695.472656 428.972656 695.472656 429.117188 Z M 695.472656 429.117188 " fill-opacity="1" fill-rule="nonzero"/><path fill="#263156" d="M 703.121094 429.117188 C 703.121094 429.261719 703.09375 429.402344 703.039062 429.535156 C 702.984375 429.671875 702.90625 429.789062 702.800781 429.890625 C 702.699219 429.992188 702.582031 430.074219 702.449219 430.128906 C 702.3125 430.183594 702.175781 430.210938 702.03125 430.210938 C 701.886719 430.210938 701.746094 430.183594 701.613281 430.128906 C 701.476562 430.074219 701.359375 429.992188 701.257812 429.890625 C 701.15625 429.789062 701.074219 429.671875 701.019531 429.535156 C 700.964844 429.402344 700.9375 429.261719 700.9375 429.117188 C 700.9375 428.972656 700.964844 428.835938 701.019531 428.699219 C 701.074219 428.566406 701.15625 428.449219 701.257812 428.347656 C 701.359375 428.242188 701.476562 428.164062 701.613281 428.109375 C 701.746094 428.054688 701.886719 428.027344 702.03125 428.027344 C 702.175781 428.027344 702.3125 428.054688 702.449219 428.109375 C 702.582031 428.164062 702.699219 428.242188 702.800781 428.347656 C 702.90625 428.449219 702.984375 428.566406 703.039062 428.699219 C 703.09375 428.835938 703.121094 428.972656 703.121094 429.117188 Z M 703.121094 429.117188 " fill-opacity="1" fill-rule="nonzero"/><path fill="#f9c4a0" d="M 210.71875 470.789062 C 193.074219 467.667969 198.226562 485.613281 198.382812 500.441406 C 199.476562 524.007812 189.640625 552.097656 198.070312 557.25 C 220.710938 569.578125 231.636719 482.804688 225.859375 477.5 C 222.894531 475.15625 216.492188 472.660156 210.71875 470.789062 Z M 210.71875 470.789062 " fill-opacity="1" fill-rule="nonzero"/><path fill="#f9c4a0" d="M 206.035156 553.816406 C 191.515625 538.363281 176.214844 619.363281 176.058594 642.929688 C 175.902344 666.496094 183.863281 652.136719 194.792969 616.554688 C 205.722656 580.972656 211.808594 559.902344 206.035156 553.816406 Z M 206.035156 553.816406 " fill-opacity="1" fill-rule="nonzero"/><path fill="#f9c4a0" d="M 173.871094 640.121094 L 171.53125 648.546875 L 185.582031 651.667969 L 186.832031 643.398438 Z M 173.871094 640.121094 " fill-opacity="1" fill-rule="nonzero"/><path fill="#263156" d="M 185.894531 651.667969 C 185.894531 651.667969 187.457031 657.285156 194.792969 665.714844 C 202.128906 674.140625 204.785156 673.207031 204.472656 675.703125 C 204.160156 678.199219 165.910156 668.054688 165.910156 668.054688 L 171.53125 647.921875 C 171.53125 647.921875 185.894531 651.042969 185.894531 651.667969 Z M 185.894531 651.667969 " fill-opacity="1" fill-rule="nonzero"/><path fill="#263156" d="M 229.453125 470.632812 C 229.453125 470.632812 233.042969 485.925781 223.832031 527.597656 C 222.894531 532.121094 221.644531 537.117188 220.242188 542.421875 C 209.78125 583.625 190.734375 641.210938 189.484375 644.800781 C 189.484375 644.957031 189.484375 644.957031 189.484375 644.957031 L 171.375 640.121094 L 187.300781 554.75 L 184.332031 510.898438 L 184.175781 509.648438 L 181.992188 479.214844 Z M 229.453125 470.632812 " fill-opacity="1" fill-rule="nonzero"/><path fill="#f9c4a0" d="M 189.171875 482.960938 C 172 488.113281 184.957031 501.6875 192.140625 514.796875 C 204.160156 535.085938 208.6875 564.582031 218.523438 565.207031 C 244.441406 565.832031 213.371094 484.054688 205.722656 482.023438 C 202.128906 481.246094 195.105469 482.023438 189.171875 482.960938 Z M 189.171875 482.960938 " fill-opacity="1" fill-rule="nonzero"/><path fill="#f9c4a0" d="M 223.050781 553.035156 C 204.160156 543.046875 216.648438 624.511719 224.300781 646.832031 C 233.511719 673.363281 234.917969 657.441406 233.199219 615.929688 C 231.636719 578.785156 230.542969 556.9375 223.050781 553.035156 Z M 223.050781 553.035156 " fill-opacity="1" fill-rule="nonzero"/><path fill="#f9c4a0" d="M 221.019531 644.175781 L 223.207031 657.910156 L 237.414062 656.507812 L 235.539062 642.773438 Z M 221.019531 644.175781 " fill-opacity="1" fill-rule="nonzero"/><path fill="#263156" d="M 237.726562 656.195312 C 237.726562 656.195312 241.003906 661.03125 250.839844 666.652344 C 260.675781 672.269531 262.707031 670.550781 263.332031 673.050781 C 263.796875 675.546875 224.300781 678.199219 224.300781 678.199219 L 222.894531 657.441406 C 222.894531 657.441406 237.726562 655.726562 237.726562 656.195312 Z M 237.726562 656.195312 " fill-opacity="1" fill-rule="nonzero"/><path fill="#263156" d="M 177.464844 481.402344 C 177.464844 481.402344 172.15625 494.824219 179.179688 513.707031 C 187.300781 535.242188 204.941406 566.613281 204.941406 566.613281 L 219.304688 646.832031 L 238.351562 644.019531 C 238.351562 644.019531 233.980469 561.773438 231.792969 548.820312 C 229.609375 536.023438 218.054688 481.867188 218.054688 481.867188 Z M 177.464844 481.402344 " fill-opacity="1" fill-rule="nonzero"/><path fill="#ffffff" d="M 207.125 580.96875 L 204.628906 566.769531 C 204.003906 565.675781 194.792969 549.289062 186.988281 532.589844 L 187.769531 532.277344 C 195.886719 549.445312 205.410156 566.300781 205.410156 566.457031 L 205.410156 566.613281 L 207.90625 580.816406 Z M 207.125 580.96875 " fill-opacity="1" fill-rule="nonzero"/><path fill="#f9c4a0" d="M 213.839844 402.277344 C 205.097656 409.921875 226.171875 466.105469 233.199219 461.890625 C 246.3125 460.957031 230.390625 392.910156 213.839844 402.277344 Z M 213.839844 402.277344 " fill-opacity="1" fill-rule="nonzero"/><path fill="#f9c4a0" d="M 236.320312 433.800781 L 240.378906 455.492188 L 252.246094 459.550781 L 251.464844 470.632812 C 251.464844 470.632812 232.417969 470.632812 227.578125 464.234375 C 222.738281 457.835938 218.679688 438.484375 218.679688 438.484375 Z M 236.320312 433.800781 " fill-opacity="1" fill-rule="nonzero"/><path fill="#ffffff" d="M 237.257812 433.800781 L 232.574219 435.207031 L 225.394531 437.234375 L 217.742188 439.417969 L 201.507812 394.628906 C 231.792969 393.378906 232.574219 417.414062 237.257812 433.800781 Z M 237.257812 433.800781 " fill-opacity="1" fill-rule="nonzero"/><path fill="#f9c4a0" d="M 228.671875 462.515625 C 228.828125 464.234375 229.921875 465.792969 231.324219 466.574219 C 243.191406 472.816406 271.761719 470.945312 271.136719 466.730469 C 270.667969 464.078125 227.890625 449.71875 228.671875 462.515625 Z M 228.671875 462.515625 " fill-opacity="1" fill-rule="nonzero"/><path fill="#f9c4a0" d="M 266.140625 464.546875 L 265.671875 464.078125 L 267.078125 463.296875 L 269.574219 462.046875 C 270.199219 461.738281 270.824219 461.582031 271.605469 461.582031 L 274.570312 462.359375 C 274.570312 462.359375 275.039062 463.140625 273.320312 463.140625 C 272.855469 463.140625 272.230469 463.453125 271.761719 463.921875 L 273.476562 464.234375 L 277.691406 465.171875 C 278.785156 465.324219 279.878906 466.574219 279.722656 467.824219 C 279.722656 467.824219 279.253906 469.539062 277.226562 470.007812 L 274.414062 470.789062 C 272.855469 470.945312 271.761719 471.414062 270.355469 470.945312 L 266.453125 469.382812 Z M 266.140625 464.546875 " fill-opacity="1" fill-rule="nonzero"/><path fill="#ffffff" d="M 231.480469 484.054688 C 231.636719 487.488281 204.316406 487.332031 187.921875 485.457031 C 181.054688 484.679688 176.214844 483.429688 176.214844 482.179688 C 177.933594 457.054688 175.121094 438.640625 173.09375 425.0625 C 170.125 403.835938 169.1875 394.941406 191.359375 392.132812 L 208.21875 393.847656 C 223.207031 396.5 228.359375 404.304688 229.921875 416.320312 C 232.105469 432.085938 228.046875 455.335938 231.480469 484.054688 Z M 231.480469 484.054688 " fill-opacity="1" fill-rule="nonzero"/><path fill="#263156" d="M 216.050781 463.835938 L 268.976562 464.359375 L 268.949219 467.011719 L 216.023438 466.492188 Z M 216.050781 463.835938 " fill-opacity="1" fill-rule="nonzero"/><path fill="#263156" d="M 282.84375 467.042969 L 233.511719 466.574219 L 247.71875 433.175781 L 297.050781 433.644531 Z M 282.84375 467.042969 " fill-opacity="1" fill-rule="nonzero"/><path fill="#ffffff" d="M 284.09375 467.042969 L 234.917969 466.574219 L 249.125 433.175781 L 298.457031 433.644531 Z M 284.09375 467.042969 " fill-opacity="1" fill-rule="nonzero"/><path fill="#d4def9" d="M 269.507812 446.675781 C 269.851562 446.820312 270.140625 447.058594 270.375 447.394531 C 270.609375 447.730469 270.769531 448.136719 270.855469 448.617188 C 270.941406 449.097656 270.949219 449.609375 270.878906 450.160156 C 270.804688 450.710938 270.660156 451.253906 270.4375 451.789062 C 270.214844 452.324219 269.9375 452.8125 269.601562 453.25 C 269.265625 453.691406 268.898438 454.050781 268.496094 454.332031 C 268.097656 454.609375 267.695312 454.785156 267.292969 454.859375 C 266.890625 454.933594 266.515625 454.898438 266.171875 454.753906 C 265.828125 454.613281 265.539062 454.375 265.304688 454.039062 C 265.070312 453.703125 264.910156 453.292969 264.824219 452.816406 C 264.734375 452.335938 264.730469 451.820312 264.800781 451.273438 C 264.875 450.722656 265.019531 450.179688 265.242188 449.644531 C 265.464844 449.109375 265.742188 448.621094 266.078125 448.179688 C 266.414062 447.738281 266.78125 447.378906 267.183594 447.101562 C 267.582031 446.824219 267.984375 446.648438 268.386719 446.574219 C 268.789062 446.5 269.164062 446.535156 269.507812 446.675781 Z M 269.507812 446.675781 " fill-opacity="1" fill-rule="nonzero"/><path fill="#f9c4a0" d="M 208.375 389.164062 L 208.375 391.976562 L 208.21875 398.84375 C 207.4375 407.582031 193.699219 398.0625 192.140625 394.472656 C 191.046875 392.132812 192.609375 391.039062 192.761719 386.042969 C 192.761719 381.207031 192.761719 380.582031 192.761719 380.582031 C 176.214844 354.363281 203.847656 343.75 214.308594 362.324219 C 214.308594 368.410156 214.933594 374.339844 215.089844 379.023438 C 215.246094 386.199219 214.308594 390.570312 208.375 389.164062 Z M 208.375 389.164062 " fill-opacity="1" fill-rule="nonzero"/><path fill="#263156" d="M 218.054688 356.859375 C 218.210938 359.667969 217.117188 362.324219 214.621094 363.726562 C 212.121094 365.132812 209.3125 364.976562 206.8125 363.882812 C 204.160156 362.789062 201.507812 361.230469 198.695312 362.632812 C 194.792969 364.507812 197.757812 370.59375 197.757812 373.714844 C 197.136719 374.027344 196.199219 374.339844 195.574219 374.652344 C 195.261719 372.46875 194.480469 370.28125 193.074219 370.4375 C 191.046875 370.59375 193.230469 380.425781 192.761719 380.425781 C 192.609375 380.425781 190.109375 376.992188 188.546875 372.621094 C 188.234375 371.6875 187.925781 370.75 187.769531 369.8125 C 186.363281 363.726562 186.832031 354.207031 194.167969 352.179688 C 197.292969 351.398438 200.414062 350.617188 203.222656 349.214844 C 206.035156 347.808594 209 346.402344 212.121094 347.652344 C 215.558594 349.058594 217.898438 352.957031 218.054688 356.859375 Z M 218.054688 356.859375 " fill-opacity="1" fill-rule="nonzero"/><path fill="#f9c4a0" d="M 176.527344 400.402344 C 167.316406 406.957031 181.835938 466.261719 189.015625 462.984375 C 201.820312 463.453125 193.386719 392.910156 176.527344 400.402344 Z M 176.527344 400.402344 " fill-opacity="1" fill-rule="nonzero"/><path fill="#f9c4a0" d="M 195.105469 437.703125 L 197.292969 450.5 L 217.742188 445.972656 L 220.867188 455.960938 C 220.867188 455.960938 192.609375 469.695312 186.675781 463.921875 C 180.742188 458.148438 176.839844 439.886719 176.839844 439.886719 Z M 195.105469 437.703125 " fill-opacity="1" fill-rule="nonzero"/><path fill="#ffffff" d="M 189.953125 406.175781 L 196.042969 438.015625 L 175.589844 441.449219 C 175.589844 441.449219 169.96875 412.265625 170.75 405.085938 C 170.90625 403.679688 171.53125 402.121094 172.625 400.558594 C 172.625 400.558594 172.78125 400.402344 172.78125 400.402344 C 177.621094 393.535156 188.078125 397.90625 189.953125 406.175781 Z M 189.953125 406.175781 " fill-opacity="1" fill-rule="nonzero"/><path fill="#f9c4a0" d="M 186.519531 462.671875 C 187.300781 464.078125 188.859375 465.015625 190.578125 465.167969 C 203.535156 465.949219 248.65625 444.257812 245.84375 441.761719 C 244.59375 439.261719 180.742188 451.59375 186.519531 462.671875 Z M 186.519531 462.671875 " fill-opacity="1" fill-rule="nonzero"/><path fill="#f9c4a0" d="M 238.039062 442.226562 L 237.414062 442.070312 L 238.351562 440.824219 L 240.066406 438.792969 C 240.535156 438.328125 241.003906 437.859375 241.628906 437.546875 L 244.597656 437.078125 C 244.597656 437.078125 245.375 437.546875 243.816406 438.328125 C 243.347656 438.484375 243.035156 439.105469 242.722656 439.574219 L 244.441406 439.105469 L 248.1875 438.171875 C 249.28125 438.015625 250.371094 442.695312 248.8125 443.945312 L 248.03125 444.570312 C 246.78125 445.351562 245.84375 446.128906 244.441406 446.285156 L 240.378906 446.441406 Z M 238.039062 442.226562 " fill-opacity="1" fill-rule="nonzero"/><path fill="#263156" d="M 208.375 389.164062 L 208.375 389.320312 C 206.035156 388.386719 203.847656 387.449219 202.753906 386.355469 C 199.476562 383.546875 195.574219 374.652344 195.574219 374.652344 L 197.757812 373.714844 C 197.757812 373.714844 200.101562 380.113281 204.316406 379.957031 C 208.375 379.800781 212.589844 377.460938 214.933594 378.867188 C 215.246094 386.199219 214.308594 390.570312 208.375 389.164062 Z M 208.375 389.164062 " fill-opacity="1" fill-rule="nonzero"/><path fill="#f9c4a0" d="M 208.6875 383.234375 C 208.6875 383.078125 210.5625 381.832031 212.746094 381.988281 C 213.371094 381.988281 214.308594 382.921875 214.621094 383.546875 C 214.621094 383.546875 211.03125 385.886719 208.6875 383.234375 Z M 208.6875 383.234375 " fill-opacity="1" fill-rule="nonzero"/><path fill="#5385ea" d="M 614.914062 173.484375 C 614.914062 172.859375 615.070312 172.234375 615.070312 171.609375 C 615.070312 160.6875 606.171875 151.789062 595.242188 151.789062 C 586.34375 151.789062 578.851562 157.5625 576.351562 165.679688 C 575.882812 165.679688 575.414062 165.679688 574.949219 165.679688 C 571.355469 165.679688 568.234375 166.929688 565.734375 168.957031 C 562.925781 167.242188 559.492188 166.304688 555.902344 166.304688 C 546.378906 166.304688 538.570312 172.859375 536.542969 181.753906 C 535.292969 181.441406 534.042969 181.285156 532.792969 181.285156 C 524.675781 181.285156 518.121094 187.839844 518.121094 195.957031 C 518.121094 200.792969 520.460938 205.164062 524.050781 207.816406 L 570.109375 207.816406 C 570.265625 207.660156 570.421875 207.503906 570.421875 207.503906 C 570.574219 207.660156 570.730469 207.816406 571.042969 207.816406 L 627.871094 207.816406 C 631.777344 204.226562 634.273438 199.078125 634.273438 193.304688 C 634.273438 182.535156 625.6875 173.796875 614.914062 173.484375 Z M 614.914062 173.484375 " fill-opacity="1" fill-rule="nonzero"/><path fill="#263156" d="M 565.269531 183.785156 L 587.125 183.785156 L 587.125 214.839844 L 565.269531 214.839844 Z M 565.269531 183.785156 " fill-opacity="1" fill-rule="nonzero"/><path fill="#263156" d="M 576.195312 236.691406 L 557.929688 213.902344 L 594.460938 213.902344 Z M 576.195312 236.691406 " fill-opacity="1" fill-rule="nonzero"/><g clip-path="url(#f6a186df73)"><path fill="#d4def9" d="M 100.496094 309.574219 L 96.75 309.574219 C 96.125 306.605469 94.875 303.796875 93.46875 301.300781 L 96.28125 298.492188 C 97.21875 297.554688 97.21875 295.839844 96.28125 294.902344 L 90.191406 288.816406 C 89.253906 287.878906 87.539062 287.878906 86.601562 288.816406 L 83.949219 291.46875 C 81.449219 289.90625 78.640625 288.660156 75.671875 287.878906 L 75.671875 283.976562 C 75.671875 282.574219 74.578125 281.480469 73.175781 281.480469 L 64.433594 281.480469 C 63.027344 281.480469 61.933594 282.574219 61.933594 283.976562 L 61.933594 287.722656 C 58.96875 288.347656 56.15625 289.597656 53.660156 291 L 50.851562 288.191406 C 49.914062 287.253906 48.195312 287.253906 47.257812 288.191406 L 41.171875 294.277344 C 40.234375 295.214844 40.234375 296.929688 41.171875 297.867188 L 43.824219 300.519531 C 42.261719 303.019531 41.015625 305.828125 40.234375 308.792969 L 36.332031 308.792969 C 34.925781 308.792969 33.832031 309.882812 33.832031 311.289062 L 33.832031 320.027344 C 33.832031 321.433594 34.925781 322.527344 36.332031 322.527344 L 40.234375 322.527344 C 40.859375 325.492188 42.105469 328.300781 43.511719 330.796875 L 40.703125 333.605469 C 39.765625 334.542969 39.765625 336.257812 40.703125 337.195312 L 46.789062 343.28125 C 47.726562 344.21875 49.445312 344.21875 50.382812 343.28125 L 53.035156 340.628906 C 55.535156 342.191406 58.34375 343.4375 61.308594 344.21875 L 61.308594 348.121094 C 61.308594 349.523438 62.402344 350.617188 63.808594 350.617188 L 72.550781 350.617188 C 73.957031 350.617188 75.046875 349.523438 75.046875 348.121094 L 75.046875 344.375 C 78.015625 343.75 80.824219 342.503906 83.324219 341.097656 L 86.132812 343.90625 C 87.070312 344.84375 88.785156 344.84375 89.722656 343.90625 L 95.8125 337.820312 C 96.75 336.882812 96.75 335.167969 95.8125 334.230469 L 93.160156 331.578125 C 94.71875 329.082031 95.96875 326.269531 96.75 323.304688 L 100.652344 323.304688 C 102.058594 323.304688 103.148438 322.214844 103.148438 320.808594 L 103.148438 312.070312 C 102.992188 310.664062 101.902344 309.574219 100.496094 309.574219 Z M 68.179688 332.359375 C 59.28125 332.359375 51.941406 325.179688 51.941406 316.128906 C 51.941406 306.761719 59.75 299.429688 69.273438 300.050781 C 77.390625 300.519531 83.949219 307.074219 84.414062 315.191406 C 84.882812 324.554688 77.546875 332.359375 68.179688 332.359375 Z M 68.179688 332.359375 " fill-opacity="1" fill-rule="nonzero"/></g><path fill="#263156" d="M 196.042969 438.171875 L 191.046875 416.164062 L 191.359375 416.007812 L 196.355469 438.015625 Z M 196.042969 438.171875 " fill-opacity="1" fill-rule="nonzero"/><path fill="#ffffff" d="M 225.238281 516.828125 L 219.929688 494.976562 L 220.710938 494.824219 L 226.015625 516.671875 Z M 225.238281 516.828125 " fill-opacity="1" fill-rule="nonzero"/><g clip-path="url(#26daa43f2c)"><path fill="#263156" d="M 48.664062 675.703125 L 746.054688 675.703125 L 746.054688 682.726562 L 48.664062 682.726562 Z M 48.664062 675.703125 " fill-opacity="1" fill-rule="nonzero"/></g></svg>