<svg xmlns="http://www.w3.org/2000/svg" xmlns:xlink="http://www.w3.org/1999/xlink" width="1080" zoomAndPan="magnify" viewBox="0 0 810 809.999993" height="1080" preserveAspectRatio="xMidYMid meet" version="1.0"><defs><clipPath id="ec36c1776b"><path d="M 220.65625 359 L 544.65625 359 L 544.65625 637 L 220.65625 637 Z M 220.65625 359 " clip-rule="nonzero"/></clipPath><clipPath id="c87a66ec92"><path d="M 47.589844 281 L 651 281 L 651 688 L 47.589844 688 Z M 47.589844 281 " clip-rule="nonzero"/></clipPath><clipPath id="b17f9ade2c"><path d="M 445 121.753906 L 762.339844 121.753906 L 762.339844 495 L 445 495 Z M 445 121.753906 " clip-rule="nonzero"/></clipPath></defs><path fill="#80d4ff" d="M 238.011719 419.875 L 527.296875 419.875 C 534.1875 419.875 539.695312 425.382812 539.695312 432.269531 L 539.695312 619.300781 C 539.695312 626.1875 534.1875 631.695312 527.296875 631.695312 L 238.011719 631.695312 C 231.125 631.695312 225.613281 626.1875 225.613281 619.300781 L 225.613281 432.269531 C 225.613281 425.382812 231.125 419.875 238.011719 419.875 Z M 238.011719 419.875 " fill-opacity="1" fill-rule="nonzero"/><path fill="#6ebaff" d="M 535.839844 423.179688 L 391.746094 549.886719 C 386.511719 554.570312 378.796875 554.570312 373.5625 549.886719 L 229.472656 423.179688 C 231.675781 420.976562 234.707031 419.875 238.011719 419.875 L 527.296875 419.875 C 530.605469 419.875 533.636719 420.976562 535.839844 423.179688 Z M 535.839844 423.179688 " fill-opacity="1" fill-rule="nonzero"/><path fill="#eef4ff" d="M 438.03125 419.875 C 438.03125 421.6875 437.945312 423.496094 437.765625 425.300781 C 437.589844 427.105469 437.324219 428.898438 436.96875 430.675781 C 436.613281 432.453125 436.175781 434.210938 435.648438 435.945312 C 435.121094 437.679688 434.511719 439.386719 433.816406 441.0625 C 433.125 442.738281 432.347656 444.375 431.492188 445.972656 C 430.640625 447.574219 429.707031 449.125 428.699219 450.632812 C 427.691406 452.140625 426.613281 453.597656 425.460938 454.996094 C 424.3125 456.398438 423.09375 457.742188 421.8125 459.023438 C 420.53125 460.304688 419.1875 461.523438 417.785156 462.671875 C 416.382812 463.824219 414.929688 464.902344 413.421875 465.910156 C 411.914062 466.917969 410.359375 467.847656 408.761719 468.703125 C 407.160156 469.558594 405.523438 470.332031 403.847656 471.023438 C 402.171875 471.71875 400.464844 472.328125 398.730469 472.855469 C 396.996094 473.382812 395.238281 473.820312 393.457031 474.175781 C 391.679688 474.53125 389.886719 474.796875 388.082031 474.972656 C 386.277344 475.152344 384.46875 475.238281 382.65625 475.238281 C 380.839844 475.238281 379.03125 475.152344 377.226562 474.972656 C 375.421875 474.796875 373.628906 474.53125 371.851562 474.175781 C 370.074219 473.820312 368.316406 473.382812 366.578125 472.855469 C 364.84375 472.328125 363.140625 471.71875 361.464844 471.023438 C 359.789062 470.332031 358.148438 469.558594 356.550781 468.703125 C 354.949219 467.847656 353.398438 466.917969 351.890625 465.910156 C 350.382812 464.902344 348.925781 463.824219 347.523438 462.671875 C 346.121094 461.523438 344.78125 460.304688 343.496094 459.023438 C 342.214844 457.742188 341 456.398438 339.847656 454.996094 C 338.695312 453.597656 337.617188 452.140625 336.609375 450.632812 C 335.601562 449.125 334.671875 447.574219 333.816406 445.972656 C 332.960938 444.375 332.1875 442.738281 331.492188 441.0625 C 330.800781 439.386719 330.1875 437.679688 329.664062 435.945312 C 329.136719 434.210938 328.695312 432.453125 328.339844 430.675781 C 327.988281 428.898438 327.722656 427.105469 327.542969 425.300781 C 327.367188 423.496094 327.277344 421.6875 327.277344 419.875 C 327.277344 418.0625 327.367188 416.25 327.542969 414.445312 C 327.722656 412.640625 327.988281 410.851562 328.339844 409.074219 C 328.695312 407.292969 329.136719 405.539062 329.664062 403.800781 C 330.1875 402.066406 330.800781 400.363281 331.492188 398.6875 C 332.1875 397.011719 332.960938 395.375 333.816406 393.773438 C 334.671875 392.175781 335.601562 390.621094 336.609375 389.113281 C 337.617188 387.605469 338.695312 386.152344 339.847656 384.75 C 341 383.347656 342.214844 382.007812 343.496094 380.722656 C 344.78125 379.441406 346.121094 378.226562 347.523438 377.074219 C 348.925781 375.925781 350.382812 374.847656 351.890625 373.839844 C 353.398438 372.832031 354.949219 371.898438 356.550781 371.046875 C 358.148438 370.191406 359.789062 369.417969 361.464844 368.722656 C 363.140625 368.027344 364.84375 367.417969 366.578125 366.890625 C 368.316406 366.367188 370.074219 365.925781 371.851562 365.570312 C 373.628906 365.21875 375.421875 364.953125 377.226562 364.773438 C 379.03125 364.597656 380.839844 364.507812 382.65625 364.507812 C 384.46875 364.507812 386.277344 364.597656 388.082031 364.773438 C 389.886719 364.953125 391.679688 365.21875 393.457031 365.570312 C 395.238281 365.925781 396.996094 366.367188 398.730469 366.890625 C 400.464844 367.417969 402.171875 368.027344 403.847656 368.722656 C 405.523438 369.417969 407.160156 370.191406 408.761719 371.046875 C 410.359375 371.898438 411.914062 372.832031 413.421875 373.839844 C 414.929688 374.847656 416.382812 375.925781 417.785156 377.074219 C 419.1875 378.226562 420.53125 379.441406 421.8125 380.722656 C 423.09375 382.007812 424.3125 383.347656 425.460938 384.75 C 426.613281 386.152344 427.691406 387.605469 428.699219 389.113281 C 429.707031 390.621094 430.640625 392.175781 431.492188 393.773438 C 432.347656 395.375 433.125 397.011719 433.816406 398.6875 C 434.511719 400.363281 435.121094 402.066406 435.648438 403.800781 C 436.175781 405.539062 436.613281 407.292969 436.96875 409.074219 C 437.324219 410.851562 437.589844 412.640625 437.765625 414.445312 C 437.945312 416.25 438.03125 418.0625 438.03125 419.875 Z M 438.03125 419.875 " fill-opacity="1" fill-rule="nonzero"/><path fill="#000000" d="M 386.789062 386.820312 L 378.523438 386.820312 C 362.542969 386.820312 349.59375 399.765625 349.59375 415.742188 L 349.59375 424.003906 C 349.59375 439.980469 362.542969 452.929688 378.523438 452.929688 L 383.207031 452.929688 C 385.960938 452.929688 387.890625 450.722656 387.890625 447.96875 C 387.890625 445.214844 385.6875 443.011719 383.207031 443.011719 L 378.523438 443.011719 C 367.777344 443.011719 359.238281 434.472656 359.238281 423.730469 L 359.238281 415.464844 C 359.238281 404.722656 367.777344 396.183594 378.523438 396.183594 L 386.789062 396.183594 C 397.53125 396.183594 406.074219 404.722656 406.074219 415.464844 L 406.074219 430.066406 C 406.074219 431.441406 404.972656 432.542969 403.59375 432.542969 L 400.5625 432.542969 C 399.1875 432.542969 398.082031 431.441406 398.082031 430.066406 L 398.082031 416.570312 C 398.082031 409.683594 392.574219 404.171875 385.6875 404.171875 L 379.898438 404.171875 C 373.011719 404.171875 367.503906 409.683594 367.503906 416.570312 L 367.503906 422.351562 C 367.503906 429.238281 373.011719 434.75 379.898438 434.75 L 389.542969 434.75 C 391.472656 439.15625 395.605469 442.1875 400.5625 442.1875 L 403.59375 442.1875 C 410.207031 442.1875 415.714844 436.675781 415.714844 430.066406 L 415.714844 415.464844 C 415.714844 399.765625 402.765625 386.820312 386.789062 386.820312 Z M 377.144531 422.902344 L 377.144531 417.121094 C 377.144531 415.742188 378.246094 414.363281 379.898438 414.363281 L 385.6875 414.363281 C 387.0625 414.363281 388.441406 415.464844 388.441406 417.121094 L 388.441406 425.660156 L 379.898438 425.660156 C 378.246094 425.660156 377.144531 424.28125 377.144531 422.902344 Z M 377.144531 422.902344 " fill-opacity="1" fill-rule="nonzero"/><path fill="#000000" d="M 447.125 626.738281 L 434.726562 626.738281 C 431.972656 626.738281 429.765625 628.941406 429.765625 631.695312 C 429.765625 634.453125 431.972656 636.65625 434.726562 636.65625 L 447.125 636.65625 C 449.878906 636.65625 452.082031 634.453125 452.082031 631.695312 C 452.082031 628.941406 449.878906 626.738281 447.125 626.738281 Z M 447.125 626.738281 " fill-opacity="1" fill-rule="nonzero"/><g clip-path="url(#ec36c1776b)"><path fill="#000000" d="M 527.296875 415.191406 L 442.441406 415.191406 C 439.6875 382.136719 410.757812 357.347656 377.695312 360.101562 C 362.820312 361.203125 348.765625 368.089844 338.574219 379.105469 C 336.644531 381.035156 336.921875 384.066406 338.847656 385.992188 C 340.777344 387.921875 343.808594 387.644531 345.738281 385.71875 C 355.378906 375.527344 368.605469 369.742188 382.65625 369.742188 C 410.480469 369.742188 433.074219 392.328125 433.074219 420.148438 C 433.074219 447.96875 410.480469 470.28125 382.65625 470.28125 C 354.828125 470.28125 332.238281 447.695312 332.238281 419.875 C 332.238281 414.914062 333.0625 409.957031 334.441406 405.273438 C 335.265625 402.796875 333.890625 400.042969 331.136719 399.214844 C 328.65625 398.386719 325.898438 399.765625 325.074219 402.519531 C 323.695312 406.652344 323.144531 411.058594 322.59375 415.191406 L 238.011719 415.191406 C 228.644531 415.191406 220.929688 422.902344 220.65625 432.269531 L 220.65625 619.300781 C 220.65625 628.941406 228.371094 636.378906 238.011719 636.65625 L 408.003906 636.65625 C 410.757812 636.65625 412.960938 634.453125 412.960938 631.695312 C 412.960938 628.941406 410.757812 626.738281 408.003906 626.738281 L 238.289062 626.738281 L 345.738281 532.257812 L 370.257812 553.742188 C 377.421875 559.804688 387.890625 559.804688 394.777344 553.742188 L 419.296875 532.257812 L 526.746094 627.015625 L 472.472656 627.015625 C 469.714844 627.015625 467.511719 629.21875 467.511719 631.972656 C 467.511719 634.726562 469.714844 636.929688 472.472656 636.929688 L 527.296875 636.929688 C 536.941406 636.929688 544.378906 629.21875 544.65625 619.578125 L 544.65625 432.269531 C 544.378906 422.902344 536.664062 415.191406 527.296875 415.191406 Z M 230.574219 620.679688 C 230.574219 620.128906 230.296875 619.578125 230.296875 619.027344 L 230.296875 432.269531 C 230.296875 431.71875 230.296875 431.167969 230.574219 430.617188 L 338.574219 525.648438 Z M 388.441406 546.304688 C 385.136719 549.335938 379.898438 549.335938 376.59375 546.304688 L 238.289062 424.832031 L 322.59375 424.832031 C 325.347656 457.886719 354.277344 482.675781 387.339844 479.921875 C 416.820312 477.445312 439.960938 454.304688 442.441406 424.832031 L 526.746094 424.832031 Z M 534.738281 430.617188 C 534.738281 431.167969 535.011719 431.71875 535.011719 432.269531 L 535.011719 619.300781 C 535.011719 619.851562 535.011719 620.402344 534.738281 620.953125 L 426.738281 525.648438 Z M 534.738281 430.617188 " fill-opacity="1" fill-rule="nonzero"/></g><g clip-path="url(#c87a66ec92)"><path fill="#a3abff" d="M 70.660156 281.898438 L 627.308594 281.898438 C 628.0625 281.902344 628.8125 281.945312 629.566406 282.023438 C 630.316406 282.101562 631.058594 282.21875 631.800781 282.367188 C 632.539062 282.519531 633.269531 282.707031 633.992188 282.929688 C 634.710938 283.148438 635.421875 283.40625 636.117188 283.699219 C 636.8125 283.988281 637.492188 284.316406 638.15625 284.671875 C 638.820312 285.03125 639.464844 285.417969 640.09375 285.839844 C 640.71875 286.261719 641.324219 286.710938 641.90625 287.191406 C 642.488281 287.671875 643.046875 288.179688 643.578125 288.714844 C 644.109375 289.246094 644.617188 289.804688 645.09375 290.390625 C 645.574219 290.972656 646.019531 291.578125 646.441406 292.207031 C 646.859375 292.835938 647.246094 293.480469 647.601562 294.144531 C 647.957031 294.8125 648.28125 295.492188 648.570312 296.1875 C 648.859375 296.886719 649.113281 297.59375 649.332031 298.316406 C 649.554688 299.039062 649.738281 299.769531 649.886719 300.507812 C 650.035156 301.246094 650.148438 301.992188 650.222656 302.742188 C 650.300781 303.492188 650.339844 304.246094 650.339844 305 L 650.339844 664.820312 C 650.339844 665.574219 650.300781 666.324219 650.226562 667.074219 C 650.148438 667.828125 650.039062 668.570312 649.890625 669.3125 C 649.742188 670.050781 649.558594 670.78125 649.335938 671.5 C 649.117188 672.222656 648.863281 672.933594 648.574219 673.628906 C 648.285156 674.324219 647.960938 675.003906 647.605469 675.671875 C 647.25 676.335938 646.863281 676.980469 646.445312 677.609375 C 646.023438 678.234375 645.578125 678.839844 645.097656 679.421875 C 644.621094 680.007812 644.113281 680.566406 643.582031 681.097656 C 643.046875 681.632812 642.492188 682.136719 641.90625 682.617188 C 641.324219 683.097656 640.71875 683.546875 640.09375 683.964844 C 639.46875 684.386719 638.820312 684.773438 638.15625 685.128906 C 637.492188 685.488281 636.8125 685.8125 636.117188 686.101562 C 635.417969 686.390625 634.710938 686.648438 633.988281 686.867188 C 633.269531 687.089844 632.539062 687.273438 631.800781 687.421875 C 631.058594 687.574219 630.316406 687.683594 629.5625 687.761719 C 628.8125 687.839844 628.0625 687.878906 627.308594 687.878906 L 70.660156 687.878906 C 69.902344 687.878906 69.152344 687.839844 68.398438 687.765625 C 67.648438 687.6875 66.902344 687.578125 66.164062 687.425781 C 65.421875 687.277344 64.691406 687.09375 63.96875 686.875 C 63.246094 686.652344 62.539062 686.398438 61.839844 686.109375 C 61.144531 685.820312 60.460938 685.496094 59.796875 685.140625 C 59.132812 684.785156 58.484375 684.394531 57.855469 683.976562 C 57.230469 683.554688 56.625 683.105469 56.039062 682.628906 C 55.457031 682.148438 54.898438 681.640625 54.363281 681.109375 C 53.832031 680.574219 53.324219 680.015625 52.84375 679.433594 C 52.367188 678.851562 51.917969 678.246094 51.496094 677.617188 C 51.078125 676.992188 50.6875 676.34375 50.332031 675.679688 C 49.976562 675.011719 49.652344 674.332031 49.363281 673.636719 C 49.074219 672.9375 48.816406 672.230469 48.597656 671.507812 C 48.375 670.785156 48.191406 670.054688 48.042969 669.316406 C 47.894531 668.574219 47.78125 667.828125 47.707031 667.078125 C 47.632812 666.328125 47.59375 665.574219 47.589844 664.820312 L 47.589844 305 C 47.59375 304.246094 47.632812 303.492188 47.707031 302.742188 C 47.785156 301.992188 47.898438 301.246094 48.046875 300.503906 C 48.195312 299.765625 48.378906 299.035156 48.601562 298.3125 C 48.820312 297.589844 49.078125 296.878906 49.367188 296.183594 C 49.65625 295.484375 49.980469 294.804688 50.335938 294.136719 C 50.691406 293.472656 51.082031 292.824219 51.5 292.199219 C 51.921875 291.570312 52.371094 290.964844 52.847656 290.378906 C 53.328125 289.796875 53.835938 289.238281 54.367188 288.703125 C 54.902344 288.167969 55.460938 287.660156 56.042969 287.183594 C 56.625 286.703125 57.230469 286.253906 57.859375 285.832031 C 58.484375 285.410156 59.132812 285.019531 59.796875 284.664062 C 60.460938 284.304688 61.144531 283.980469 61.839844 283.691406 C 62.539062 283.398438 63.246094 283.144531 63.96875 282.921875 C 64.691406 282.699219 65.421875 282.515625 66.160156 282.363281 C 66.902344 282.214844 67.648438 282.097656 68.398438 282.023438 C 69.152344 281.945312 69.902344 281.902344 70.660156 281.898438 Z M 70.660156 281.898438 " fill-opacity="1" fill-rule="evenodd"/></g><path fill="#737ce9" d="M 53.246094 680.148438 L 348.941406 407.488281 L 644.71875 680.148438 L 642.402344 682.585938 C 640.480469 684.285156 638.324219 685.589844 635.925781 686.5 C 633.53125 687.410156 631.050781 687.867188 628.488281 687.875 L 69.398438 687.875 C 66.847656 687.867188 64.378906 687.410156 61.996094 686.5 C 59.613281 685.585938 57.46875 684.285156 55.5625 682.585938 Z M 53.246094 680.148438 " fill-opacity="1" fill-rule="evenodd"/><path fill="#4e57bd" d="M 53.246094 289.585938 L 303.417969 529.222656 C 304.9375 530.65625 306.527344 532.019531 308.179688 533.304688 C 309.832031 534.59375 311.539062 535.796875 313.304688 536.921875 C 315.070312 538.046875 316.886719 539.085938 318.75 540.039062 C 320.617188 540.992188 322.519531 541.855469 324.46875 542.628906 C 326.414062 543.402344 328.390625 544.082031 330.402344 544.667969 C 332.414062 545.253906 334.445312 545.742188 336.503906 546.136719 C 338.558594 546.53125 340.628906 546.824219 342.714844 547.023438 C 344.800781 547.222656 346.890625 547.320312 348.984375 547.320312 C 351.078125 547.320312 353.167969 547.222656 355.25 547.023438 C 357.335938 546.824219 359.40625 546.53125 361.464844 546.136719 C 363.519531 545.742188 365.554688 545.253906 367.5625 544.667969 C 369.574219 544.082031 371.554688 543.402344 373.5 542.628906 C 375.445312 541.855469 377.351562 540.992188 379.214844 540.039062 C 381.078125 539.085938 382.894531 538.046875 384.660156 536.921875 C 386.425781 535.796875 388.136719 534.59375 389.789062 533.304688 C 391.4375 532.019531 393.027344 530.65625 394.550781 529.222656 L 644.71875 289.585938 L 644.71875 289.546875 L 643.175781 287.917969 C 641.210938 286.011719 638.964844 284.539062 636.433594 283.496094 C 633.898438 282.457031 631.265625 281.925781 628.527344 281.898438 L 69.398438 281.898438 C 66.660156 281.941406 64.023438 282.484375 61.496094 283.53125 C 58.964844 284.578125 56.714844 286.054688 54.75 287.960938 L 53.246094 289.546875 Z M 53.246094 289.585938 " fill-opacity="1" fill-rule="evenodd"/><g clip-path="url(#b17f9ade2c)"><path fill="#737ce9" d="M 603.792969 494.164062 C 723.851562 434.171875 758.429688 327.328125 762.339844 200.839844 C 747.992188 196.921875 733.871094 192.308594 719.976562 187.003906 C 706.082031 181.699219 692.480469 175.726562 679.171875 169.089844 C 665.863281 162.449219 652.914062 155.171875 640.320312 147.261719 C 627.726562 139.351562 615.550781 130.839844 603.792969 121.734375 C 592.027344 130.839844 579.847656 139.347656 567.25 147.257812 C 554.652344 155.167969 541.699219 162.441406 528.390625 169.082031 C 515.078125 175.722656 501.472656 181.695312 487.578125 187 C 473.679688 192.304688 459.554688 196.921875 445.207031 200.839844 C 449.113281 327.328125 483.695312 434.175781 603.792969 494.164062 Z M 603.792969 494.164062 " fill-opacity="1" fill-rule="evenodd"/></g><path fill="#a3abff" d="M 570.023438 295.851562 C 570.023438 296.511719 569.960938 297.164062 569.832031 297.8125 C 569.703125 298.457031 569.511719 299.085938 569.257812 299.695312 C 569.007812 300.304688 568.695312 300.882812 568.328125 301.433594 C 567.964844 301.980469 567.546875 302.488281 567.078125 302.957031 C 566.613281 303.421875 566.105469 303.839844 565.554688 304.203125 C 565.007812 304.570312 564.429688 304.882812 563.820312 305.132812 C 563.210938 305.386719 562.582031 305.578125 561.933594 305.707031 C 561.285156 305.832031 560.632812 305.898438 559.972656 305.898438 C 559.3125 305.898438 558.660156 305.832031 558.011719 305.707031 C 557.363281 305.578125 556.734375 305.386719 556.125 305.132812 C 555.515625 304.882812 554.9375 304.570312 554.386719 304.203125 C 553.839844 303.839844 553.332031 303.421875 552.863281 302.957031 C 552.398438 302.488281 551.980469 301.980469 551.613281 301.433594 C 551.25 300.882812 550.9375 300.304688 550.6875 299.695312 C 550.433594 299.085938 550.242188 298.457031 550.113281 297.8125 C 549.984375 297.164062 549.921875 296.511719 549.921875 295.851562 L 549.921875 248.875 C 549.921875 247.109375 550.007812 245.351562 550.179688 243.597656 C 550.351562 241.84375 550.613281 240.101562 550.957031 238.371094 C 551.300781 236.644531 551.726562 234.933594 552.238281 233.25 C 552.75 231.5625 553.34375 229.902344 554.019531 228.273438 C 554.695312 226.644531 555.449219 225.054688 556.28125 223.5 C 557.109375 221.945312 558.015625 220.433594 558.996094 218.96875 C 559.976562 217.503906 561.023438 216.089844 562.144531 214.726562 C 563.261719 213.363281 564.445312 212.058594 565.691406 210.8125 C 566.941406 209.566406 568.246094 208.382812 569.609375 207.265625 C 570.972656 206.144531 572.386719 205.097656 573.851562 204.117188 C 575.320312 203.136719 576.828125 202.234375 578.382812 201.402344 C 579.941406 200.570312 581.53125 199.816406 583.160156 199.144531 C 584.789062 198.46875 586.449219 197.875 588.136719 197.363281 C 589.824219 196.851562 591.53125 196.421875 593.261719 196.078125 C 594.992188 195.734375 596.734375 195.476562 598.488281 195.304688 C 600.246094 195.132812 602.003906 195.046875 603.769531 195.046875 C 605.53125 195.046875 607.289062 195.132812 609.046875 195.304688 C 610.800781 195.476562 612.542969 195.734375 614.273438 196.078125 C 616.003906 196.421875 617.710938 196.851562 619.398438 197.363281 C 621.085938 197.875 622.746094 198.46875 624.375 199.144531 C 626.003906 199.816406 627.59375 200.570312 629.152344 201.402344 C 630.707031 202.234375 632.214844 203.136719 633.683594 204.117188 C 635.148438 205.097656 636.5625 206.144531 637.925781 207.265625 C 639.289062 208.382812 640.597656 209.566406 641.84375 210.8125 C 643.089844 212.058594 644.273438 213.363281 645.390625 214.726562 C 646.511719 216.089844 647.558594 217.503906 648.539062 218.96875 C 649.519531 220.433594 650.425781 221.945312 651.257812 223.5 C 652.085938 225.054688 652.839844 226.644531 653.515625 228.273438 C 654.191406 229.902344 654.785156 231.5625 655.296875 233.25 C 655.808594 234.933594 656.234375 236.644531 656.578125 238.371094 C 656.921875 240.101562 657.183594 241.84375 657.355469 243.597656 C 657.527344 245.351562 657.613281 247.109375 657.613281 248.875 L 657.613281 295.851562 C 657.613281 296.511719 657.550781 297.164062 657.421875 297.8125 C 657.292969 298.457031 657.101562 299.085938 656.847656 299.695312 C 656.597656 300.304688 656.285156 300.882812 655.921875 301.433594 C 655.554688 301.980469 655.136719 302.488281 654.671875 302.957031 C 654.203125 303.421875 653.695312 303.839844 653.148438 304.203125 C 652.597656 304.570312 652.019531 304.882812 651.410156 305.132812 C 650.800781 305.386719 650.171875 305.578125 649.523438 305.707031 C 648.875 305.832031 648.222656 305.898438 647.5625 305.898438 C 646.902344 305.898438 646.25 305.832031 645.601562 305.707031 C 644.953125 305.578125 644.328125 305.386719 643.714844 305.132812 C 643.105469 304.882812 642.527344 304.570312 641.980469 304.203125 C 641.429688 303.839844 640.921875 303.421875 640.457031 302.957031 C 639.988281 302.488281 639.574219 301.980469 639.207031 301.433594 C 638.839844 300.882812 638.53125 300.304688 638.277344 299.695312 C 638.023438 299.085938 637.832031 298.457031 637.703125 297.8125 C 637.574219 297.164062 637.511719 296.511719 637.511719 295.851562 L 637.511719 248.875 C 637.511719 247.769531 637.457031 246.667969 637.347656 245.566406 C 637.242188 244.46875 637.078125 243.375 636.863281 242.292969 C 636.648438 241.207031 636.378906 240.136719 636.058594 239.082031 C 635.738281 238.023438 635.367188 236.984375 634.941406 235.964844 C 634.519531 234.941406 634.046875 233.945312 633.527344 232.96875 C 633.003906 231.996094 632.4375 231.050781 631.824219 230.128906 C 631.210938 229.210938 630.550781 228.324219 629.851562 227.472656 C 629.148438 226.617188 628.410156 225.800781 627.628906 225.019531 C 626.84375 224.238281 626.027344 223.496094 625.171875 222.792969 C 624.320312 222.09375 623.433594 221.4375 622.511719 220.824219 C 621.59375 220.207031 620.648438 219.640625 619.671875 219.121094 C 618.699219 218.601562 617.699219 218.128906 616.679688 217.703125 C 615.65625 217.28125 614.617188 216.910156 613.558594 216.589844 C 612.503906 216.269531 611.429688 216 610.347656 215.785156 C 609.261719 215.570312 608.171875 215.40625 607.070312 215.300781 C 605.972656 215.191406 604.867188 215.136719 603.761719 215.136719 C 602.660156 215.136719 601.554688 215.191406 600.457031 215.300781 C 599.355469 215.40625 598.265625 215.570312 597.179688 215.785156 C 596.09375 216 595.023438 216.269531 593.96875 216.589844 C 592.910156 216.910156 591.871094 217.28125 590.847656 217.703125 C 589.828125 218.128906 588.828125 218.601562 587.855469 219.121094 C 586.878906 219.640625 585.933594 220.207031 585.015625 220.824219 C 584.09375 221.4375 583.207031 222.09375 582.355469 222.792969 C 581.5 223.496094 580.679688 224.238281 579.898438 225.019531 C 579.117188 225.800781 578.378906 226.617188 577.675781 227.472656 C 576.976562 228.324219 576.316406 229.210938 575.703125 230.128906 C 575.089844 231.050781 574.519531 231.996094 574 232.96875 C 573.480469 233.945312 573.007812 234.941406 572.585938 235.964844 C 572.160156 236.984375 571.789062 238.023438 571.46875 239.082031 C 571.148438 240.136719 570.878906 241.207031 570.664062 242.292969 C 570.449219 243.375 570.285156 244.46875 570.179688 245.566406 C 570.070312 246.667969 570.015625 247.769531 570.015625 248.875 Z M 570.023438 295.851562 " fill-opacity="1" fill-rule="nonzero"/><path fill="#3b368a" d="M 545.570312 281.777344 L 661.96875 281.777344 C 662.449219 281.78125 662.925781 281.832031 663.398438 281.929688 C 663.871094 282.027344 664.328125 282.167969 664.769531 282.355469 C 665.214844 282.539062 665.636719 282.769531 666.035156 283.039062 C 666.4375 283.304688 666.804688 283.613281 667.144531 283.953125 C 667.484375 284.292969 667.789062 284.664062 668.054688 285.066406 C 668.320312 285.464844 668.546875 285.890625 668.730469 286.332031 C 668.914062 286.777344 669.054688 287.238281 669.148438 287.710938 C 669.242188 288.179688 669.289062 288.65625 669.292969 289.140625 L 669.292969 378.414062 C 669.289062 378.894531 669.242188 379.367188 669.148438 379.839844 C 669.050781 380.308594 668.914062 380.765625 668.726562 381.210938 C 668.542969 381.65625 668.316406 382.074219 668.050781 382.476562 C 667.785156 382.875 667.480469 383.242188 667.140625 383.582031 C 666.800781 383.921875 666.429688 384.226562 666.03125 384.492188 C 665.632812 384.757812 665.210938 384.984375 664.765625 385.167969 C 664.324219 385.355469 663.867188 385.492188 663.394531 385.589844 C 662.925781 385.683594 662.449219 385.730469 661.96875 385.734375 L 545.570312 385.734375 C 545.089844 385.730469 544.617188 385.683594 544.144531 385.589844 C 543.671875 385.492188 543.214844 385.355469 542.773438 385.167969 C 542.328125 384.984375 541.90625 384.757812 541.507812 384.492188 C 541.109375 384.226562 540.738281 383.921875 540.398438 383.582031 C 540.058594 383.242188 539.757812 382.875 539.488281 382.476562 C 539.222656 382.074219 538.996094 381.65625 538.8125 381.210938 C 538.625 380.765625 538.488281 380.308594 538.390625 379.839844 C 538.296875 379.367188 538.25 378.894531 538.246094 378.414062 L 538.246094 289.140625 C 538.25 288.660156 538.300781 288.183594 538.394531 287.710938 C 538.492188 287.238281 538.632812 286.78125 538.816406 286.339844 C 539 285.894531 539.226562 285.472656 539.492188 285.070312 C 539.761719 284.671875 540.0625 284.300781 540.402344 283.960938 C 540.742188 283.621094 541.109375 283.3125 541.507812 283.046875 C 541.90625 282.777344 542.328125 282.546875 542.773438 282.359375 C 543.214844 282.171875 543.671875 282.03125 544.144531 281.933594 C 544.613281 281.835938 545.089844 281.785156 545.570312 281.777344 Z M 545.570312 281.777344 " fill-opacity="1" fill-rule="evenodd"/><path fill="#a3abff" d="M 593.742188 322.285156 C 593.742188 321.628906 593.808594 320.976562 593.9375 320.332031 C 594.0625 319.683594 594.253906 319.058594 594.507812 318.449219 C 594.757812 317.839844 595.066406 317.261719 595.433594 316.714844 C 595.800781 316.167969 596.214844 315.664062 596.679688 315.195312 C 597.144531 314.730469 597.652344 314.316406 598.199219 313.949219 C 598.746094 313.585938 599.324219 313.277344 599.933594 313.023438 C 600.542969 312.773438 601.167969 312.582031 601.816406 312.453125 C 602.460938 312.324219 603.113281 312.261719 603.773438 312.261719 C 604.429688 312.261719 605.082031 312.324219 605.726562 312.453125 C 606.375 312.582031 607 312.773438 607.609375 313.023438 C 608.21875 313.277344 608.796875 313.585938 609.34375 313.949219 C 609.890625 314.316406 610.398438 314.730469 610.863281 315.195312 C 611.328125 315.664062 611.746094 316.167969 612.109375 316.714844 C 612.476562 317.261719 612.785156 317.839844 613.039062 318.449219 C 613.289062 319.058594 613.480469 319.683594 613.609375 320.332031 C 613.738281 320.976562 613.800781 321.628906 613.800781 322.285156 L 613.800781 345.21875 C 613.800781 345.878906 613.738281 346.527344 613.609375 347.175781 C 613.480469 347.820312 613.289062 348.445312 613.039062 349.054688 C 612.785156 349.664062 612.476562 350.242188 612.109375 350.789062 C 611.746094 351.335938 611.328125 351.84375 610.863281 352.308594 C 610.398438 352.773438 609.890625 353.1875 609.34375 353.554688 C 608.796875 353.921875 608.21875 354.230469 607.609375 354.480469 C 607 354.734375 606.375 354.921875 605.726562 355.050781 C 605.082031 355.179688 604.429688 355.246094 603.773438 355.246094 C 603.113281 355.246094 602.460938 355.179688 601.816406 355.050781 C 601.167969 354.921875 600.542969 354.734375 599.933594 354.480469 C 599.324219 354.230469 598.746094 353.921875 598.199219 353.554688 C 597.652344 353.1875 597.144531 352.773438 596.679688 352.308594 C 596.214844 351.84375 595.800781 351.335938 595.433594 350.789062 C 595.066406 350.242188 594.757812 349.664062 594.507812 349.054688 C 594.253906 348.445312 594.0625 347.820312 593.9375 347.175781 C 593.808594 346.527344 593.742188 345.878906 593.742188 345.21875 Z M 593.742188 322.285156 " fill-opacity="1" fill-rule="nonzero"/></svg>