<svg xmlns="http://www.w3.org/2000/svg" xmlns:xlink="http://www.w3.org/1999/xlink" width="1080" zoomAndPan="magnify" viewBox="0 0 810 809.999993" height="1080" preserveAspectRatio="xMidYMid meet" version="1.0"><defs><clipPath id="484fc486ab"><path d="M 102 73 L 707.96875 73 L 707.96875 649 L 102 649 Z M 102 73 " clip-rule="nonzero"/></clipPath></defs><path fill="#ffffff" d="M 405 708.777344 C 380.910156 708.777344 359.214844 694.539062 349.5 672.445312 L 321.816406 684.554688 C 336.324219 717.5625 368.929688 738.988281 405 738.988281 C 441.597656 738.988281 474.339844 717.296875 488.582031 683.625 L 460.765625 671.777344 C 451.179688 694.269531 429.355469 708.777344 405 708.777344 Z M 405 708.777344 " fill-opacity="1" fill-rule="nonzero"/><g clip-path="url(#484fc486ab)"><path fill="#ffffff" d="M 702.0625 606.429688 L 622.207031 539.882812 C 618.746094 536.957031 616.75 532.828125 616.75 528.304688 L 616.75 345.703125 C 616.75 287.273438 593.457031 232.839844 551.132812 192.511719 C 526.246094 168.820312 496.699219 152.050781 464.757812 142.734375 C 465.421875 138.078125 465.6875 133.417969 465.289062 128.492188 C 463.027344 102.675781 443.996094 80.714844 418.972656 75.125 C 400.605469 71 381.707031 75.257812 367.199219 86.835938 C 352.824219 98.414062 344.574219 115.585938 344.574219 134.085938 C 344.574219 137.144531 345.105469 139.941406 345.507812 142.867188 C 257.132812 169.21875 193.246094 252.535156 193.246094 351.292969 L 193.246094 528.171875 C 193.246094 532.695312 191.25 536.957031 187.792969 539.75 L 107.9375 606.296875 C 104.476562 609.226562 102.480469 613.484375 102.480469 617.875 L 102.480469 633.046875 C 102.480469 641.433594 109.265625 648.222656 117.652344 648.222656 L 692.34375 648.222656 C 700.730469 648.222656 707.519531 641.433594 707.519531 633.046875 L 707.519531 617.875 C 707.386719 613.484375 705.386719 609.226562 702.0625 606.429688 Z M 374.652344 134.085938 C 374.652344 124.765625 378.777344 116.25 385.964844 110.394531 C 393.285156 104.539062 402.46875 102.40625 412.183594 104.539062 C 424.296875 107.332031 433.878906 118.378906 435.078125 131.023438 C 435.210938 132.753906 434.945312 134.484375 434.8125 136.214844 C 421.636719 134.351562 408.324219 133.683594 394.617188 134.21875 C 387.960938 134.484375 381.308594 135.148438 374.785156 136.214844 C 374.917969 135.414062 374.652344 134.75 374.652344 134.085938 Z M 141.207031 618.007812 L 207.089844 563.042969 C 217.472656 554.390625 223.460938 541.746094 223.460938 528.171875 L 223.460938 351.292969 C 223.460938 251.074219 299.324219 168.953125 396.214844 164.429688 C 446.523438 162.035156 494.039062 179.867188 530.238281 214.339844 C 566.441406 248.941406 586.402344 295.527344 586.402344 345.703125 L 586.402344 528.171875 C 586.402344 541.613281 592.394531 554.390625 602.773438 563.042969 L 668.65625 618.007812 Z M 141.207031 618.007812 " fill-opacity="1" fill-rule="nonzero"/></g></svg>