<svg xmlns="http://www.w3.org/2000/svg" xmlns:xlink="http://www.w3.org/1999/xlink" width="1080" zoomAndPan="magnify" viewBox="0 0 810 809.999993" height="1080" preserveAspectRatio="xMidYMid meet" version="1.0"><defs><clipPath id="3a22366638"><path d="M 327 652 L 483 652 L 483 714.75 L 327 714.75 Z M 327 652 " clip-rule="nonzero"/></clipPath><clipPath id="53cdc47b50"><path d="M 124 97 L 685.722656 97 L 685.722656 631 L 124 631 Z M 124 97 " clip-rule="nonzero"/></clipPath></defs><g clip-path="url(#3a22366638)"><path fill="#180838" d="M 404.996094 686.722656 C 382.65625 686.722656 362.535156 673.515625 353.527344 653.027344 L 327.851562 664.257812 C 341.304688 694.867188 371.546875 714.738281 404.996094 714.738281 C 438.9375 714.738281 469.300781 694.621094 482.507812 663.394531 L 456.710938 652.410156 C 447.824219 673.269531 427.582031 686.722656 404.996094 686.722656 Z M 404.996094 686.722656 " fill-opacity="1" fill-rule="nonzero"/></g><g clip-path="url(#53cdc47b50)"><path fill="#180838" d="M 680.488281 591.804688 L 606.429688 530.089844 C 603.222656 527.375 601.371094 523.550781 601.371094 519.351562 L 601.371094 350.007812 C 601.371094 295.824219 579.769531 245.339844 540.519531 207.941406 C 517.4375 185.972656 490.039062 170.417969 460.414062 161.78125 C 461.03125 157.460938 461.277344 153.140625 460.910156 148.574219 C 458.808594 124.628906 441.160156 104.261719 417.957031 99.078125 C 400.921875 95.25 383.394531 99.203125 369.941406 109.941406 C 356.609375 120.679688 348.957031 136.601562 348.957031 153.757812 C 348.957031 156.59375 349.453125 159.1875 349.824219 161.902344 C 267.867188 186.34375 208.621094 263.609375 208.621094 355.191406 L 208.621094 519.230469 C 208.621094 523.425781 206.769531 527.375 203.558594 529.96875 L 129.503906 591.679688 C 126.292969 594.398438 124.441406 598.347656 124.441406 602.417969 L 124.441406 616.492188 C 124.441406 624.265625 130.738281 630.5625 138.511719 630.5625 L 671.476562 630.5625 C 679.253906 630.5625 685.546875 624.265625 685.546875 616.492188 L 685.546875 602.417969 C 685.425781 598.347656 683.574219 594.398438 680.488281 591.804688 Z M 376.851562 153.757812 C 376.851562 145.117188 380.679688 137.21875 387.34375 131.785156 C 394.132812 126.355469 402.648438 124.378906 411.660156 126.355469 C 422.890625 128.949219 431.777344 139.191406 432.890625 150.917969 C 433.011719 152.523438 432.765625 154.128906 432.644531 155.730469 C 420.421875 154.003906 408.082031 153.386719 395.367188 153.878906 C 389.195312 154.128906 383.023438 154.746094 376.976562 155.730469 C 377.101562 154.992188 376.851562 154.375 376.851562 153.757812 Z M 160.359375 602.542969 L 221.457031 551.566406 C 231.085938 543.542969 236.636719 531.820312 236.636719 519.230469 L 236.636719 355.191406 C 236.636719 262.25 306.992188 186.09375 396.847656 181.898438 C 443.503906 179.675781 487.570312 196.214844 521.140625 228.183594 C 554.714844 260.277344 573.226562 303.476562 573.226562 350.007812 L 573.226562 519.230469 C 573.226562 531.695312 578.78125 543.542969 588.410156 551.566406 L 649.507812 602.542969 Z M 160.359375 602.542969 " fill-opacity="1" fill-rule="nonzero"/></g></svg>