<svg xmlns="http://www.w3.org/2000/svg" xmlns:xlink="http://www.w3.org/1999/xlink" width="1080" zoomAndPan="magnify" viewBox="0 0 810 809.999993" height="1080" preserveAspectRatio="xMidYMid meet" version="1.0"><defs><clipPath id="8e8646c65b"><path d="M 395 195.515625 L 403 195.515625 L 403 201 L 395 201 Z M 395 195.515625 " clip-rule="nonzero"/></clipPath><clipPath id="65378f7346"><path d="M 381.257812 202 L 403 202 L 403 227 L 381.257812 227 Z M 381.257812 202 " clip-rule="nonzero"/></clipPath><clipPath id="208acaf54e"><path d="M 389 195.515625 L 395 195.515625 L 395 201 L 389 201 Z M 389 195.515625 " clip-rule="nonzero"/></clipPath><clipPath id="99e1800fb5"><path d="M 381.257812 195.515625 L 389 195.515625 L 389 201 L 381.257812 201 Z M 381.257812 195.515625 " clip-rule="nonzero"/></clipPath><clipPath id="d42889d0a3"><path d="M 381.257812 211 L 400 211 L 400 237 L 381.257812 237 Z M 381.257812 211 " clip-rule="nonzero"/></clipPath><clipPath id="1ce5fe2cc8"><path d="M 386 241 L 398 241 L 398 242.765625 L 386 242.765625 Z M 386 241 " clip-rule="nonzero"/></clipPath><clipPath id="d2d0a12bed"><path d="M 399 198 L 428.507812 198 L 428.507812 240 L 399 240 Z M 399 198 " clip-rule="nonzero"/></clipPath><clipPath id="8537ef8596"><path d="M 114.136719 163.316406 L 696.136719 163.316406 L 696.136719 646.316406 L 114.136719 646.316406 Z M 114.136719 163.316406 " clip-rule="nonzero"/></clipPath><clipPath id="1937f74371"><path d="M 114.136719 163.316406 L 696.136719 163.316406 L 696.136719 281 L 114.136719 281 Z M 114.136719 163.316406 " clip-rule="nonzero"/></clipPath></defs><g clip-path="url(#8e8646c65b)"><path fill="#000000" d="M 402.441406 197.960938 C 402.441406 196.613281 401.34375 195.515625 399.996094 195.515625 L 395.921875 195.515625 L 395.921875 197.960938 C 395.921875 198.882812 395.605469 199.722656 395.085938 200.40625 L 402.441406 200.40625 Z M 402.441406 197.960938 " fill-opacity="1" fill-rule="nonzero"/></g><path fill="#000000" d="M 402.441406 225.660156 L 402.441406 223.214844 L 400.808594 223.214844 L 400.808594 227.953125 C 401.757812 227.617188 402.441406 226.71875 402.441406 225.660156 Z M 402.441406 225.660156 " fill-opacity="1" fill-rule="nonzero"/><g clip-path="url(#65378f7346)"><path fill="#000000" d="M 385.761719 224.957031 C 385.902344 225.753906 386.011719 226.417969 386.011719 226.417969 C 386.023438 226.488281 386.148438 226.476562 386.148438 226.40625 L 386.148438 215.070312 L 382.886719 215.070312 L 382.886719 203.664062 L 394.292969 203.664062 L 394.292969 215.070312 L 391.035156 215.070312 L 391.035156 217.664062 C 391.292969 217.570312 391.5625 217.511719 391.847656 217.511719 C 392.976562 217.511719 393.917969 218.28125 394.199219 219.320312 C 394.480469 219.207031 394.785156 219.140625 395.109375 219.140625 C 396.234375 219.140625 397.175781 219.910156 397.457031 220.949219 C 397.738281 220.835938 398.046875 220.773438 398.367188 220.773438 C 399.085938 220.773438 399.726562 221.089844 400.175781 221.585938 L 402.441406 221.585938 L 402.441406 202.035156 L 381.257812 202.035156 L 381.257812 221.652344 C 381.417969 221.613281 381.585938 221.585938 381.757812 221.585938 C 383.738281 221.585938 385.425781 223.003906 385.761719 224.957031 Z M 395.921875 203.664062 L 400.808594 203.664062 L 400.808594 205.292969 L 395.921875 205.292969 Z M 395.921875 206.921875 L 400.808594 206.921875 L 400.808594 208.550781 L 395.921875 208.550781 Z M 395.921875 210.179688 L 400.808594 210.179688 L 400.808594 211.808594 L 395.921875 211.808594 Z M 395.921875 213.441406 L 400.808594 213.441406 L 400.808594 215.070312 L 395.921875 215.070312 Z M 395.921875 213.441406 " fill-opacity="1" fill-rule="nonzero"/></g><g clip-path="url(#208acaf54e)"><path fill="#000000" d="M 391.847656 200.40625 C 393.195312 200.40625 394.292969 199.308594 394.292969 197.960938 L 394.292969 195.515625 L 389.40625 195.515625 L 389.40625 197.960938 C 389.40625 199.308594 390.5 200.40625 391.847656 200.40625 Z M 391.847656 197.148438 C 392.296875 197.148438 392.664062 197.511719 392.664062 197.960938 C 392.664062 198.410156 392.296875 198.777344 391.847656 198.777344 C 391.398438 198.777344 391.035156 198.410156 391.035156 197.960938 C 391.035156 197.511719 391.398438 197.148438 391.847656 197.148438 Z M 391.847656 197.148438 " fill-opacity="1" fill-rule="nonzero"/></g><g clip-path="url(#99e1800fb5)"><path fill="#000000" d="M 387.777344 197.960938 L 387.777344 195.515625 L 383.703125 195.515625 C 382.355469 195.515625 381.257812 196.613281 381.257812 197.960938 L 381.257812 200.40625 L 388.613281 200.40625 C 388.09375 199.722656 387.777344 198.882812 387.777344 197.960938 Z M 387.777344 197.960938 " fill-opacity="1" fill-rule="nonzero"/></g><g clip-path="url(#d42889d0a3)"><path fill="#000000" d="M 398.367188 222.402344 C 397.917969 222.402344 397.550781 222.765625 397.550781 223.214844 L 397.550781 226.472656 L 395.921875 226.472656 L 395.921875 221.585938 C 395.921875 221.136719 395.554688 220.773438 395.109375 220.773438 C 394.660156 220.773438 394.292969 221.136719 394.292969 221.585938 L 394.292969 226.472656 L 392.664062 226.472656 L 392.664062 219.957031 C 392.664062 219.507812 392.296875 219.140625 391.847656 219.140625 C 391.398438 219.140625 391.035156 219.507812 391.035156 219.957031 L 391.035156 226.472656 L 389.40625 226.472656 L 389.40625 212.625 C 389.40625 212.175781 389.039062 211.808594 388.589844 211.808594 C 388.140625 211.808594 387.777344 212.175781 387.777344 212.625 L 387.777344 226.40625 C 387.777344 227.339844 387.015625 228.101562 386.078125 228.101562 C 385.246094 228.101562 384.542969 227.507812 384.40625 226.6875 C 384.40625 226.683594 384.296875 226.027344 384.15625 225.234375 C 383.953125 224.066406 382.945312 223.214844 381.757812 223.214844 C 381.488281 223.214844 381.269531 223.425781 381.261719 223.695312 L 381.257812 223.792969 C 381.257812 223.839844 381.273438 223.90625 381.296875 223.972656 C 382.359375 226.625 382.886719 229.371094 382.886719 232.175781 C 382.886719 233.453125 383.496094 234.671875 384.515625 235.433594 L 385.601562 236.25 L 397.847656 236.25 C 398.71875 234.347656 399.179688 232.253906 399.179688 230.164062 L 399.179688 223.214844 C 399.179688 222.765625 398.816406 222.402344 398.367188 222.402344 Z M 398.367188 222.402344 " fill-opacity="1" fill-rule="nonzero"/></g><path fill="#000000" d="M 386.148438 237.878906 L 397.550781 237.878906 L 397.550781 239.507812 L 386.148438 239.507812 Z M 386.148438 237.878906 " fill-opacity="1" fill-rule="nonzero"/><path fill="#000000" d="M 392.664062 213.441406 L 392.664062 205.292969 L 384.515625 205.292969 L 384.515625 213.441406 L 386.148438 213.441406 L 386.148438 212.625 C 386.148438 211.277344 387.242188 210.179688 388.589844 210.179688 C 389.9375 210.179688 391.035156 211.277344 391.035156 212.625 L 391.035156 213.441406 Z M 392.664062 213.441406 " fill-opacity="1" fill-rule="nonzero"/><g clip-path="url(#1ce5fe2cc8)"><path fill="#000000" d="M 386.148438 241.136719 L 397.550781 241.136719 L 397.550781 242.765625 L 386.148438 242.765625 Z M 386.148438 241.136719 " fill-opacity="1" fill-rule="nonzero"/></g><g clip-path="url(#d2d0a12bed)"><path fill="#000000" d="M 426.625 216.035156 L 426.527344 215.527344 C 426.046875 213.070312 425.097656 210.773438 423.699219 208.695312 L 423.410156 208.269531 L 424.402344 206.597656 L 420.6875 202.886719 L 419.015625 203.875 L 418.589844 203.585938 C 416.515625 202.191406 414.214844 201.238281 411.757812 200.757812 L 411.25 200.660156 L 410.769531 198.777344 L 404.070312 198.777344 L 404.070312 203.371094 C 405.371094 203.035156 406.734375 202.847656 408.140625 202.847656 C 417.140625 202.847656 424.433594 210.144531 424.433594 219.140625 C 424.433594 228.140625 417.140625 235.433594 408.140625 235.433594 C 405.355469 235.433594 402.738281 234.730469 400.445312 233.5 C 400.273438 234.308594 400.054688 235.113281 399.761719 235.886719 C 401.269531 236.644531 402.867188 237.203125 404.527344 237.527344 L 405.035156 237.625 L 405.515625 239.507812 L 410.769531 239.507812 L 411.25 237.625 L 411.753906 237.527344 C 414.214844 237.046875 416.511719 236.09375 418.589844 234.699219 L 419.015625 234.410156 L 420.683594 235.398438 L 424.398438 231.683594 L 423.410156 230.015625 L 423.699219 229.585938 C 425.09375 227.511719 426.046875 225.214844 426.527344 222.753906 L 426.625 222.25 L 428.507812 221.769531 L 428.507812 216.515625 Z M 426.625 216.035156 " fill-opacity="1" fill-rule="nonzero"/></g><path fill="#000000" d="M 421.992188 219.140625 C 421.992188 219.574219 421.910156 219.988281 421.742188 220.390625 C 421.578125 220.789062 421.34375 221.140625 421.035156 221.445312 C 420.730469 221.753906 420.378906 221.988281 419.980469 222.152344 C 419.582031 222.316406 419.164062 222.402344 418.734375 222.402344 C 418.300781 222.402344 417.886719 222.316406 417.484375 222.152344 C 417.085938 221.988281 416.734375 221.753906 416.429688 221.445312 C 416.121094 221.140625 415.886719 220.789062 415.722656 220.390625 C 415.558594 219.988281 415.472656 219.574219 415.472656 219.140625 C 415.472656 218.710938 415.558594 218.292969 415.722656 217.894531 C 415.886719 217.496094 416.121094 217.144531 416.429688 216.839844 C 416.734375 216.53125 417.085938 216.296875 417.484375 216.132812 C 417.886719 215.964844 418.300781 215.882812 418.734375 215.882812 C 419.164062 215.882812 419.582031 215.964844 419.980469 216.132812 C 420.378906 216.296875 420.730469 216.53125 421.035156 216.839844 C 421.34375 217.144531 421.578125 217.496094 421.742188 217.894531 C 421.910156 218.292969 421.992188 218.710938 421.992188 219.140625 Z M 421.992188 219.140625 " fill-opacity="1" fill-rule="nonzero"/><path fill="#000000" d="M 417.101562 210.996094 C 417.101562 211.320312 417.042969 211.632812 416.917969 211.929688 C 416.792969 212.230469 416.617188 212.496094 416.386719 212.722656 C 416.160156 212.953125 415.894531 213.128906 415.59375 213.253906 C 415.296875 213.378906 414.984375 213.441406 414.660156 213.441406 C 414.335938 213.441406 414.023438 213.378906 413.722656 213.253906 C 413.425781 213.128906 413.160156 212.953125 412.929688 212.722656 C 412.703125 212.496094 412.527344 212.230469 412.402344 211.929688 C 412.277344 211.632812 412.214844 211.320312 412.214844 210.996094 C 412.214844 210.671875 412.277344 210.359375 412.402344 210.058594 C 412.527344 209.761719 412.703125 209.496094 412.929688 209.265625 C 413.160156 209.039062 413.425781 208.863281 413.722656 208.738281 C 414.023438 208.613281 414.335938 208.550781 414.660156 208.550781 C 414.984375 208.550781 415.296875 208.613281 415.59375 208.738281 C 415.894531 208.863281 416.160156 209.039062 416.386719 209.265625 C 416.617188 209.496094 416.792969 209.761719 416.917969 210.058594 C 417.042969 210.359375 417.101562 210.671875 417.101562 210.996094 Z M 417.101562 210.996094 " fill-opacity="1" fill-rule="nonzero"/><path fill="#000000" d="M 417.101562 227.289062 C 417.101562 227.613281 417.042969 227.925781 416.917969 228.222656 C 416.792969 228.523438 416.617188 228.789062 416.386719 229.015625 C 416.160156 229.246094 415.894531 229.421875 415.59375 229.546875 C 415.296875 229.671875 414.984375 229.734375 414.660156 229.734375 C 414.335938 229.734375 414.023438 229.671875 413.722656 229.546875 C 413.425781 229.421875 413.160156 229.246094 412.929688 229.015625 C 412.703125 228.789062 412.527344 228.523438 412.402344 228.222656 C 412.277344 227.925781 412.214844 227.613281 412.214844 227.289062 C 412.214844 226.964844 412.277344 226.652344 412.402344 226.355469 C 412.527344 226.054688 412.703125 225.789062 412.929688 225.5625 C 413.160156 225.332031 413.425781 225.15625 413.722656 225.03125 C 414.023438 224.90625 414.335938 224.84375 414.660156 224.84375 C 414.984375 224.84375 415.296875 224.90625 415.59375 225.03125 C 415.894531 225.15625 416.160156 225.332031 416.386719 225.5625 C 416.617188 225.789062 416.792969 226.054688 416.917969 226.355469 C 417.042969 226.652344 417.101562 226.964844 417.101562 227.289062 Z M 417.101562 227.289062 " fill-opacity="1" fill-rule="nonzero"/><path fill="#000000" d="M 405.699219 218.328125 L 413.84375 218.328125 L 413.84375 219.957031 L 405.699219 219.957031 Z M 405.699219 218.328125 " fill-opacity="1" fill-rule="nonzero"/><path fill="#000000" d="M 405.699219 210.179688 L 410.585938 210.179688 L 410.585938 211.808594 L 405.699219 211.808594 Z M 405.699219 210.179688 " fill-opacity="1" fill-rule="nonzero"/><path fill="#000000" d="M 405.699219 226.472656 L 410.585938 226.472656 L 410.585938 228.101562 L 405.699219 228.101562 Z M 405.699219 226.472656 " fill-opacity="1" fill-rule="nonzero"/><path fill="#000000" d="M 405.699219 221.585938 L 410.585938 221.585938 L 410.585938 223.214844 L 405.699219 223.214844 Z M 405.699219 221.585938 " fill-opacity="1" fill-rule="nonzero"/><path fill="#000000" d="M 412.214844 221.585938 L 413.84375 221.585938 L 413.84375 223.214844 L 412.214844 223.214844 Z M 412.214844 221.585938 " fill-opacity="1" fill-rule="nonzero"/><path fill="#000000" d="M 405.699219 215.070312 L 410.585938 215.070312 L 410.585938 216.699219 L 405.699219 216.699219 Z M 405.699219 215.070312 " fill-opacity="1" fill-rule="nonzero"/><path fill="#000000" d="M 412.214844 215.070312 L 413.84375 215.070312 L 413.84375 216.699219 L 412.214844 216.699219 Z M 412.214844 215.070312 " fill-opacity="1" fill-rule="nonzero"/><path fill="#c6d8fb" d="M 119.480469 275.632812 L 690.789062 275.632812 L 690.789062 187.460938 C 690.789062 177.121094 682.371094 168.714844 672.019531 168.714844 L 138.253906 168.714844 C 127.898438 168.714844 119.480469 177.121094 119.480469 187.460938 Z M 294.671875 197.460938 C 327.324219 198.257812 327.324219 245.976562 294.671875 246.886719 C 262.136719 246.089844 262.136719 198.257812 294.671875 197.460938 Z M 201.957031 197.460938 C 234.609375 198.257812 234.609375 245.976562 201.957031 246.886719 C 169.308594 246.089844 169.308594 198.257812 201.957031 197.460938 Z M 201.957031 197.460938 " fill-opacity="1" fill-rule="evenodd"/><path fill="#c6d8fb" d="M 556.777344 513.4375 C 552.226562 517.527344 519.125 545.820312 517.191406 549.117188 C 512.640625 556.957031 515.371094 567.066406 523.21875 571.5 C 531.070312 576.042969 541.191406 573.316406 545.628906 565.476562 C 547.449219 562.296875 555.414062 519.460938 556.777344 513.4375 Z M 556.777344 513.4375 " fill-opacity="1" fill-rule="evenodd"/><path fill="#c6d8fb" d="M 604.445312 557.296875 C 604.445312 563.886719 603.535156 570.136719 601.941406 576.15625 L 629.242188 583.429688 C 633.792969 566.386719 633.792969 548.09375 629.242188 530.9375 L 601.941406 538.207031 C 603.648438 544.457031 604.445312 550.820312 604.445312 557.296875 Z M 604.445312 557.296875 " fill-opacity="1" fill-rule="evenodd"/><path fill="#c6d8fb" d="M 567.925781 494.125 C 584.535156 503.667969 596.9375 519.574219 602.054688 538.433594 L 629.359375 531.164062 C 622.417969 505.257812 605.355469 483.101562 582.148438 469.695312 Z M 567.925781 494.125 " fill-opacity="1" fill-rule="evenodd"/><path fill="#c6d8fb" d="M 555.527344 404.023438 L 607.855469 404.023438 C 619.121094 404.023438 628.449219 394.820312 628.449219 383.457031 L 628.449219 361.300781 C 628.449219 350.054688 619.234375 340.851562 607.855469 340.851562 L 555.527344 340.851562 C 544.265625 340.851562 534.9375 350.054688 534.9375 361.300781 L 534.9375 383.457031 C 535.050781 394.820312 544.265625 404.023438 555.527344 404.023438 Z M 555.527344 404.023438 " fill-opacity="1" fill-rule="evenodd"/><g clip-path="url(#8537ef8596)"><path fill="#428dff" d="M 672.019531 646.261719 L 138.253906 646.261719 C 124.941406 646.261719 114.136719 635.46875 114.136719 622.171875 L 114.136719 187.460938 C 114.136719 174.167969 124.941406 163.375 138.253906 163.375 L 672.019531 163.375 C 685.328125 163.375 696.136719 174.167969 696.136719 187.460938 L 696.136719 622.289062 C 696.136719 635.46875 685.328125 646.261719 672.019531 646.261719 Z M 138.253906 173.941406 C 130.859375 173.941406 124.828125 179.964844 124.828125 187.347656 L 124.828125 622.171875 C 124.828125 629.558594 130.859375 635.582031 138.253906 635.582031 L 672.019531 635.582031 C 679.414062 635.582031 685.441406 629.558594 685.441406 622.171875 L 685.441406 187.460938 C 685.441406 180.078125 679.414062 174.054688 672.019531 174.054688 L 138.253906 174.054688 Z M 138.253906 173.941406 " fill-opacity="1" fill-rule="nonzero"/></g><g clip-path="url(#1937f74371)"><path fill="#428dff" d="M 690.789062 280.972656 L 119.480469 280.972656 C 116.523438 280.972656 114.136719 278.585938 114.136719 275.632812 L 114.136719 187.460938 C 114.136719 174.167969 124.941406 163.375 138.253906 163.375 L 672.019531 163.375 C 685.328125 163.375 696.136719 174.167969 696.136719 187.460938 L 696.136719 275.746094 C 696.136719 278.585938 693.746094 280.972656 690.789062 280.972656 Z M 124.714844 270.40625 L 685.441406 270.40625 L 685.441406 187.460938 C 685.441406 180.078125 679.414062 174.054688 672.019531 174.054688 L 138.253906 174.054688 C 130.859375 174.054688 124.828125 180.078125 124.828125 187.460938 L 124.828125 270.40625 Z M 124.714844 270.40625 " fill-opacity="1" fill-rule="nonzero"/></g><path fill="#428dff" d="M 294.671875 252.113281 C 255.085938 251.089844 255.085938 193.144531 294.671875 192.121094 C 334.375 193.257812 334.261719 251.089844 294.671875 252.113281 Z M 294.671875 202.800781 C 269.191406 203.253906 269.191406 241.089844 294.671875 241.546875 C 320.269531 241.089844 320.269531 203.253906 294.671875 202.800781 Z M 294.671875 202.800781 " fill-opacity="1" fill-rule="nonzero"/><path fill="#428dff" d="M 201.957031 252.113281 C 162.371094 251.089844 162.371094 193.144531 201.957031 192.121094 C 241.546875 193.257812 241.546875 251.089844 201.957031 252.113281 Z M 201.957031 202.800781 C 176.476562 203.253906 176.476562 241.089844 201.957031 241.546875 C 227.441406 241.089844 227.441406 203.253906 201.957031 202.800781 Z M 201.957031 202.800781 " fill-opacity="1" fill-rule="nonzero"/><path fill="#428dff" d="M 478.285156 409.363281 L 454.847656 409.363281 C 440.628906 409.363281 429.023438 397.773438 429.023438 383.570312 L 429.023438 361.414062 C 429.023438 347.210938 440.628906 335.625 454.847656 335.625 L 478.285156 335.625 C 492.503906 335.625 504.105469 347.210938 504.105469 361.414062 L 504.105469 383.570312 C 504.105469 397.773438 492.503906 409.363281 478.285156 409.363281 Z M 454.847656 346.191406 C 446.429688 346.191406 439.605469 353.007812 439.605469 361.414062 L 439.605469 383.570312 C 439.605469 391.980469 446.429688 398.796875 454.847656 398.796875 L 478.285156 398.796875 C 486.703125 398.796875 493.527344 391.980469 493.527344 383.570312 L 493.527344 361.414062 C 493.527344 353.007812 486.703125 346.191406 478.285156 346.191406 Z M 454.847656 346.191406 " fill-opacity="1" fill-rule="nonzero"/><path fill="#428dff" d="M 607.855469 409.363281 L 555.527344 409.363281 C 541.308594 409.363281 529.703125 397.773438 529.703125 383.570312 L 529.703125 361.414062 C 529.703125 347.210938 541.308594 335.625 555.527344 335.625 L 607.855469 335.625 C 622.078125 335.625 633.679688 347.210938 633.679688 361.414062 L 633.679688 383.570312 C 633.679688 397.773438 622.078125 409.363281 607.855469 409.363281 Z M 555.527344 346.191406 C 547.109375 346.191406 540.28125 353.007812 540.28125 361.414062 L 540.28125 383.570312 C 540.28125 391.980469 547.109375 398.796875 555.527344 398.796875 L 607.855469 398.796875 C 616.273438 398.796875 623.101562 391.980469 623.101562 383.570312 L 623.101562 361.414062 C 623.101562 353.007812 616.273438 346.191406 607.855469 346.191406 Z M 555.527344 346.191406 " fill-opacity="1" fill-rule="nonzero"/><path fill="#428dff" d="M 301.613281 569.792969 L 266.800781 569.792969 C 258.496094 569.792969 251.671875 563.089844 251.671875 554.683594 L 251.671875 547.070312 C 247.804688 545.707031 244.050781 544.117188 240.296875 542.414062 L 234.949219 547.753906 C 229.261719 553.433594 219.25 553.433594 213.5625 547.753906 L 188.988281 523.210938 C 183.1875 517.644531 183.1875 507.53125 188.988281 501.851562 L 194.335938 496.507812 C 192.515625 492.875 190.921875 489.011719 189.671875 485.148438 L 182.164062 485.148438 C 173.859375 485.148438 167.035156 478.445312 167.035156 470.035156 L 167.035156 435.496094 C 167.035156 427.199219 173.859375 420.382812 182.164062 420.382812 L 189.785156 420.382812 C 191.152344 416.519531 192.628906 412.769531 194.449219 409.023438 L 189.105469 403.683594 C 183.300781 398.113281 183.300781 388.003906 189.105469 382.320312 L 213.675781 357.777344 C 219.589844 351.871094 229.148438 351.871094 235.0625 357.777344 L 240.410156 363.121094 C 244.050781 361.300781 247.917969 359.710938 251.785156 358.460938 L 251.785156 350.847656 C 251.785156 342.554688 258.496094 335.738281 266.914062 335.738281 L 301.613281 335.738281 C 309.917969 335.738281 316.742188 342.554688 316.742188 350.847656 L 316.742188 358.460938 C 320.609375 359.824219 324.363281 361.414062 328.121094 363.121094 L 333.464844 357.777344 C 339.382812 351.871094 348.9375 351.871094 354.851562 357.777344 L 379.425781 382.320312 C 385.339844 388.230469 385.339844 397.773438 379.425781 403.683594 L 374.078125 409.023438 C 375.898438 412.65625 377.492188 416.519531 378.742188 420.382812 L 386.363281 420.382812 C 394.667969 420.382812 401.496094 427.085938 401.496094 435.496094 L 401.496094 470.261719 C 401.496094 478.558594 394.667969 485.375 386.363281 485.375 L 378.742188 485.375 C 377.378906 489.238281 375.785156 492.988281 374.078125 496.738281 L 379.425781 502.078125 C 385.339844 507.984375 385.339844 517.527344 379.425781 523.4375 L 354.851562 547.980469 C 349.164062 553.660156 339.269531 553.660156 333.464844 547.980469 L 328.121094 542.640625 C 324.480469 544.457031 320.609375 546.046875 316.742188 547.296875 L 316.742188 554.910156 C 316.628906 563.089844 309.917969 569.792969 301.613281 569.792969 Z M 239.386719 530.710938 C 245.871094 532.527344 251.785156 536.730469 258.613281 538.207031 C 260.886719 538.890625 262.367188 540.933594 262.367188 543.320312 L 262.367188 554.796875 C 262.367188 557.296875 264.414062 559.226562 266.800781 559.226562 L 301.613281 559.226562 C 311.511719 558.320312 300.929688 540.59375 309.917969 538.207031 C 315.71875 536.503906 321.292969 534.117188 326.640625 531.277344 C 328.6875 530.140625 331.304688 530.59375 332.898438 532.1875 L 340.972656 540.253906 C 342.679688 541.957031 345.636719 541.957031 347.34375 540.253906 L 371.917969 515.710938 C 376.695312 510.824219 367.027344 505.257812 363.839844 501.28125 C 362.132812 499.578125 361.792969 497.078125 362.929688 495.03125 C 365.773438 489.804688 368.050781 484.125 369.871094 478.332031 C 372.257812 469.46875 390.003906 480.035156 390.914062 470.148438 L 390.914062 435.496094 C 390.914062 432.996094 388.867188 431.0625 386.480469 431.0625 L 374.988281 431.0625 C 372.601562 431.0625 370.550781 429.585938 369.871094 427.316406 C 368.164062 421.519531 365.773438 415.953125 362.929688 410.613281 C 361.792969 408.566406 362.246094 405.953125 363.839844 404.363281 L 371.917969 396.296875 C 373.625 394.59375 373.625 391.75 371.917969 389.933594 L 347.34375 365.390625 C 342.453125 360.621094 336.992188 370.277344 332.898438 373.457031 C 331.304688 375.164062 328.6875 375.503906 326.640625 374.367188 C 321.292969 371.527344 315.71875 369.140625 309.917969 367.4375 C 304.003906 365.847656 306.730469 355.960938 306.164062 350.847656 C 306.164062 348.347656 304.117188 346.417969 301.726562 346.417969 L 266.914062 346.417969 C 260.089844 346.417969 263.046875 356.984375 262.480469 362.324219 C 262.480469 364.710938 261 366.753906 258.726562 367.4375 C 252.921875 369.140625 247.347656 371.527344 242.003906 374.367188 C 236.769531 377.550781 231.421875 368.347656 227.554688 365.390625 C 225.847656 363.6875 223.003906 363.6875 221.183594 365.390625 L 196.613281 389.933594 C 190.242188 397.660156 210.261719 402.660156 205.710938 410.613281 C 202.867188 415.953125 200.480469 421.519531 198.773438 427.199219 C 198.089844 429.472656 196.042969 430.949219 193.652344 430.949219 C 188.308594 431.519531 177.726562 428.566406 177.726562 435.382812 L 177.726562 470.148438 C 178.636719 480.035156 196.382812 469.46875 198.773438 478.445312 C 200.480469 484.238281 202.867188 489.804688 205.710938 495.03125 C 206.851562 497.078125 206.507812 499.691406 204.800781 501.28125 C 201.617188 505.257812 191.832031 510.824219 196.726562 515.710938 L 221.296875 540.253906 C 223.003906 541.957031 225.960938 541.957031 227.667969 540.253906 C 230.058594 538.433594 235.859375 530.253906 239.386719 530.710938 Z M 284.207031 515.257812 C 201.503906 512.644531 201.617188 392.886719 284.207031 390.273438 C 366.910156 393 366.796875 512.644531 284.207031 515.257812 Z M 284.207031 400.953125 C 215.609375 403.113281 215.609375 502.53125 284.207031 504.691406 C 352.804688 502.53125 352.804688 403.113281 284.207031 400.953125 Z M 284.207031 400.953125 " fill-opacity="1" fill-rule="nonzero"/><path fill="#428dff" d="M 602.054688 543.777344 C 599.667969 543.777344 597.503906 542.070312 596.9375 539.796875 C 592.386719 522.640625 580.78125 507.644531 565.308594 498.667969 C 562.808594 497.191406 561.898438 494.011719 563.375 491.398438 L 577.484375 466.96875 C 578.164062 465.71875 579.304688 464.808594 580.667969 464.46875 C 607.289062 473.105469 626.96875 503.328125 634.476562 529.6875 C 635.273438 532.527344 633.566406 535.367188 630.722656 536.164062 L 603.421875 543.433594 C 602.964844 543.660156 602.511719 543.777344 602.054688 543.777344 Z M 575.09375 492.304688 C 589.199219 501.851562 600.121094 515.9375 605.582031 531.960938 L 622.644531 527.414062 C 615.820312 506.621094 602.28125 488.898438 583.851562 476.96875 Z M 575.09375 492.304688 " fill-opacity="1" fill-rule="nonzero"/><path fill="#428dff" d="M 567.925781 499.351562 C 546.199219 488.101562 519.238281 485.601562 497.394531 498.667969 C 495.007812 500.144531 491.480469 499.238281 490.113281 496.738281 L 476.007812 472.308594 C 474.53125 469.921875 475.441406 466.398438 477.941406 465.035156 C 510.136719 446.855469 557.917969 444.359375 587.152344 468.21875 C 587.492188 469.582031 587.265625 471.058594 586.582031 472.195312 L 572.476562 496.625 C 571.566406 498.328125 569.746094 499.351562 567.925781 499.351562 Z M 531.410156 479.011719 C 543.46875 479.011719 555.300781 481.738281 565.992188 486.964844 L 574.867188 471.625 C 548.019531 458.105469 514.914062 458.105469 488.066406 471.625 L 496.941406 486.964844 C 507.519531 481.738281 519.351562 479.011719 531.410156 479.011719 Z M 531.410156 479.011719 " fill-opacity="1" fill-rule="nonzero"/><path fill="#428dff" d="M 433.347656 588.882812 C 421.515625 590.8125 421.175781 520.597656 434.714844 526.050781 C 434.714844 526.050781 462.015625 533.324219 462.015625 533.324219 C 464.859375 534.117188 466.566406 536.957031 465.769531 539.800781 C 462.699219 551.273438 462.699219 563.433594 465.769531 574.90625 C 466.566406 577.746094 464.859375 580.589844 462.015625 581.382812 L 434.714844 588.65625 C 434.257812 588.769531 433.804688 588.882812 433.347656 588.882812 Z M 437.214844 537.640625 C 434.484375 550.59375 434.484375 564.113281 437.214844 577.066406 L 454.28125 572.523438 C 452.347656 562.523438 452.347656 552.296875 454.28125 542.296875 Z M 437.214844 537.640625 " fill-opacity="1" fill-rule="nonzero"/><path fill="#428dff" d="M 460.765625 543.777344 C 460.308594 543.777344 459.855469 543.660156 459.398438 543.546875 L 432.097656 536.277344 C 429.253906 535.480469 427.546875 532.640625 428.34375 529.800781 C 435.738281 502.304688 453.371094 479.351562 478.054688 465.035156 C 480.558594 463.558594 483.859375 464.46875 485.335938 466.96875 L 499.441406 491.398438 C 500.921875 493.894531 500.011719 497.191406 497.507812 498.667969 C 482.039062 507.644531 470.546875 522.640625 465.882812 539.796875 C 465.316406 542.070312 463.039062 543.777344 460.765625 543.777344 Z M 440.058594 527.414062 L 457.125 531.960938 C 462.699219 515.824219 473.503906 501.851562 487.613281 492.304688 L 478.738281 476.96875 C 460.421875 488.898438 446.886719 506.507812 440.058594 527.414062 Z M 440.058594 527.414062 " fill-opacity="1" fill-rule="nonzero"/><path fill="#428dff" d="M 531.296875 579.113281 C 515.027344 579.453125 503.992188 560.476562 512.527344 546.503906 C 513.777344 544.230469 519.011719 539.230469 546.199219 515.710938 C 549.613281 512.757812 552.226562 510.484375 553.25 509.574219 C 556.777344 506.054688 563.261719 509.804688 562.011719 514.574219 C 561.671875 515.9375 561.101562 519.347656 560.191406 523.664062 C 550.066406 568.203125 555.300781 574.792969 531.296875 579.113281 Z M 548.585938 527.640625 C 538.691406 536.277344 523.445312 549.570312 521.625 552.070312 C 518.667969 557.070312 520.601562 563.886719 525.835938 566.953125 C 530.839844 570.023438 538.007812 568.203125 540.964844 563.089844 C 542.21875 559.796875 546.085938 540.367188 548.585938 527.640625 Z M 548.585938 527.640625 " fill-opacity="1" fill-rule="nonzero"/><path fill="#428dff" d="M 629.359375 588.882812 C 628.902344 588.882812 628.449219 588.769531 627.992188 588.65625 L 600.691406 581.382812 C 597.847656 580.589844 596.140625 577.746094 596.9375 574.90625 C 600.007812 563.546875 600.007812 551.160156 596.9375 539.796875 C 596.140625 536.957031 597.847656 534.117188 600.691406 533.324219 L 627.992188 526.050781 C 641.53125 520.597656 641.1875 590.585938 629.359375 588.882812 Z M 608.3125 572.40625 L 625.375 576.953125 C 628.105469 564 628.105469 550.480469 625.375 537.527344 L 608.3125 542.070312 C 610.246094 552.183594 610.246094 562.523438 608.3125 572.40625 Z M 608.3125 572.40625 " fill-opacity="1" fill-rule="nonzero"/></svg>