<svg xmlns="http://www.w3.org/2000/svg" xmlns:xlink="http://www.w3.org/1999/xlink" width="1080" zoomAndPan="magnify" viewBox="0 0 810 809.999993" height="1080" preserveAspectRatio="xMidYMid meet" version="1.0"><path fill="#000000" d="M 405 243 C 402.347656 243 399.699219 243.066406 397.050781 243.195312 C 394.402344 243.324219 391.757812 243.519531 389.121094 243.78125 C 386.484375 244.039062 383.851562 244.363281 381.230469 244.753906 C 378.605469 245.140625 375.996094 245.59375 373.394531 246.113281 C 370.796875 246.628906 368.207031 247.210938 365.636719 247.855469 C 363.066406 248.5 360.511719 249.207031 357.972656 249.976562 C 355.4375 250.746094 352.921875 251.578125 350.421875 252.46875 C 347.925781 253.363281 345.453125 254.316406 343.003906 255.332031 C 340.554688 256.347656 338.132812 257.421875 335.734375 258.554688 C 333.339844 259.6875 330.972656 260.878906 328.632812 262.128906 C 326.296875 263.378906 323.988281 264.683594 321.714844 266.046875 C 319.441406 267.410156 317.203125 268.828125 314.996094 270.300781 C 312.792969 271.773438 310.625 273.300781 308.496094 274.878906 C 306.367188 276.460938 304.277344 278.089844 302.226562 279.773438 C 300.179688 281.453125 298.171875 283.183594 296.207031 284.964844 C 294.242188 286.746094 292.324219 288.574219 290.449219 290.449219 C 288.574219 292.324219 286.746094 294.242188 284.964844 296.207031 C 283.183594 298.171875 281.453125 300.179688 279.773438 302.226562 C 278.089844 304.277344 276.460938 306.367188 274.878906 308.496094 C 273.300781 310.625 271.773438 312.792969 270.300781 314.996094 C 268.828125 317.203125 267.410156 319.441406 266.046875 321.714844 C 264.683594 323.988281 263.378906 326.296875 262.128906 328.632812 C 260.878906 330.972656 259.6875 333.339844 258.554688 335.734375 C 257.421875 338.132812 256.347656 340.554688 255.332031 343.003906 C 254.316406 345.453125 253.363281 347.925781 252.46875 350.425781 C 251.578125 352.921875 250.746094 355.4375 249.976562 357.972656 C 249.207031 360.511719 248.5 363.066406 247.855469 365.636719 C 247.210938 368.210938 246.628906 370.796875 246.113281 373.394531 C 245.59375 375.996094 245.140625 378.605469 244.753906 381.230469 C 244.363281 383.851562 244.039062 386.484375 243.78125 389.121094 C 243.519531 391.757812 243.324219 394.402344 243.195312 397.050781 C 243.066406 399.699219 243 402.347656 243 405 C 243 407.652344 243.066406 410.300781 243.195312 412.949219 C 243.324219 415.597656 243.519531 418.242188 243.78125 420.878906 C 244.039062 423.515625 244.363281 426.148438 244.753906 428.769531 C 245.140625 431.394531 245.59375 434.003906 246.113281 436.605469 C 246.628906 439.203125 247.210938 441.789062 247.855469 444.363281 C 248.5 446.933594 249.207031 449.488281 249.976562 452.027344 C 250.746094 454.5625 251.578125 457.078125 252.46875 459.574219 C 253.363281 462.074219 254.316406 464.546875 255.332031 466.996094 C 256.347656 469.445312 257.421875 471.867188 258.554688 474.265625 C 259.6875 476.660156 260.878906 479.027344 262.128906 481.367188 C 263.378906 483.703125 264.683594 486.011719 266.046875 488.285156 C 267.410156 490.558594 268.828125 492.796875 270.300781 495.003906 C 271.773438 497.207031 273.300781 499.375 274.878906 501.503906 C 276.460938 503.632812 278.089844 505.722656 279.773438 507.773438 C 281.453125 509.820312 283.183594 511.828125 284.964844 513.792969 C 286.746094 515.757812 288.574219 517.675781 290.449219 519.550781 C 292.324219 521.425781 294.242188 523.253906 296.207031 525.035156 C 298.171875 526.816406 300.179688 528.546875 302.226562 530.226562 C 304.277344 531.910156 306.367188 533.539062 308.496094 535.121094 C 310.625 536.699219 312.792969 538.226562 314.996094 539.699219 C 317.203125 541.171875 319.441406 542.589844 321.714844 543.953125 C 323.988281 545.316406 326.296875 546.621094 328.632812 547.871094 C 330.972656 549.121094 333.339844 550.3125 335.734375 551.445312 C 338.132812 552.578125 340.554688 553.652344 343.003906 554.667969 C 345.453125 555.683594 347.925781 556.636719 350.421875 557.53125 C 352.921875 558.421875 355.4375 559.253906 357.972656 560.023438 C 360.511719 560.792969 363.066406 561.5 365.636719 562.144531 C 368.210938 562.789062 370.796875 563.371094 373.394531 563.886719 C 375.996094 564.40625 378.605469 564.859375 381.230469 565.246094 C 383.851562 565.636719 386.484375 565.960938 389.121094 566.21875 C 391.757812 566.480469 394.402344 566.675781 397.050781 566.804688 C 399.699219 566.933594 402.347656 567 405 567 C 407.652344 567 410.300781 566.933594 412.949219 566.804688 C 415.597656 566.675781 418.242188 566.480469 420.878906 566.21875 C 423.515625 565.960938 426.148438 565.636719 428.769531 565.246094 C 431.394531 564.859375 434.003906 564.40625 436.605469 563.886719 C 439.203125 563.371094 441.789062 562.789062 444.363281 562.144531 C 446.933594 561.5 449.488281 560.792969 452.027344 560.023438 C 454.5625 559.253906 457.078125 558.421875 459.574219 557.53125 C 462.074219 556.636719 464.546875 555.683594 466.996094 554.667969 C 469.445312 553.652344 471.867188 552.578125 474.265625 551.445312 C 476.660156 550.3125 479.027344 549.121094 481.367188 547.871094 C 483.703125 546.621094 486.011719 545.316406 488.285156 543.953125 C 490.558594 542.589844 492.796875 541.171875 495.003906 539.699219 C 497.207031 538.226562 499.375 536.699219 501.503906 535.121094 C 503.632812 533.539062 505.722656 531.910156 507.773438 530.226562 C 509.820312 528.546875 511.828125 526.816406 513.792969 525.035156 C 515.757812 523.253906 517.675781 521.425781 519.550781 519.550781 C 521.425781 517.675781 523.253906 515.757812 525.035156 513.792969 C 526.816406 511.828125 528.546875 509.820312 530.226562 507.773438 C 531.910156 505.722656 533.539062 503.632812 535.121094 501.503906 C 536.699219 499.375 538.226562 497.207031 539.699219 495.003906 C 541.171875 492.796875 542.589844 490.558594 543.953125 488.285156 C 545.316406 486.011719 546.621094 483.703125 547.871094 481.367188 C 549.121094 479.027344 550.3125 476.660156 551.445312 474.265625 C 552.578125 471.867188 553.652344 469.445312 554.667969 466.996094 C 555.683594 464.546875 556.636719 462.074219 557.53125 459.574219 C 558.421875 457.078125 559.253906 454.5625 560.023438 452.027344 C 560.792969 449.488281 561.5 446.933594 562.144531 444.363281 C 562.789062 441.789062 563.371094 439.203125 563.886719 436.605469 C 564.40625 434.003906 564.859375 431.394531 565.246094 428.769531 C 565.636719 426.148438 565.960938 423.515625 566.21875 420.878906 C 566.480469 418.242188 566.675781 415.597656 566.804688 412.949219 C 566.933594 410.300781 567 407.652344 567 405 C 567 402.347656 566.933594 399.699219 566.804688 397.050781 C 566.671875 394.402344 566.476562 391.761719 566.21875 389.121094 C 565.957031 386.484375 565.632812 383.851562 565.242188 381.230469 C 564.855469 378.609375 564.402344 375.996094 563.882812 373.398438 C 563.367188 370.796875 562.785156 368.210938 562.140625 365.640625 C 561.496094 363.066406 560.789062 360.511719 560.019531 357.976562 C 559.25 355.4375 558.417969 352.921875 557.523438 350.425781 C 556.632812 347.929688 555.675781 345.457031 554.664062 343.007812 C 553.648438 340.558594 552.574219 338.136719 551.441406 335.738281 C 550.308594 333.34375 549.113281 330.976562 547.863281 328.636719 C 546.617188 326.300781 545.308594 323.992188 543.945312 321.71875 C 542.582031 319.445312 541.164062 317.207031 539.691406 315.003906 C 538.21875 312.796875 536.691406 310.632812 535.113281 308.5 C 533.535156 306.371094 531.902344 304.28125 530.222656 302.234375 C 528.539062 300.183594 526.808594 298.175781 525.027344 296.214844 C 523.246094 294.25 521.421875 292.328125 519.546875 290.453125 C 517.671875 288.578125 515.75 286.753906 513.785156 284.972656 C 511.824219 283.191406 509.816406 281.460938 507.765625 279.777344 C 505.71875 278.097656 503.628906 276.464844 501.5 274.886719 C 499.367188 273.308594 497.203125 271.78125 494.996094 270.308594 C 492.792969 268.835938 490.554688 267.417969 488.28125 266.054688 C 486.007812 264.691406 483.699219 263.382812 481.363281 262.132812 C 479.023438 260.886719 476.65625 259.691406 474.261719 258.558594 C 471.863281 257.425781 469.441406 256.351562 466.992188 255.335938 C 464.542969 254.320312 462.070312 253.367188 459.574219 252.476562 C 457.078125 251.582031 454.5625 250.75 452.023438 249.980469 C 449.488281 249.210938 446.933594 248.503906 444.359375 247.859375 C 441.789062 247.214844 439.203125 246.632812 436.601562 246.117188 C 434.003906 245.597656 431.390625 245.144531 428.769531 244.757812 C 426.148438 244.367188 423.515625 244.042969 420.878906 243.78125 C 418.238281 243.523438 415.597656 243.328125 412.949219 243.195312 C 410.300781 243.066406 407.652344 243 405 243 Z M 405 303.75 C 405.957031 303.75 406.914062 303.777344 407.871094 303.832031 C 408.828125 303.886719 409.785156 303.96875 410.734375 304.078125 C 411.6875 304.191406 412.636719 304.328125 413.582031 304.492188 C 414.523438 304.65625 415.460938 304.847656 416.394531 305.070312 C 417.328125 305.289062 418.253906 305.535156 419.171875 305.808594 C 420.09375 306.078125 421.003906 306.378906 421.902344 306.703125 C 422.804688 307.03125 423.695312 307.382812 424.578125 307.757812 C 425.457031 308.136719 426.328125 308.539062 427.183594 308.964844 C 428.042969 309.394531 428.886719 309.84375 429.71875 310.320312 C 430.550781 310.796875 431.367188 311.296875 432.171875 311.820312 C 432.972656 312.34375 433.761719 312.890625 434.53125 313.460938 C 435.304688 314.027344 436.058594 314.621094 436.792969 315.234375 C 437.53125 315.84375 438.25 316.480469 438.949219 317.132812 C 439.648438 317.789062 440.332031 318.460938 440.992188 319.15625 C 441.652344 319.847656 442.292969 320.5625 442.914062 321.292969 C 443.535156 322.023438 444.132812 322.769531 444.707031 323.535156 C 445.285156 324.300781 445.839844 325.082031 446.371094 325.882812 C 446.902344 326.679688 447.410156 327.492188 447.894531 328.316406 C 448.378906 329.144531 448.839844 329.984375 449.277344 330.839844 C 449.710938 331.691406 450.121094 332.558594 450.507812 333.433594 C 450.894531 334.3125 451.253906 335.199219 451.589844 336.097656 C 451.921875 336.996094 452.230469 337.902344 452.515625 338.820312 C 452.796875 339.734375 453.050781 340.65625 453.28125 341.589844 C 453.507812 342.519531 453.710938 343.457031 453.882812 344.398438 C 454.058594 345.339844 454.207031 346.289062 454.324219 347.238281 C 454.445312 348.1875 454.535156 349.144531 454.601562 350.097656 C 454.664062 351.054688 454.703125 352.011719 454.710938 352.972656 C 454.71875 353.929688 454.703125 354.886719 454.65625 355.84375 C 454.609375 356.800781 454.535156 357.757812 454.433594 358.710938 C 454.332031 359.664062 454.203125 360.613281 454.046875 361.558594 C 453.890625 362.503906 453.703125 363.441406 453.492188 364.378906 C 453.28125 365.3125 453.046875 366.242188 452.78125 367.160156 C 452.515625 368.082031 452.226562 368.996094 451.90625 369.898438 C 451.589844 370.804688 451.246094 371.699219 450.875 372.582031 C 450.507812 373.46875 450.113281 374.339844 449.695312 375.203125 C 449.273438 376.0625 448.828125 376.914062 448.359375 377.746094 C 447.890625 378.582031 447.398438 379.40625 446.882812 380.210938 C 446.367188 381.019531 445.828125 381.8125 445.265625 382.589844 C 444.703125 383.363281 444.117188 384.125 443.511719 384.867188 C 442.90625 385.609375 442.277344 386.332031 441.628906 387.039062 C 440.980469 387.746094 440.316406 388.429688 439.625 389.097656 C 438.9375 389.765625 438.230469 390.414062 437.507812 391.039062 C 436.78125 391.664062 436.039062 392.269531 435.277344 392.855469 C 434.519531 393.4375 433.742188 394 432.949219 394.539062 C 432.15625 395.078125 431.347656 395.589844 430.527344 396.082031 C 429.703125 396.574219 428.867188 397.042969 428.019531 397.488281 C 427.167969 397.929688 426.308594 398.347656 425.433594 398.742188 C 424.558594 399.136719 423.675781 399.503906 422.78125 399.847656 C 421.882812 400.1875 420.980469 400.503906 420.066406 400.796875 C 419.152344 401.085938 418.234375 401.347656 417.304688 401.585938 C 416.375 401.824219 415.441406 402.03125 414.5 402.214844 C 413.558594 402.398438 412.613281 402.554688 411.664062 402.679688 C 410.714844 402.808594 409.761719 402.910156 408.804688 402.984375 C 407.851562 403.054688 406.894531 403.101562 405.933594 403.117188 C 404.976562 403.136719 404.019531 403.125 403.0625 403.089844 C 402.105469 403.050781 401.148438 402.984375 400.195312 402.890625 C 399.238281 402.796875 398.289062 402.675781 397.34375 402.53125 C 396.394531 402.382812 395.453125 402.207031 394.515625 402.003906 C 393.582031 401.800781 392.652344 401.570312 391.726562 401.316406 C 390.804688 401.058594 389.886719 400.773438 388.980469 400.464844 C 388.074219 400.15625 387.175781 399.820312 386.289062 399.460938 C 385.402344 399.097656 384.527344 398.710938 383.660156 398.300781 C 382.792969 397.886719 381.941406 397.449219 381.101562 396.988281 C 380.261719 396.527344 379.4375 396.042969 378.625 395.53125 C 336.910156 369.105469 354.984375 304.257812 405 303.75 Z M 463.269531 506.25 L 346.730469 506.25 C 345.527344 506.246094 344.328125 506.1875 343.132812 506.066406 C 341.9375 505.945312 340.746094 505.769531 339.570312 505.53125 C 338.390625 505.296875 337.226562 505 336.074219 504.652344 C 334.925781 504.300781 333.792969 503.894531 332.683594 503.433594 C 331.574219 502.972656 330.488281 502.457031 329.429688 501.886719 C 328.367188 501.320312 327.339844 500.703125 326.339844 500.03125 C 325.339844 499.363281 324.375 498.648438 323.449219 497.882812 C 322.519531 497.121094 321.628906 496.3125 320.78125 495.460938 C 319.929688 494.609375 319.125 493.71875 318.363281 492.789062 C 317.601562 491.859375 316.882812 490.894531 316.21875 489.894531 C 315.550781 488.894531 314.933594 487.863281 314.367188 486.804688 C 313.800781 485.742188 313.285156 484.65625 312.824219 483.546875 C 312.367188 482.4375 311.960938 481.304688 311.613281 480.152344 C 311.261719 479.003906 310.96875 477.839844 310.734375 476.660156 C 310.5 475.480469 310.324219 474.292969 310.207031 473.09375 C 310.085938 471.898438 310.027344 470.699219 310.027344 469.496094 C 310.027344 438.363281 332.960938 411.480469 365.867188 399.378906 C 367.222656 400.527344 368.621094 401.609375 370.070312 402.632812 C 371.523438 403.65625 373.011719 404.613281 374.546875 405.503906 C 376.078125 406.394531 377.648438 407.21875 379.253906 407.972656 C 380.859375 408.726562 382.496094 409.40625 384.164062 410.019531 C 385.828125 410.628906 387.515625 411.164062 389.230469 411.625 C 390.941406 412.085938 392.671875 412.472656 394.417969 412.78125 C 396.164062 413.09375 397.921875 413.324219 399.6875 413.480469 C 401.457031 413.636719 403.226562 413.714844 405 413.714844 C 406.773438 413.714844 408.542969 413.636719 410.3125 413.480469 C 412.078125 413.324219 413.835938 413.09375 415.582031 412.78125 C 417.328125 412.472656 419.058594 412.085938 420.769531 411.625 C 422.484375 411.164062 424.171875 410.628906 425.835938 410.019531 C 427.503906 409.40625 429.140625 408.726562 430.746094 407.972656 C 432.351562 407.21875 433.921875 406.394531 435.453125 405.503906 C 436.988281 404.613281 438.476562 403.65625 439.929688 402.632812 C 441.378906 401.609375 442.777344 400.527344 444.132812 399.378906 C 477.039062 411.480469 499.972656 438.363281 499.972656 469.496094 C 499.972656 470.699219 499.914062 471.898438 499.792969 473.09375 C 499.675781 474.292969 499.5 475.480469 499.265625 476.660156 C 499.03125 477.839844 498.738281 479.003906 498.386719 480.152344 C 498.039062 481.304688 497.632812 482.4375 497.175781 483.546875 C 496.714844 484.65625 496.199219 485.742188 495.632812 486.804688 C 495.066406 487.863281 494.449219 488.894531 493.78125 489.894531 C 493.117188 490.894531 492.398438 491.859375 491.636719 492.789062 C 490.875 493.71875 490.070312 494.609375 489.21875 495.460938 C 488.371094 496.3125 487.480469 497.121094 486.550781 497.882812 C 485.621094 498.648438 484.660156 499.363281 483.660156 500.03125 C 482.660156 500.703125 481.632812 501.320312 480.570312 501.886719 C 479.511719 502.457031 478.425781 502.972656 477.316406 503.433594 C 476.207031 503.894531 475.074219 504.300781 473.925781 504.652344 C 472.773438 505 471.609375 505.296875 470.429688 505.53125 C 469.253906 505.769531 468.0625 505.945312 466.867188 506.066406 C 465.671875 506.1875 464.472656 506.246094 463.269531 506.25 Z M 463.269531 506.25 " fill-opacity="1" fill-rule="nonzero"/><path fill="#3998ff" d="M 809.464844 389.648438 C 809.464844 396.023438 809.308594 402.390625 808.996094 408.757812 C 808.683594 415.125 808.21875 421.480469 807.59375 427.820312 C 806.96875 434.164062 806.191406 440.488281 805.253906 446.792969 C 804.320312 453.097656 803.234375 459.375 801.988281 465.628906 C 800.746094 471.878906 799.351562 478.097656 797.804688 484.28125 C 796.257812 490.460938 794.558594 496.605469 792.707031 502.703125 C 790.859375 508.804688 788.859375 514.855469 786.714844 520.855469 C 784.566406 526.855469 782.273438 532.800781 779.835938 538.691406 C 777.398438 544.578125 774.816406 550.40625 772.09375 556.167969 C 769.367188 561.929688 766.503906 567.621094 763.5 573.242188 C 760.496094 578.863281 757.355469 584.40625 754.078125 589.875 C 750.804688 595.34375 747.394531 600.726562 743.855469 606.027344 C 740.3125 611.324219 736.644531 616.535156 732.847656 621.65625 C 729.050781 626.777344 725.132812 631.800781 721.089844 636.726562 C 717.046875 641.652344 712.886719 646.480469 708.605469 651.203125 C 704.324219 655.925781 699.933594 660.539062 695.425781 665.046875 C 690.917969 669.554688 686.304688 673.949219 681.582031 678.230469 C 676.859375 682.511719 672.035156 686.671875 667.109375 690.71875 C 662.183594 694.761719 657.160156 698.679688 652.039062 702.480469 C 646.921875 706.277344 641.710938 709.945312 636.414062 713.488281 C 631.113281 717.027344 625.730469 720.4375 620.265625 723.714844 C 614.796875 726.992188 609.253906 730.132812 603.632812 733.136719 C 598.011719 736.144531 592.320312 739.007812 586.558594 741.734375 C 580.796875 744.460938 574.972656 747.042969 569.082031 749.480469 C 563.195312 751.921875 557.25 754.214844 551.25 756.363281 C 545.25 758.511719 539.199219 760.507812 533.097656 762.359375 C 527 764.210938 520.859375 765.910156 514.675781 767.457031 C 508.492188 769.007812 502.277344 770.40625 496.027344 771.648438 C 489.773438 772.890625 483.496094 773.980469 477.191406 774.917969 C 470.886719 775.851562 464.5625 776.632812 458.21875 777.257812 C 451.878906 777.882812 445.523438 778.351562 439.15625 778.664062 C 432.789062 778.976562 426.421875 779.136719 420.046875 779.136719 C 413.671875 779.136719 407.304688 778.980469 400.9375 778.667969 C 394.570312 778.355469 388.214844 777.886719 381.875 777.261719 C 375.53125 776.636719 369.207031 775.855469 362.902344 774.921875 C 356.597656 773.988281 350.320312 772.898438 344.066406 771.65625 C 337.816406 770.410156 331.597656 769.015625 325.417969 767.46875 C 319.234375 765.917969 313.09375 764.21875 306.992188 762.371094 C 300.894531 760.519531 294.84375 758.519531 288.84375 756.375 C 282.839844 754.226562 276.894531 751.933594 271.007812 749.496094 C 265.117188 747.054688 259.292969 744.472656 253.53125 741.75 C 247.769531 739.023438 242.078125 736.160156 236.457031 733.152344 C 230.835938 730.148438 225.292969 727.007812 219.824219 723.730469 C 214.359375 720.457031 208.972656 717.046875 203.675781 713.503906 C 198.375 709.964844 193.164062 706.296875 188.046875 702.5 C 182.925781 698.703125 177.902344 694.78125 172.976562 690.738281 C 168.050781 686.695312 163.226562 682.53125 158.503906 678.253906 C 153.78125 673.972656 149.164062 669.578125 144.65625 665.070312 C 140.152344 660.566406 135.757812 655.949219 131.476562 651.226562 C 127.195312 646.503906 123.035156 641.679688 118.992188 636.753906 C 114.949219 631.824219 111.027344 626.800781 107.230469 621.683594 C 103.433594 616.5625 99.765625 611.355469 96.222656 606.054688 C 92.683594 600.753906 89.273438 595.371094 85.996094 589.90625 C 82.722656 584.4375 79.582031 578.894531 76.578125 573.273438 C 73.570312 567.652344 70.707031 561.960938 67.980469 556.199219 C 65.257812 550.4375 62.675781 544.609375 60.234375 538.722656 C 57.796875 532.832031 55.503906 526.886719 53.355469 520.886719 C 51.210938 514.886719 49.210938 508.835938 47.363281 502.734375 C 45.511719 496.636719 43.8125 490.496094 42.265625 484.3125 C 40.714844 478.128906 39.320312 471.914062 38.078125 465.660156 C 36.832031 459.410156 35.742188 453.132812 34.808594 446.828125 C 33.875 440.523438 33.09375 434.199219 32.46875 427.855469 C 31.84375 421.511719 31.378906 415.15625 31.066406 408.792969 C 30.753906 402.425781 30.597656 396.054688 30.597656 389.683594 C 30.597656 383.308594 30.753906 376.9375 31.066406 370.574219 C 31.378906 364.207031 31.847656 357.851562 32.472656 351.507812 C 33.097656 345.164062 33.878906 338.84375 34.816406 332.539062 C 35.75 326.234375 36.839844 319.953125 38.085938 313.703125 C 39.328125 307.453125 40.722656 301.234375 42.273438 295.050781 C 43.824219 288.871094 45.523438 282.730469 47.371094 276.628906 C 49.222656 270.53125 51.222656 264.480469 53.371094 258.480469 C 55.519531 252.476562 57.8125 246.535156 60.25 240.644531 C 62.691406 234.757812 65.273438 228.933594 68 223.171875 C 70.726562 217.410156 73.589844 211.71875 76.59375 206.097656 C 79.601562 200.476562 82.742188 194.933594 86.019531 189.464844 C 89.296875 184 92.703125 178.617188 96.246094 173.316406 C 99.789062 168.015625 103.457031 162.808594 107.253906 157.6875 C 111.050781 152.570312 114.972656 147.546875 119.015625 142.621094 C 123.058594 137.695312 127.222656 132.871094 131.503906 128.148438 C 135.785156 123.425781 140.179688 118.808594 144.6875 114.304688 C 149.191406 109.796875 153.808594 105.402344 158.53125 101.125 C 163.253906 96.84375 168.078125 92.683594 173.007812 88.640625 C 177.933594 84.597656 182.957031 80.675781 188.078125 76.882812 C 193.199219 73.085938 198.40625 69.417969 203.707031 65.875 C 209.007812 62.335938 214.390625 58.925781 219.859375 55.652344 C 225.324219 52.375 230.871094 49.234375 236.492188 46.230469 C 242.113281 43.226562 247.804688 40.363281 253.566406 37.636719 C 259.328125 34.914062 265.15625 32.332031 271.042969 29.894531 C 276.933594 27.457031 282.878906 25.164062 288.878906 23.015625 C 294.878906 20.871094 300.929688 18.871094 307.03125 17.023438 C 313.128906 15.171875 319.269531 13.476562 325.453125 11.925781 C 331.636719 10.378906 337.855469 8.984375 344.105469 7.742188 C 350.355469 6.5 356.636719 5.410156 362.941406 4.476562 C 369.246094 3.542969 375.570312 2.761719 381.914062 2.136719 C 388.253906 1.515625 394.609375 1.046875 400.976562 0.734375 C 407.34375 0.421875 413.710938 0.265625 420.085938 0.269531 C 426.464844 0.246094 432.839844 0.378906 439.210938 0.671875 C 445.585938 0.960938 451.945312 1.410156 458.296875 2.015625 C 464.644531 2.621094 470.976562 3.382812 477.289062 4.300781 C 483.601562 5.214844 489.886719 6.289062 496.148438 7.515625 C 502.40625 8.742188 508.632812 10.125 514.824219 11.660156 C 521.015625 13.195312 527.164062 14.878906 533.273438 16.71875 C 539.382812 18.554688 545.441406 20.542969 551.453125 22.679688 C 557.460938 24.816406 563.417969 27.101562 569.3125 29.53125 C 575.210938 31.960938 581.046875 34.535156 586.816406 37.253906 C 592.585938 39.972656 598.289062 42.828125 603.917969 45.828125 C 609.546875 48.828125 615.097656 51.964844 620.574219 55.238281 C 626.050781 58.511719 631.441406 61.917969 636.746094 65.457031 C 642.054688 68.996094 647.269531 72.664062 652.398438 76.460938 C 657.523438 80.257812 662.550781 84.175781 667.484375 88.222656 C 672.417969 92.265625 677.246094 96.429688 681.976562 100.710938 C 686.703125 104.996094 691.320312 109.390625 695.832031 113.902344 C 700.34375 118.410156 704.738281 123.03125 709.023438 127.757812 C 713.304688 132.484375 717.46875 137.316406 721.511719 142.25 C 725.554688 147.179688 729.476562 152.210938 733.273438 157.335938 C 737.070312 162.464844 740.738281 167.679688 744.277344 172.988281 C 747.816406 178.292969 751.222656 183.683594 754.496094 189.160156 C 757.769531 194.632812 760.902344 200.1875 763.902344 205.816406 C 766.902344 211.445312 769.761719 217.148438 772.480469 222.917969 C 775.199219 228.6875 777.773438 234.523438 780.203125 240.417969 C 782.632812 246.316406 784.917969 252.273438 787.054688 258.28125 C 789.1875 264.292969 791.175781 270.351562 793.015625 276.460938 C 794.851562 282.566406 796.539062 288.71875 798.074219 294.910156 C 799.605469 301.101562 800.988281 307.328125 802.214844 313.585938 C 803.441406 319.847656 804.515625 326.132812 805.433594 332.445312 C 806.351562 338.757812 807.113281 345.089844 807.714844 351.4375 C 808.320312 357.789062 808.769531 364.148438 809.0625 370.523438 C 809.351562 376.894531 809.488281 383.269531 809.464844 389.648438 Z M 809.464844 389.648438 " fill-opacity="1" fill-rule="nonzero"/><path fill="#ffffff" d="M 720.460938 637.566406 C 715.863281 643.136719 711.117188 648.578125 706.214844 653.882812 C 701.316406 659.191406 696.273438 664.355469 691.085938 669.382812 C 685.898438 674.40625 680.574219 679.285156 675.117188 684.015625 C 669.65625 688.746094 664.070312 693.320312 658.355469 697.738281 C 652.644531 702.15625 646.8125 706.414062 640.863281 710.507812 C 634.910156 714.601562 628.851562 718.527344 622.683594 722.285156 C 616.515625 726.042969 610.246094 729.625 603.878906 733.035156 C 597.511719 736.445312 591.054688 739.671875 584.507812 742.722656 C 577.957031 745.773438 571.332031 748.636719 564.625 751.316406 C 557.917969 754 551.140625 756.492188 544.296875 758.796875 C 537.449219 761.097656 530.546875 763.210938 523.582031 765.128906 C 516.621094 767.050781 509.609375 768.773438 502.550781 770.304688 C 495.492188 771.835938 488.394531 773.167969 481.261719 774.300781 C 474.128906 775.4375 466.96875 776.371094 459.785156 777.109375 C 452.601562 777.84375 445.398438 778.382812 438.183594 778.71875 C 430.96875 779.054688 423.75 779.1875 416.527344 779.125 C 409.304688 779.058594 402.089844 778.792969 394.882812 778.324219 C 387.675781 777.859375 380.488281 777.191406 373.316406 776.324219 C 366.144531 775.457031 359.003906 774.390625 351.894531 773.128906 C 344.78125 771.863281 337.710938 770.402344 330.679688 768.746094 C 323.652344 767.089844 316.671875 765.238281 309.746094 763.191406 C 302.816406 761.144531 295.953125 758.910156 289.152344 756.480469 C 282.347656 754.054688 275.617188 751.4375 268.960938 748.636719 C 262.304688 745.835938 255.730469 742.851562 249.238281 739.683594 C 242.746094 736.515625 236.347656 733.167969 230.042969 729.644531 C 223.738281 726.121094 217.535156 722.425781 211.4375 718.558594 C 205.339844 714.6875 199.351562 710.652344 193.476562 706.453125 C 187.601562 702.25 181.847656 697.886719 176.214844 693.367188 C 170.582031 688.84375 165.082031 684.167969 159.710938 679.339844 C 154.335938 674.511719 149.101562 669.539062 144.007812 664.421875 C 138.910156 659.300781 133.960938 654.042969 129.160156 648.652344 C 124.355469 643.257812 119.707031 637.730469 115.210938 632.078125 C 156.695312 572.925781 221.003906 531.882812 356.226562 530.34375 C 512.285156 528.464844 627.078125 522.773438 674.488281 575.230469 C 691.75 594.582031 707.074219 615.359375 720.460938 637.566406 Z M 720.460938 637.566406 " fill-opacity="1" fill-rule="nonzero"/><path fill="#14213d" d="M 291.0625 291.449219 C 216.1875 264.363281 228.398438 165.597656 239.023438 163.472656 C 249.644531 161.351562 272.460938 178.871094 273.53125 179.402344 C 274.601562 179.933594 268.230469 135.328125 282.570312 114.617188 C 296.910156 93.910156 351.601562 135.859375 393.554688 136.390625 C 435.503906 136.921875 536.933594 139.574219 566.664062 166.128906 C 596.398438 192.679688 580.964844 249.5 580.964844 249.5 C 580.964844 249.5 614.988281 258.527344 608.070312 306.320312 C 601.15625 354.117188 547.535156 395.15625 528.417969 429.59375 C 509.300781 464.03125 395.75 470.410156 378.132812 420.492188 " fill-opacity="1" fill-rule="nonzero"/><path fill="#ffb5a6" d="M 414.394531 587.898438 C 359.957031 587.898438 351.949219 542.464844 351.730469 534.78125 C 351.730469 533.90625 351.621094 532.367188 351.730469 530.28125 C 351.621094 526.003906 351.621094 519.417969 351.621094 511.734375 C 351.839844 490.992188 352.058594 462.351562 351.730469 450.058594 L 455.660156 412.851562 L 474.535156 406.050781 L 495.5 398.585938 C 495.5 398.585938 495.386719 402.644531 495.167969 409.34375 C 495.058594 413.183594 494.949219 417.902344 494.839844 423.28125 C 494.855469 423.910156 494.816406 424.535156 494.726562 425.160156 C 494.621094 432.941406 494.511719 441.839844 494.289062 451.167969 C 493.960938 480.472656 493.851562 513.394531 495.386719 525.242188 C 498.230469 548.28125 468.816406 587.898438 414.394531 587.898438 Z M 414.394531 587.898438 " fill-opacity="1" fill-rule="nonzero"/><path fill="#e86b70" d="M 495.59375 423.5 C 495.347656 424.070312 495.054688 424.621094 494.71875 425.144531 C 457.84375 500.980469 402.421875 531.050781 351.71875 530.28125 C 351.609375 526.003906 351.609375 519.417969 351.609375 511.734375 C 351.828125 490.992188 352.046875 462.351562 351.71875 450.058594 L 455.648438 412.851562 L 494.832031 423.28125 Z M 495.59375 423.5 " fill-opacity="1" fill-rule="nonzero"/><path fill="#ffb5a6" d="M 289.003906 224.007812 C 349.539062 296.585938 499.050781 283.488281 499.050781 283.488281 C 499.050781 283.488281 501.882812 368.449219 516.753906 367.742188 C 531.621094 367.035156 534.101562 319.949219 570.5625 327.753906 C 607.027344 335.554688 584.371094 405.992188 556.050781 409.878906 C 527.730469 413.769531 520.644531 389.699219 520.644531 389.699219 C 520.644531 389.699219 468.429688 493.25 385.585938 493.25 C 302.746094 493.25 281.539062 413.832031 282.039062 370.574219 C 282.535156 327.316406 289.003906 224.007812 289.003906 224.007812 Z M 289.003906 224.007812 " fill-opacity="1" fill-rule="nonzero"/></svg>